Space-Mono-Regular.ufo
<glyph name="exclam" format="1">
  <advance width="612"/>
  <unicode hex="0021"/>
  <outline>
    <contour>
      <point x="236" y="56" type="curve" smooth="yes"/>
      <point x="236" y="18"/>
      <point x="268" y="-14"/>
      <point x="306" y="-14" type="curve" smooth="yes"/>
      <point x="344" y="-14"/>
      <point x="376" y="18"/>
      <point x="376" y="56" type="curve" smooth="yes"/>
      <point x="376" y="94"/>
      <point x="344" y="126"/>
      <point x="306" y="126" type="curve" smooth="yes"/>
      <point x="268" y="126"/>
      <point x="236" y="94"/>
    </contour>
    <contour>
      <point x="266" y="700" type="line"/>
      <point x="266" y="186" type="line"/>
      <point x="346" y="186" type="line"/>
      <point x="346" y="700" type="line"/>
    </contour>
  </outline>
</glyph>
<glyph name="quotedbl" format="1">
  <advance width="612"/>
  <unicode hex="0022"/>
  <outline>
    <contour>
      <point x="327" y="644" type="curve" smooth="yes"/>
      <point x="327" y="615"/>
      <point x="345" y="590"/>
      <point x="370" y="579" type="curve"/>
      <point x="370" y="468" type="line"/>
      <point x="424" y="468" type="line"/>
      <point x="424" y="579" type="line"/>
      <point x="449" y="590"/>
      <point x="467" y="615"/>
      <point x="467" y="644" type="curve" smooth="yes"/>
      <point x="467" y="682"/>
      <point x="435" y="714"/>
      <point x="397" y="714" type="curve" smooth="yes"/>
      <point x="359" y="714"/>
      <point x="327" y="682"/>
    </contour>
    <contour>
      <point x="145" y="644" type="curve" smooth="yes"/>
      <point x="145" y="615"/>
      <point x="163" y="590"/>
      <point x="188" y="579" type="curve"/>
      <point x="188" y="468" type="line"/>
      <point x="242" y="468" type="line"/>
      <point x="242" y="579" type="line"/>
      <point x="267" y="590"/>
      <point x="285" y="615"/>
      <point x="285" y="644" type="curve" smooth="yes"/>
      <point x="285" y="682"/>
      <point x="253" y="714"/>
      <point x="215" y="714" type="curve" smooth="yes"/>
      <point x="177" y="714"/>
      <point x="145" y="682"/>
    </contour>
  </outline>
</glyph>
<glyph name="parenleft" format="1">
  <advance width="612"/>
  <unicode hex="0028"/>
  <outline>
    <contour>
      <point x="510" y="-82" type="line"/>
      <point x="366" y="-82"/>
      <point x="234" y="36"/>
      <point x="234" y="228" type="curve" smooth="yes"/>
      <point x="234" y="472" type="line" smooth="yes"/>
      <point x="234" y="664"/>
      <point x="366" y="782"/>
      <point x="510" y="782" type="curve" smooth="yes"/>
      <point x="546" y="782" type="line"/>
      <point x="546" y="856" type="line"/>
      <point x="510" y="856" type="line" smooth="yes"/>
      <point x="324" y="856"/>
      <point x="156" y="712"/>
      <point x="156" y="476" type="curve" smooth="yes"/>
      <point x="156" y="224" type="line" smooth="yes"/>
      <point x="156" y="-12"/>
      <point x="324" y="-156"/>
      <point x="510" y="-156" type="curve" smooth="yes"/>
      <point x="546" y="-156" type="line"/>
      <point x="546" y="-82" type="line"/>
    </contour>
  </outline>
</glyph>
<glyph name="parenright" format="1">
  <advance width="612"/>
  <unicode hex="0029"/>
  <outline>
    <contour>
      <point x="66" y="-82" type="line"/>
      <point x="66" y="-156" type="line"/>
      <point x="102" y="-156" type="line" smooth="yes"/>
      <point x="288" y="-156"/>
      <point x="456" y="-12"/>
      <point x="456" y="224" type="curve" smooth="yes"/>
      <point x="456" y="476" type="line" smooth="yes"/>
      <point x="456" y="712"/>
      <point x="288" y="856"/>
      <point x="102" y="856" type="curve" smooth="yes"/>
      <point x="66" y="856" type="line"/>
      <point x="66" y="782" type="line"/>
      <point x="102" y="782" type="line" smooth="yes"/>
      <point x="246" y="782"/>
      <point x="378" y="664"/>
      <point x="378" y="472" type="curve" smooth="yes"/>
      <point x="378" y="228" type="line" smooth="yes"/>
      <point x="378" y="36"/>
      <point x="246" y="-82"/>
      <point x="102" y="-82" type="curve" smooth="yes"/>
    </contour>
  </outline>
</glyph>
<glyph name="plus" format="1">
  <advance width="612"/>
  <unicode hex="002B"/>
  <outline>
    <contour>
      <point x="97" y="314" type="line"/>
      <point x="270" y="314" type="line"/>
      <point x="270" y="141" type="line"/>
      <point x="342" y="141" type="line"/>
      <point x="342" y="314" type="line"/>
      <point x="515" y="314" type="line"/>
      <point x="515" y="386" type="line"/>
      <point x="342" y="386" type="line"/>
      <point x="342" y="559" type="line"/>
      <point x="270" y="559" type="line"/>
      <point x="270" y="386" type="line"/>
      <point x="97" y="386" type="line"/>
    </contour>
  </outline>
</glyph>
<glyph name="comma" format="1">
  <advance width="612"/>
  <unicode hex="002C"/>
  <outline>
    <contour>
      <point x="236" y="56" type="curve" smooth="yes"/>
      <point x="236" y="18"/>
      <point x="268" y="-14"/>
      <point x="305" y="-14" type="curve" smooth="yes"/>
      <point x="311" y="-14"/>
      <point x="317" y="-13"/>
      <point x="322" y="-11" type="curve"/>
      <point x="322" y="-36" type="line" smooth="yes"/>
      <point x="322" y="-55"/>
      <point x="314" y="-66"/>
      <point x="295" y="-66" type="curve" smooth="yes"/>
      <point x="248" y="-66" type="line"/>
      <point x="248" y="-120" type="line"/>
      <point x="299" y="-120" type="line" smooth="yes"/>
      <point x="344" y="-120"/>
      <point x="376" y="-87"/>
      <point x="376" y="-42" type="curve" smooth="yes"/>
      <point x="376" y="56" type="line" smooth="yes"/>
      <point x="376" y="94"/>
      <point x="344" y="126"/>
      <point x="306" y="126" type="curve" smooth="yes"/>
      <point x="268" y="126"/>
      <point x="236" y="94"/>
    </contour>
  </outline>
</glyph>
<glyph name="period" format="1">
  <advance width="612"/>
  <unicode hex="002E"/>
  <outline>
    <contour>
      <point x="236" y="56" type="curve" smooth="yes"/>
      <point x="236" y="18"/>
      <point x="268" y="-14"/>
      <point x="306" y="-14" type="curve" smooth="yes"/>
      <point x="344" y="-14"/>
      <point x="376" y="18"/>
      <point x="376" y="56" type="curve" smooth="yes"/>
      <point x="376" y="94"/>
      <point x="344" y="126"/>
      <point x="306" y="126" type="curve" smooth="yes"/>
      <point x="268" y="126"/>
      <point x="236" y="94"/>
    </contour>
  </outline>
</glyph>
<glyph name="zero" format="1">
  <advance width="612"/>
  <unicode hex="0030"/>
  <outline>
    <contour>
      <point x="60" y="272" type="line" smooth="yes"/>
      <point x="60" y="86"/>
      <point x="152" y="-14"/>
      <point x="306" y="-14" type="curve" smooth="yes"/>
      <point x="460" y="-14"/>
      <point x="552" y="86"/>
      <point x="552" y="272" type="curve" smooth="yes"/>
      <point x="552" y="428" type="line" smooth="yes"/>
      <point x="552" y="608"/>
      <point x="460" y="714"/>
      <point x="306" y="714" type="curve" smooth="yes"/>
      <point x="152" y="714"/>
      <point x="60" y="608"/>
      <point x="60" y="428" type="curve" smooth="yes"/>
    </contour>
    <contour>
      <point x="306" y="62" type="curve" smooth="yes"/>
      <point x="198" y="62"/>
      <point x="144" y="142"/>
      <point x="144" y="278" type="curve" smooth="yes"/>
      <point x="144" y="422" type="line" smooth="yes"/>
      <point x="144" y="550"/>
      <point x="198" y="638"/>
      <point x="306" y="638" type="curve" smooth="yes"/>
      <point x="414" y="638"/>
      <point x="468" y="550"/>
      <point x="468" y="422" type="curve" smooth="yes"/>
      <point x="468" y="278" type="line" smooth="yes"/>
      <point x="468" y="142"/>
      <point x="414" y="62"/>
    </contour>
    <contour>
      <point x="242" y="350" type="curve"/>
      <point x="242" y="316"/>
      <point x="272" y="286"/>
      <point x="306" y="286" type="curve" smooth="yes"/>
      <point x="340" y="286"/>
      <point x="370" y="316"/>
      <point x="370" y="350" type="curve" smooth="yes"/>
      <point x="370" y="384"/>
      <point x="340" y="414"/>
      <point x="306" y="414" type="curve" smooth="yes"/>
      <point x="272" y="414"/>
      <point x="242" y="384"/>
    </contour>
  </outline>
</glyph>
<glyph name="three" format="1">
  <advance width="612"/>
  <unicode hex="0033"/>
  <outline>
    <contour>
      <point x="237" y="348" type="line"/>
      <point x="237" y="464" type="line"/>
      <point x="465" y="610" type="line"/>
      <point x="465" y="622" type="line"/>
      <point x="69" y="622" type="line"/>
      <point x="69" y="700" type="line"/>
      <point x="537" y="700" type="line"/>
      <point x="537" y="572" type="line"/>
      <point x="309" y="426" type="line"/>
      <point x="309" y="414" type="line"/>
      <point x="349" y="414" type="line" smooth="yes"/>
      <point x="455" y="414"/>
      <point x="555" y="344"/>
      <point x="555" y="217" type="curve" smooth="yes"/>
      <point x="555" y="199" type="line" smooth="yes"/>
      <point x="555" y="78"/>
      <point x="453" y="-14"/>
      <point x="317" y="-14" type="curve" smooth="yes"/>
      <point x="159" y="-14"/>
      <point x="63" y="90"/>
      <point x="63" y="218" type="curve" smooth="yes"/>
      <point x="63" y="272" type="line"/>
      <point x="147" y="272" type="line"/>
      <point x="147" y="224" type="line" smooth="yes"/>
      <point x="147" y="124"/>
      <point x="219" y="64"/>
      <point x="315" y="64" type="curve" smooth="yes"/>
      <point x="403" y="64"/>
      <point x="471" y="128"/>
      <point x="471" y="208" type="curve" smooth="yes"/>
      <point x="471" y="214" type="line" smooth="yes"/>
      <point x="471" y="298"/>
      <point x="411" y="348"/>
      <point x="331" y="348" type="curve" smooth="yes"/>
    </contour>
  </outline>
</glyph>
<glyph name="four" format="1">
  <advance width="612"/>
  <unicode hex="0034"/>
  <outline>
    <contour>
      <point x="294" y="700" type="line"/>
      <point x="294" y="700"/>
      <point x="457" y="700"/>
      <point x="457" y="700" type="curve"/>
      <point x="457" y="700"/>
      <point x="457" y="210"/>
      <point x="457" y="210" type="curve"/>
      <point x="457" y="210"/>
      <point x="565" y="210"/>
      <point x="565" y="210" type="curve"/>
      <point x="565" y="210"/>
      <point x="565" y="132"/>
      <point x="565" y="132" type="curve"/>
      <point x="565" y="132"/>
      <point x="457" y="132"/>
      <point x="457" y="132" type="curve"/>
      <point x="457" y="132"/>
      <point x="457" y="0"/>
      <point x="457" y="0" type="curve"/>
      <point x="457" y="0"/>
      <point x="373" y="0"/>
      <point x="373" y="0" type="curve"/>
      <point x="373" y="0"/>
      <point x="373" y="132"/>
      <point x="373" y="132" type="curve"/>
      <point x="373" y="132"/>
      <point x="49" y="132"/>
      <point x="49" y="132" type="curve"/>
      <point x="49" y="248" type="line"/>
    </contour>
    <contour>
      <point x="121" y="222" type="line"/>
      <point x="121" y="210" type="line"/>
      <point x="121" y="210"/>
      <point x="373" y="210"/>
      <point x="373" y="210" type="curve"/>
      <point x="373" y="210"/>
      <point x="373" y="664"/>
      <point x="373" y="664" type="curve"/>
      <point x="373" y="664"/>
      <point x="361" y="664"/>
      <point x="361" y="664" type="curve"/>
    </contour>
  </outline>
</glyph>
<glyph name="nine" format="1">
  <advance width="612"/>
  <unicode hex="0039"/>
  <outline>
    <contour>
      <point x="75" y="204" type="line"/>
      <point x="75" y="70"/>
      <point x="171" y="-14"/>
      <point x="308" y="-14" type="curve" smooth="yes"/>
      <point x="443" y="-14"/>
      <point x="549" y="80"/>
      <point x="549" y="228" type="curve" smooth="yes"/>
      <point x="549" y="480" type="line" smooth="yes"/>
      <point x="549" y="616"/>
      <point x="447" y="714"/>
      <point x="306" y="714" type="curve" smooth="yes"/>
      <point x="165" y="714"/>
      <point x="63" y="615"/>
      <point x="63" y="477" type="curve" smooth="yes"/>
      <point x="63" y="465" type="line" smooth="yes"/>
      <point x="63" y="321"/>
      <point x="157" y="238"/>
      <point x="287" y="238" type="curve" smooth="yes"/>
      <point x="363" y="238"/>
      <point x="423" y="274"/>
      <point x="453" y="332" type="curve"/>
      <point x="465" y="332" type="line"/>
      <point x="465" y="228" type="line" smooth="yes"/>
      <point x="465" y="128"/>
      <point x="400" y="60"/>
      <point x="310" y="60" type="curve" smooth="yes"/>
      <point x="216" y="60"/>
      <point x="159" y="118"/>
      <point x="159" y="204" type="curve"/>
    </contour>
    <contour>
      <point x="306" y="640" type="curve" smooth="yes"/>
      <point x="403" y="640"/>
      <point x="465" y="571"/>
      <point x="465" y="482" type="curve" smooth="yes"/>
      <point x="465" y="463" type="line" smooth="yes"/>
      <point x="465" y="377"/>
      <point x="396" y="312"/>
      <point x="306" y="312" type="curve" smooth="yes"/>
      <point x="214" y="312"/>
      <point x="147" y="374"/>
      <point x="147" y="467" type="curve" smooth="yes"/>
      <point x="147" y="479" type="line" smooth="yes"/>
      <point x="147" y="571"/>
      <point x="209" y="640"/>
    </contour>
  </outline>
</glyph>
<glyph name="colon" format="1">
  <advance width="612"/>
  <unicode hex="003A"/>
  <outline>
    <contour>
      <point x="236" y="56" type="curve" smooth="yes"/>
      <point x="236" y="18"/>
      <point x="268" y="-14"/>
      <point x="306" y="-14" type="curve" smooth="yes"/>
      <point x="344" y="-14"/>
      <point x="376" y="18"/>
      <point x="376" y="56" type="curve" smooth="yes"/>
      <point x="376" y="94"/>
      <point x="344" y="126"/>
      <point x="306" y="126" type="curve" smooth="yes"/>
      <point x="268" y="126"/>
      <point x="236" y="94"/>
    </contour>
    <contour>
      <point x="236" y="440" type="curve" smooth="yes"/>
      <point x="236" y="402"/>
      <point x="268" y="370"/>
      <point x="306" y="370" type="curve" smooth="yes"/>
      <point x="344" y="370"/>
      <point x="376" y="402"/>
      <point x="376" y="440" type="curve" smooth="yes"/>
      <point x="376" y="478"/>
      <point x="344" y="510"/>
      <point x="306" y="510" type="curve" smooth="yes"/>
      <point x="268" y="510"/>
      <point x="236" y="478"/>
    </contour>
  </outline>
</glyph>
<glyph name="semicolon" format="1">
  <advance width="612"/>
  <unicode hex="003B"/>
  <outline>
    <contour>
      <point x="236" y="56" type="curve" smooth="yes"/>
      <point x="236" y="18"/>
      <point x="268" y="-14"/>
      <point x="305" y="-14" type="curve" smooth="yes"/>
      <point x="311" y="-14"/>
      <point x="317" y="-13"/>
      <point x="322" y="-11" type="curve"/>
      <point x="322" y="-36" type="line" smooth="yes"/>
      <point x="322" y="-55"/>
      <point x="314" y="-66"/>
      <point x="295" y="-66" type="curve" smooth="yes"/>
      <point x="248" y="-66" type="line"/>
      <point x="248" y="-120" type="line"/>
      <point x="299" y="-120" type="line" smooth="yes"/>
      <point x="344" y="-120"/>
      <point x="376" y="-87"/>
      <point x="376" y="-42" type="curve" smooth="yes"/>
      <point x="376" y="56" type="line" smooth="yes"/>
      <point x="376" y="94"/>
      <point x="344" y="126"/>
      <point x="306" y="126" type="curve" smooth="yes"/>
      <point x="268" y="126"/>
      <point x="236" y="94"/>
    </contour>
    <contour>
      <point x="236" y="440" type="curve" smooth="yes"/>
      <point x="236" y="402"/>
      <point x="268" y="370"/>
      <point x="306" y="370" type="curve" smooth="yes"/>
      <point x="344" y="370"/>
      <point x="376" y="402"/>
      <point x="376" y="440" type="curve" smooth="yes"/>
      <point x="376" y="478"/>
      <point x="344" y="510"/>
      <point x="306" y="510" type="curve" smooth="yes"/>
      <point x="268" y="510"/>
      <point x="236" y="478"/>
    </contour>
  </outline>
</glyph>
<glyph name="question" format="1">
  <advance width="612"/>
  <unicode hex="003F"/>
  <outline>
    <contour>
      <point x="326" y="366" type="line" smooth="yes"/>
      <point x="276" y="366"/>
      <point x="240" y="330"/>
      <point x="240" y="280" type="curve" smooth="yes"/>
      <point x="240" y="186" type="line"/>
      <point x="320" y="186" type="line"/>
      <point x="320" y="260" type="line" smooth="yes"/>
      <point x="320" y="280"/>
      <point x="328" y="290"/>
      <point x="348" y="290" type="curve" smooth="yes"/>
      <point x="362" y="290" type="line" smooth="yes"/>
      <point x="464" y="290"/>
      <point x="540" y="378"/>
      <point x="540" y="483" type="curve" smooth="yes"/>
      <point x="540" y="501" type="line" smooth="yes"/>
      <point x="540" y="616"/>
      <point x="446" y="714"/>
      <point x="312" y="714" type="curve" smooth="yes"/>
      <point x="154" y="714"/>
      <point x="72" y="604"/>
      <point x="72" y="482" type="curve" smooth="yes"/>
      <point x="72" y="434" type="line"/>
      <point x="156" y="434" type="line"/>
      <point x="156" y="476" type="line" smooth="yes"/>
      <point x="156" y="572"/>
      <point x="214" y="636"/>
      <point x="310" y="636" type="curve" smooth="yes"/>
      <point x="398" y="636"/>
      <point x="456" y="572"/>
      <point x="456" y="492" type="curve" smooth="yes"/>
      <point x="456" y="486" type="line" smooth="yes"/>
      <point x="456" y="414"/>
      <point x="412" y="366"/>
      <point x="352" y="366" type="curve" smooth="yes"/>
    </contour>
    <contour>
      <point x="211" y="56" type="curve" smooth="yes"/>
      <point x="211" y="18"/>
      <point x="243" y="-14"/>
      <point x="281" y="-14" type="curve" smooth="yes"/>
      <point x="319" y="-14"/>
      <point x="351" y="18"/>
      <point x="351" y="56" type="curve" smooth="yes"/>
      <point x="351" y="94"/>
      <point x="319" y="126"/>
      <point x="281" y="126" type="curve" smooth="yes"/>
      <point x="243" y="126"/>
      <point x="211" y="94"/>
    </contour>
  </outline>
</glyph>
<glyph name="at" format="1">
  <advance width="612"/>
  <unicode hex="0040"/>
  <outline>
    <contour>
      <point x="360" y="510" type="line" smooth="yes"/>
      <point x="446" y="510"/>
      <point x="486" y="464"/>
      <point x="486" y="378" type="curve" smooth="yes"/>
      <point x="486" y="102" type="line" smooth="yes"/>
      <point x="486" y="83"/>
      <point x="478" y="72"/>
      <point x="459" y="72" type="curve" smooth="yes"/>
      <point x="435" y="72" type="line" smooth="yes"/>
      <point x="416" y="72"/>
      <point x="408" y="83"/>
      <point x="408" y="102" type="curve" smooth="yes"/>
      <point x="408" y="424" type="line"/>
      <point x="330" y="424" type="line"/>
      <point x="330" y="370" type="line"/>
      <point x="318" y="370" type="line"/>
      <point x="295" y="414"/>
      <point x="267" y="438"/>
      <point x="206" y="438" type="curve" smooth="yes"/>
      <point x="112" y="438"/>
      <point x="38" y="354"/>
      <point x="38" y="221" type="curve" smooth="yes"/>
      <point x="38" y="203" type="line" smooth="yes"/>
      <point x="38" y="69"/>
      <point x="110" y="-14"/>
      <point x="208" y="-14" type="curve" smooth="yes"/>
      <point x="270" y="-14"/>
      <point x="308" y="16"/>
      <point x="324" y="66" type="curve"/>
      <point x="336" y="66" type="line"/>
      <point x="336" y="30"/>
      <point x="358" y="0"/>
      <point x="407" y="0" type="curve" smooth="yes"/>
      <point x="487" y="0" type="line" smooth="yes"/>
      <point x="532" y="0"/>
      <point x="564" y="33"/>
      <point x="564" y="78" type="curve" smooth="yes"/>
      <point x="564" y="386" type="line" smooth="yes"/>
      <point x="564" y="518"/>
      <point x="490" y="582"/>
      <point x="368" y="582" type="curve" smooth="yes"/>
      <point x="78" y="582" type="line"/>
      <point x="78" y="510" type="line"/>
    </contour>
    <contour>
      <point x="223" y="60" type="curve" smooth="yes"/>
      <point x="156" y="60"/>
      <point x="116" y="119"/>
      <point x="116" y="203" type="curve" smooth="yes"/>
      <point x="116" y="221" type="line" smooth="yes"/>
      <point x="116" y="301"/>
      <point x="156" y="364"/>
      <point x="223" y="364" type="curve" smooth="yes"/>
      <point x="304" y="364"/>
      <point x="330" y="297"/>
      <point x="330" y="221" type="curve" smooth="yes"/>
      <point x="330" y="203" type="line" smooth="yes"/>
      <point x="330" y="123"/>
      <point x="304" y="60"/>
    </contour>
  </outline>
</glyph>
<glyph name="G" format="1">
  <advance width="612"/>
  <unicode hex="0047"/>
  <outline>
    <contour>
      <point x="239" y="258" type="line"/>
      <point x="467" y="258" type="line"/>
      <point x="467" y="246" type="line" smooth="yes"/>
      <point x="467" y="132"/>
      <point x="406" y="64"/>
      <point x="307" y="64" type="curve" smooth="yes"/>
      <point x="197" y="64"/>
      <point x="143" y="142"/>
      <point x="143" y="278" type="curve" smooth="yes"/>
      <point x="143" y="422" type="line" smooth="yes"/>
      <point x="143" y="550"/>
      <point x="197" y="636"/>
      <point x="305" y="636" type="curve" smooth="yes"/>
      <point x="419" y="636"/>
      <point x="467" y="552"/>
      <point x="467" y="460" type="curve" smooth="yes"/>
      <point x="467" y="448" type="line"/>
      <point x="551" y="448" type="line"/>
      <point x="551" y="460" type="line" smooth="yes"/>
      <point x="551" y="602"/>
      <point x="465" y="714"/>
      <point x="305" y="714" type="curve" smooth="yes"/>
      <point x="151" y="714"/>
      <point x="59" y="608"/>
      <point x="59" y="428" type="curve" smooth="yes"/>
      <point x="59" y="272" type="line" smooth="yes"/>
      <point x="59" y="86"/>
      <point x="151" y="-14"/>
      <point x="301" y="-14" type="curve" smooth="yes"/>
      <point x="377" y="-14"/>
      <point x="439" y="26"/>
      <point x="461" y="84" type="curve"/>
      <point x="473" y="84" type="line"/>
      <point x="473" y="0" type="line"/>
      <point x="551" y="0" type="line"/>
      <point x="551" y="336" type="line"/>
      <point x="239" y="336" type="line"/>
    </contour>
  </outline>
</glyph>
<glyph name="I" format="1">
  <advance width="612"/>
  <unicode hex="0049"/>
  <outline>
    <contour>
      <point x="84" y="622" type="line"/>
      <point x="264" y="622" type="line"/>
      <point x="264" y="78" type="line"/>
      <point x="84" y="78" type="line"/>
      <point x="84" y="0" type="line"/>
      <point x="528" y="0" type="line"/>
      <point x="528" y="78" type="line"/>
      <point x="348" y="78" type="line"/>
      <point x="348" y="622" type="line"/>
      <point x="528" y="622" type="line"/>
      <point x="528" y="700" type="line"/>
      <point x="84" y="700" type="line"/>
    </contour>
  </outline>
</glyph>
<glyph name="O" format="1">
  <advance width="612"/>
  <unicode hex="004F"/>
  <outline>
    <contour>
      <point x="60" y="272" type="line" smooth="yes"/>
      <point x="60" y="86"/>
      <point x="152" y="-14"/>
      <point x="306" y="-14" type="curve" smooth="yes"/>
      <point x="460" y="-14"/>
      <point x="552" y="86"/>
      <point x="552" y="272" type="curve" smooth="yes"/>
      <point x="552" y="428" type="line" smooth="yes"/>
      <point x="552" y="608"/>
      <point x="460" y="714"/>
      <point x="306" y="714" type="curve" smooth="yes"/>
      <point x="152" y="714"/>
      <point x="60" y="608"/>
      <point x="60" y="428" type="curve" smooth="yes"/>
    </contour>
    <contour>
      <point x="306" y="64" type="curve"/>
      <point x="198" y="64"/>
      <point x="144" y="142"/>
      <point x="144" y="278" type="curve" smooth="yes"/>
      <point x="144" y="422" type="line" smooth="yes"/>
      <point x="144" y="550"/>
      <point x="198" y="636"/>
      <point x="306" y="636" type="curve" smooth="yes"/>
      <point x="414" y="636"/>
      <point x="468" y="550"/>
      <point x="468" y="422" type="curve" smooth="yes"/>
      <point x="468" y="278" type="line" smooth="yes"/>
      <point x="468" y="142"/>
      <point x="414" y="64"/>
    </contour>
  </outline>
</glyph>
<glyph name="P" format="1">
  <advance width="612"/>
  <unicode hex="0050"/>
  <outline>
    <contour>
      <point x="335" y="288" type="line" smooth="yes"/>
      <point x="477" y="288"/>
      <point x="549" y="378"/>
      <point x="549" y="480" type="curve" smooth="yes"/>
      <point x="549" y="510" type="line" smooth="yes"/>
      <point x="549" y="611"/>
      <point x="478" y="700"/>
      <point x="335" y="700" type="curve" smooth="yes"/>
      <point x="85" y="700" type="line"/>
      <point x="85" y="0" type="line"/>
      <point x="169" y="0" type="line"/>
      <point x="169" y="288" type="line"/>
    </contour>
    <contour>
      <point x="169" y="622" type="line"/>
      <point x="325" y="622" type="line" smooth="yes"/>
      <point x="419" y="622"/>
      <point x="465" y="574"/>
      <point x="465" y="504" type="curve" smooth="yes"/>
      <point x="465" y="486" type="line" smooth="yes"/>
      <point x="465" y="406"/>
      <point x="419" y="366"/>
      <point x="325" y="366" type="curve" smooth="yes"/>
      <point x="169" y="366" type="line"/>
    </contour>
  </outline>
</glyph>
<glyph name="Q" format="1">
  <advance width="612"/>
  <unicode hex="0051"/>
  <outline>
    <contour>
      <point x="60" y="272" type="line" smooth="yes"/>
      <point x="60" y="102"/>
      <point x="136" y="4"/>
      <point x="267" y="-12" type="curve"/>
      <point x="267" y="-78" type="line" smooth="yes"/>
      <point x="267" y="-123"/>
      <point x="299" y="-156"/>
      <point x="344" y="-156" type="curve" smooth="yes"/>
      <point x="456" y="-156" type="line"/>
      <point x="456" y="-84" type="line"/>
      <point x="372" y="-84" type="line" smooth="yes"/>
      <point x="353" y="-84"/>
      <point x="345" y="-73"/>
      <point x="345" y="-54" type="curve" smooth="yes"/>
      <point x="345" y="-12" type="line"/>
      <point x="475" y="3"/>
      <point x="552" y="102"/>
      <point x="552" y="272" type="curve" smooth="yes"/>
      <point x="552" y="428" type="line" smooth="yes"/>
      <point x="552" y="608"/>
      <point x="460" y="714"/>
      <point x="306" y="714" type="curve" smooth="yes"/>
      <point x="152" y="714"/>
      <point x="60" y="608"/>
      <point x="60" y="428" type="curve" smooth="yes"/>
    </contour>
    <contour>
      <point x="306" y="64" type="curve" smooth="yes"/>
      <point x="198" y="64"/>
      <point x="144" y="142"/>
      <point x="144" y="278" type="curve" smooth="yes"/>
      <point x="144" y="422" type="line" smooth="yes"/>
      <point x="144" y="550"/>
      <point x="198" y="636"/>
      <point x="306" y="636" type="curve" smooth="yes"/>
      <point x="414" y="636"/>
      <point x="468" y="550"/>
      <point x="468" y="422" type="curve" smooth="yes"/>
      <point x="468" y="278" type="line" smooth="yes"/>
      <point x="468" y="142"/>
      <point x="414" y="64"/>
    </contour>
  </outline>
</glyph>
<glyph name="U" format="1">
  <advance width="612"/>
  <unicode hex="0055"/>
  <outline>
    <contour>
      <point x="66" y="700" type="line"/>
      <point x="66" y="236" type="line" smooth="yes"/>
      <point x="66" y="74"/>
      <point x="158" y="-14"/>
      <point x="306" y="-14" type="curve" smooth="yes"/>
      <point x="454" y="-14"/>
      <point x="546" y="74"/>
      <point x="546" y="236" type="curve" smooth="yes"/>
      <point x="546" y="700" type="line"/>
      <point x="462" y="700" type="line"/>
      <point x="462" y="236" type="line" smooth="yes"/>
      <point x="462" y="124"/>
      <point x="408" y="64"/>
      <point x="306" y="64" type="curve" smooth="yes"/>
      <point x="204" y="64"/>
      <point x="150" y="124"/>
      <point x="150" y="236" type="curve" smooth="yes"/>
      <point x="150" y="700" type="line"/>
    </contour>
  </outline>
</glyph>
<glyph name="V" format="1">
  <advance width="612"/>
  <unicode hex="0056"/>
  <outline>
    <contour>
      <point x="225" y="0" type="line"/>
      <point x="387" y="0" type="line"/>
      <point x="585" y="700" type="line"/>
      <point x="495" y="700" type="line"/>
      <point x="312" y="36" type="line"/>
      <point x="300" y="36" type="line"/>
      <point x="117" y="700" type="line"/>
      <point x="27" y="700" type="line"/>
    </contour>
  </outline>
</glyph>
<glyph name="bracketright" format="1">
  <advance width="612"/>
  <unicode hex="005D"/>
  <outline>
    <contour>
      <point x="348" y="778" type="line"/>
      <point x="348" y="823"/>
      <point x="316" y="856"/>
      <point x="271" y="856" type="curve" smooth="yes"/>
      <point x="174" y="856" type="line"/>
      <point x="174" y="784" type="line"/>
      <point x="243" y="784" type="line" smooth="yes"/>
      <point x="262" y="784"/>
      <point x="270" y="773"/>
      <point x="270" y="754" type="curve" smooth="yes"/>
      <point x="270" y="-54" type="line" smooth="yes"/>
      <point x="270" y="-73"/>
      <point x="262" y="-84"/>
      <point x="243" y="-84" type="curve" smooth="yes"/>
      <point x="174" y="-84" type="line"/>
      <point x="174" y="-156" type="line"/>
      <point x="271" y="-156" type="line" smooth="yes"/>
      <point x="316" y="-156"/>
      <point x="348" y="-123"/>
      <point x="348" y="-78" type="curve" smooth="yes"/>
    </contour>
  </outline>
</glyph>
<glyph name="a" format="1">
  <advance width="612"/>
  <unicode hex="0061"/>
  <outline>
    <contour>
      <point x="447" y="78" type="line" smooth="yes"/>
      <point x="447" y="33"/>
      <point x="479" y="0"/>
      <point x="524" y="0" type="curve" smooth="yes"/>
      <point x="577" y="0" type="line"/>
      <point x="577" y="72" type="line"/>
      <point x="552" y="72" type="line" smooth="yes"/>
      <point x="533" y="72"/>
      <point x="525" y="83"/>
      <point x="525" y="102" type="curve" smooth="yes"/>
      <point x="525" y="496" type="line"/>
      <point x="447" y="496" type="line"/>
      <point x="447" y="418" type="line"/>
      <point x="435" y="418" type="line"/>
      <point x="403" y="480"/>
      <point x="345" y="510"/>
      <point x="277" y="510" type="curve" smooth="yes"/>
      <point x="151" y="510"/>
      <point x="47" y="418"/>
      <point x="47" y="256" type="curve" smooth="yes"/>
      <point x="47" y="240" type="line" smooth="yes"/>
      <point x="47" y="76"/>
      <point x="149" y="-14"/>
      <point x="279" y="-14" type="curve" smooth="yes"/>
      <point x="341" y="-14"/>
      <point x="403" y="18"/>
      <point x="435" y="84" type="curve"/>
      <point x="447" y="84" type="line"/>
    </contour>
    <contour>
      <point x="287" y="60" type="curve" smooth="yes"/>
      <point x="193" y="60"/>
      <point x="127" y="128"/>
      <point x="127" y="240" type="curve" smooth="yes"/>
      <point x="127" y="256" type="line" smooth="yes"/>
      <point x="127" y="364"/>
      <point x="195" y="436"/>
      <point x="287" y="436" type="curve" smooth="yes"/>
      <point x="379" y="436"/>
      <point x="447" y="360"/>
      <point x="447" y="254" type="curve" smooth="yes"/>
      <point x="447" y="242" type="line" smooth="yes"/>
      <point x="447" y="132"/>
      <point x="380" y="60"/>
    </contour>
  </outline>
</glyph>
<glyph name="d" format="1">
  <advance width="612"/>
  <unicode hex="0064"/>
  <outline>
    <contour>
      <point x="471" y="0" type="line"/>
      <point x="549" y="0" type="line"/>
      <point x="549" y="700" type="line"/>
      <point x="471" y="700" type="line"/>
      <point x="471" y="418" type="line"/>
      <point x="459" y="418" type="line"/>
      <point x="427" y="480"/>
      <point x="363" y="510"/>
      <point x="295" y="510" type="curve" smooth="yes"/>
      <point x="167" y="510"/>
      <point x="59" y="417"/>
      <point x="59" y="256" type="curve" smooth="yes"/>
      <point x="59" y="240" type="line" smooth="yes"/>
      <point x="59" y="77"/>
      <point x="165" y="-14"/>
      <point x="297" y="-14" type="curve" smooth="yes"/>
      <point x="357" y="-14"/>
      <point x="427" y="14"/>
      <point x="459" y="76" type="curve"/>
      <point x="471" y="76" type="line"/>
    </contour>
    <contour>
      <point x="305" y="60" type="curve" smooth="yes"/>
      <point x="210" y="60"/>
      <point x="139" y="129"/>
      <point x="139" y="240" type="curve" smooth="yes"/>
      <point x="139" y="256" type="line" smooth="yes"/>
      <point x="139" y="363"/>
      <point x="211" y="436"/>
      <point x="305" y="436" type="curve" smooth="yes"/>
      <point x="397" y="436"/>
      <point x="471" y="360"/>
      <point x="471" y="254" type="curve" smooth="yes"/>
      <point x="471" y="242" type="line" smooth="yes"/>
      <point x="471" y="132"/>
      <point x="398" y="60"/>
    </contour>
  </outline>
</glyph>
<glyph name="e" format="1">
  <advance width="612"/>
  <unicode hex="0065"/>
  <outline>
    <contour>
      <point x="544" y="224" type="line"/>
      <point x="544" y="288" type="line" smooth="yes"/>
      <point x="544" y="376"/>
      <point x="473" y="510"/>
      <point x="310" y="510" type="curve" smooth="yes"/>
      <point x="171" y="510"/>
      <point x="66" y="406"/>
      <point x="66" y="266" type="curve" smooth="yes"/>
      <point x="66" y="242" type="line" smooth="yes"/>
      <point x="66" y="90"/>
      <point x="166" y="-14"/>
      <point x="308" y="-14" type="curve" smooth="yes"/>
      <point x="436" y="-14"/>
      <point x="510" y="50"/>
      <point x="538" y="142" type="curve"/>
      <point x="464" y="162" type="line"/>
      <point x="446" y="106"/>
      <point x="404" y="60"/>
      <point x="310" y="60" type="curve" smooth="yes"/>
      <point x="208" y="60"/>
      <point x="148" y="126"/>
      <point x="144" y="224" type="curve"/>
    </contour>
    <contour>
      <point x="310" y="436" type="curve" smooth="yes"/>
      <point x="388" y="436"/>
      <point x="462" y="382"/>
      <point x="466" y="296" type="curve"/>
      <point x="146" y="296" type="line"/>
      <point x="156" y="376"/>
      <point x="222" y="436"/>
    </contour>
  </outline>
</glyph>
<glyph name="l" format="1">
  <advance width="612"/>
  <unicode hex="006C"/>
  <outline>
    <contour>
      <point x="87" y="0" type="line"/>
      <point x="525" y="0" type="line"/>
      <point x="525" y="72" type="line"/>
      <point x="345" y="72" type="line"/>
      <point x="345" y="700" type="line"/>
      <point x="93" y="700" type="line"/>
      <point x="93" y="628" type="line"/>
      <point x="267" y="628" type="line"/>
      <point x="267" y="72" type="line"/>
      <point x="87" y="72" type="line"/>
    </contour>
  </outline>
</glyph>
<glyph name="m" format="1">
  <advance width="612"/>
  <unicode hex="006D"/>
  <outline>
    <contour>
      <point x="564" y="382" type="line" smooth="yes"/>
      <point x="564" y="458"/>
      <point x="521" y="510"/>
      <point x="447" y="510" type="curve" smooth="yes"/>
      <point x="397" y="510"/>
      <point x="361" y="486"/>
      <point x="339" y="442" type="curve"/>
      <point x="327" y="442" type="line"/>
      <point x="315" y="482"/>
      <point x="283" y="510"/>
      <point x="235" y="510" type="curve" smooth="yes"/>
      <point x="190" y="510"/>
      <point x="155" y="488"/>
      <point x="138" y="442" type="curve"/>
      <point x="126" y="442" type="line"/>
      <point x="126" y="496" type="line"/>
      <point x="48" y="496" type="line"/>
      <point x="48" y="0" type="line"/>
      <point x="126" y="0" type="line"/>
      <point x="126" y="342" type="line" smooth="yes"/>
      <point x="126" y="398"/>
      <point x="153" y="436"/>
      <point x="201" y="436" type="curve" smooth="yes"/>
      <point x="241" y="436"/>
      <point x="267" y="404"/>
      <point x="267" y="360" type="curve" smooth="yes"/>
      <point x="267" y="0" type="line"/>
      <point x="345" y="0" type="line"/>
      <point x="345" y="336" type="line" smooth="yes"/>
      <point x="345" y="403"/>
      <point x="375" y="436"/>
      <point x="419" y="436" type="curve" smooth="yes"/>
      <point x="465" y="436"/>
      <point x="486" y="402"/>
      <point x="486" y="356" type="curve" smooth="yes"/>
      <point x="486" y="0" type="line"/>
      <point x="564" y="0" type="line"/>
    </contour>
  </outline>
</glyph>
<glyph name="o" format="1">
  <advance width="612"/>
  <unicode hex="006F"/>
  <outline>
    <contour>
      <point x="555" y="254" type="line" smooth="yes"/>
      <point x="555" y="416"/>
      <point x="437" y="510"/>
      <point x="306" y="510" type="curve" smooth="yes"/>
      <point x="175" y="510"/>
      <point x="57" y="416"/>
      <point x="57" y="254" type="curve" smooth="yes"/>
      <point x="57" y="242" type="line" smooth="yes"/>
      <point x="57" y="78"/>
      <point x="174" y="-14"/>
      <point x="306" y="-14" type="curve" smooth="yes"/>
      <point x="438" y="-14"/>
      <point x="555" y="78"/>
      <point x="555" y="242" type="curve" smooth="yes"/>
    </contour>
    <contour>
      <point x="306" y="60" type="curve" smooth="yes"/>
      <point x="211" y="60"/>
      <point x="137" y="130"/>
      <point x="137" y="242" type="curve" smooth="yes"/>
      <point x="137" y="254" type="line" smooth="yes"/>
      <point x="137" y="362"/>
      <point x="212" y="436"/>
      <point x="306" y="436" type="curve" smooth="yes"/>
      <point x="400" y="436"/>
      <point x="475" y="362"/>
      <point x="475" y="254" type="curve" smooth="yes"/>
      <point x="475" y="242" type="line" smooth="yes"/>
      <point x="475" y="130"/>
      <point x="401" y="60"/>
    </contour>
  </outline>
</glyph>
<glyph name="q" format="1">
  <advance width="612"/>
  <unicode hex="0071"/>
  <outline>
    <contour>
      <point x="467" y="-200" type="line"/>
      <point x="545" y="-200" type="line"/>
      <point x="545" y="496" type="line"/>
      <point x="467" y="496" type="line"/>
      <point x="467" y="418" type="line"/>
      <point x="455" y="418" type="line"/>
      <point x="421" y="478"/>
      <point x="359" y="510"/>
      <point x="291" y="510" type="curve" smooth="yes"/>
      <point x="163" y="510"/>
      <point x="55" y="417"/>
      <point x="55" y="256" type="curve" smooth="yes"/>
      <point x="55" y="240" type="line" smooth="yes"/>
      <point x="55" y="77"/>
      <point x="161" y="-14"/>
      <point x="293" y="-14" type="curve" smooth="yes"/>
      <point x="353" y="-14"/>
      <point x="421" y="16"/>
      <point x="455" y="76" type="curve"/>
      <point x="467" y="76" type="line"/>
    </contour>
    <contour>
      <point x="301" y="60" type="curve" smooth="yes"/>
      <point x="206" y="60"/>
      <point x="135" y="129"/>
      <point x="135" y="240" type="curve" smooth="yes"/>
      <point x="135" y="256" type="line" smooth="yes"/>
      <point x="135" y="363"/>
      <point x="207" y="436"/>
      <point x="301" y="436" type="curve" smooth="yes"/>
      <point x="393" y="436"/>
      <point x="467" y="360"/>
      <point x="467" y="254" type="curve" smooth="yes"/>
      <point x="467" y="242" type="line" smooth="yes"/>
      <point x="467" y="132"/>
      <point x="394" y="60"/>
    </contour>
  </outline>
</glyph>
<glyph name="t" format="1">
  <advance width="612"/>
  <unicode hex="0074"/>
  <outline>
    <contour>
      <point x="70" y="424" type="line"/>
      <point x="226" y="424" type="line"/>
      <point x="226" y="78" type="line" smooth="yes"/>
      <point x="226" y="33"/>
      <point x="258" y="0"/>
      <point x="303" y="0" type="curve" smooth="yes"/>
      <point x="472" y="0" type="line"/>
      <point x="472" y="72" type="line"/>
      <point x="331" y="72" type="line" smooth="yes"/>
      <point x="312" y="72"/>
      <point x="304" y="83"/>
      <point x="304" y="102" type="curve" smooth="yes"/>
      <point x="304" y="424" type="line"/>
      <point x="496" y="424" type="line"/>
      <point x="496" y="496" type="line"/>
      <point x="304" y="496" type="line"/>
      <point x="304" y="700" type="line"/>
      <point x="226" y="700" type="line"/>
      <point x="226" y="496" type="line"/>
      <point x="70" y="496" type="line"/>
    </contour>
  </outline>
</glyph>
<glyph name="u" format="1">
  <advance width="612"/>
  <unicode hex="0075"/>
  <outline>
    <contour>
      <point x="441" y="238" type="line"/>
      <point x="441" y="130"/>
      <point x="383" y="60"/>
      <point x="289" y="60" type="curve" smooth="yes"/>
      <point x="201" y="60"/>
      <point x="159" y="106"/>
      <point x="159" y="210" type="curve" smooth="yes"/>
      <point x="159" y="496" type="line"/>
      <point x="81" y="496" type="line"/>
      <point x="81" y="200" type="line" smooth="yes"/>
      <point x="81" y="58"/>
      <point x="157" y="-14"/>
      <point x="267" y="-14" type="curve" smooth="yes"/>
      <point x="347" y="-14"/>
      <point x="397" y="26"/>
      <point x="429" y="90" type="curve"/>
      <point x="441" y="90" type="line"/>
      <point x="441" y="0" type="line"/>
      <point x="519" y="0" type="line"/>
      <point x="519" y="496" type="line"/>
      <point x="441" y="496" type="line"/>
    </contour>
  </outline>
</glyph>
<glyph name="x" format="1">
  <advance width="612"/>
  <unicode hex="0078"/>
  <outline>
    <contour>
      <point x="315" y="290" type="line"/>
      <point x="297" y="290" type="line"/>
      <point x="172" y="496" type="line"/>
      <point x="83" y="496" type="line"/>
      <point x="229" y="260" type="line"/>
      <point x="229" y="248" type="line"/>
      <point x="71" y="0" type="line"/>
      <point x="162" y="0" type="line"/>
      <point x="297" y="218" type="line"/>
      <point x="315" y="218" type="line"/>
      <point x="450" y="0" type="line"/>
      <point x="541" y="0" type="line"/>
      <point x="383" y="248" type="line"/>
      <point x="383" y="260" type="line"/>
      <point x="529" y="496" type="line"/>
      <point x="440" y="496" type="line"/>
    </contour>
  </outline>
</glyph>
<glyph name="braceleft" format="1">
  <advance width="612"/>
  <unicode hex="007B"/>
  <outline>
    <contour>
      <point x="278" y="433" type="line" smooth="yes"/>
      <point x="278" y="414"/>
      <point x="270" y="404"/>
      <point x="251" y="404" type="curve" smooth="yes"/>
      <point x="200" y="404" type="line"/>
      <point x="200" y="296" type="line"/>
      <point x="251" y="296" type="line" smooth="yes"/>
      <point x="270" y="296"/>
      <point x="278" y="286"/>
      <point x="278" y="267" type="curve" smooth="yes"/>
      <point x="278" y="-78" type="line" smooth="yes"/>
      <point x="278" y="-123"/>
      <point x="310" y="-156"/>
      <point x="355" y="-156" type="curve" smooth="yes"/>
      <point x="452" y="-156" type="line"/>
      <point x="452" y="-84" type="line"/>
      <point x="383" y="-84" type="line" smooth="yes"/>
      <point x="364" y="-84"/>
      <point x="356" y="-73"/>
      <point x="356" y="-54" type="curve" smooth="yes"/>
      <point x="356" y="266" type="line" smooth="yes"/>
      <point x="356" y="311"/>
      <point x="325" y="344"/>
      <point x="278" y="344" type="curve"/>
      <point x="266" y="344" type="line"/>
      <point x="266" y="356" type="line"/>
      <point x="278" y="356" type="line"/>
      <point x="325" y="356"/>
      <point x="356" y="389"/>
      <point x="356" y="434" type="curve" smooth="yes"/>
      <point x="356" y="754" type="line" smooth="yes"/>
      <point x="356" y="773"/>
      <point x="364" y="784"/>
      <point x="383" y="784" type="curve" smooth="yes"/>
      <point x="452" y="784" type="line"/>
      <point x="452" y="856" type="line"/>
      <point x="355" y="856" type="line" smooth="yes"/>
      <point x="310" y="856"/>
      <point x="278" y="823"/>
      <point x="278" y="778" type="curve" smooth="yes"/>
    </contour>
  </outline>
</glyph>
<glyph name="braceright" format="1">
  <advance width="612"/>
  <unicode hex="007D"/>
  <outline>
    <contour>
      <point x="334" y="778" type="line"/>
      <point x="334" y="823"/>
      <point x="302" y="856"/>
      <point x="257" y="856" type="curve" smooth="yes"/>
      <point x="160" y="856" type="line"/>
      <point x="160" y="784" type="line"/>
      <point x="229" y="784" type="line" smooth="yes"/>
      <point x="248" y="784"/>
      <point x="256" y="773"/>
      <point x="256" y="754" type="curve" smooth="yes"/>
      <point x="256" y="434" type="line" smooth="yes"/>
      <point x="256" y="389"/>
      <point x="287" y="356"/>
      <point x="334" y="356" type="curve" smooth="yes"/>
      <point x="346" y="356" type="line"/>
      <point x="346" y="344" type="line"/>
      <point x="334" y="344" type="line" smooth="yes"/>
      <point x="287" y="344"/>
      <point x="256" y="311"/>
      <point x="256" y="266" type="curve" smooth="yes"/>
      <point x="256" y="-54" type="line" smooth="yes"/>
      <point x="256" y="-73"/>
      <point x="248" y="-84"/>
      <point x="229" y="-84" type="curve" smooth="yes"/>
      <point x="160" y="-84" type="line"/>
      <point x="160" y="-156" type="line"/>
      <point x="257" y="-156" type="line" smooth="yes"/>
      <point x="302" y="-156"/>
      <point x="334" y="-123"/>
      <point x="334" y="-78" type="curve" smooth="yes"/>
      <point x="334" y="267" type="line" smooth="yes"/>
      <point x="334" y="286"/>
      <point x="342" y="296"/>
      <point x="361" y="296" type="curve" smooth="yes"/>
      <point x="412" y="296" type="line"/>
      <point x="412" y="404" type="line"/>
      <point x="361" y="404" type="line" smooth="yes"/>
      <point x="342" y="404"/>
      <point x="334" y="414"/>
      <point x="334" y="433" type="curve" smooth="yes"/>
    </contour>
  </outline>
</glyph>
<glyph name="section" format="1">
  <advance width="612"/>
  <unicode hex="00A7"/>
  <outline>
    <contour>
      <point x="184" y="494" type="curve" smooth="yes"/>
      <point x="184" y="418"/>
      <point x="239" y="396"/>
      <point x="294" y="386" type="curve" smooth="yes"/>
      <point x="358" y="374"/>
      <point x="375" y="358"/>
      <point x="375" y="331" type="curve" smooth="yes"/>
      <point x="375" y="309"/>
      <point x="361" y="284"/>
      <point x="314" y="284" type="curve" smooth="yes"/>
      <point x="264" y="284"/>
      <point x="240" y="316"/>
      <point x="240" y="353" type="curve" smooth="yes"/>
      <point x="240" y="359" type="line"/>
      <point x="172" y="359" type="line"/>
      <point x="172" y="347" type="line" smooth="yes"/>
      <point x="172" y="274"/>
      <point x="220" y="218"/>
      <point x="312" y="218" type="curve" smooth="yes"/>
      <point x="393" y="218"/>
      <point x="445" y="268"/>
      <point x="445" y="336" type="curve" smooth="yes"/>
      <point x="445" y="358"/>
      <point x="440" y="378"/>
      <point x="428" y="395" type="curve"/>
      <point x="437" y="412"/>
      <point x="445" y="428"/>
      <point x="445" y="448" type="curve" smooth="yes"/>
      <point x="445" y="510"/>
      <point x="409" y="542"/>
      <point x="340" y="554" type="curve" smooth="yes"/>
      <point x="272" y="566"/>
      <point x="254" y="581"/>
      <point x="254" y="605" type="curve" smooth="yes"/>
      <point x="254" y="630"/>
      <point x="273" y="648"/>
      <point x="308" y="648" type="curve" smooth="yes"/>
      <point x="347" y="648"/>
      <point x="371" y="622"/>
      <point x="371" y="594" type="curve" smooth="yes"/>
      <point x="371" y="588" type="line"/>
      <point x="439" y="588" type="line"/>
      <point x="439" y="604" type="line" smooth="yes"/>
      <point x="439" y="660"/>
      <point x="396" y="714"/>
      <point x="312" y="714" type="curve" smooth="yes"/>
      <point x="241" y="714"/>
      <point x="184" y="672"/>
      <point x="184" y="604" type="curve" smooth="yes"/>
      <point x="184" y="580"/>
      <point x="193" y="560"/>
      <point x="202" y="545" type="curve"/>
      <point x="192" y="531"/>
      <point x="184" y="515"/>
    </contour>
    <contour>
      <point x="340" y="441" type="curve" smooth="yes"/>
      <point x="272" y="453"/>
      <point x="254" y="471"/>
      <point x="254" y="493" type="curve" smooth="yes"/>
      <point x="254" y="497"/>
      <point x="255" y="506"/>
      <point x="256" y="509" type="curve"/>
      <point x="268" y="505"/>
      <point x="282" y="501"/>
      <point x="294" y="499" type="curve" smooth="yes"/>
      <point x="358" y="487"/>
      <point x="375" y="469"/>
      <point x="375" y="445" type="curve" smooth="yes"/>
      <point x="375" y="442"/>
      <point x="375" y="435"/>
      <point x="374" y="432" type="curve"/>
      <point x="365" y="435"/>
      <point x="351" y="439"/>
    </contour>
  </outline>
</glyph>
<glyph name="guillemotleft" format="1">
  <advance width="612"/>
  <unicode hex="00AB"/>
  <outline>
    <contour>
      <point x="318" y="12" type="line"/>
      <point x="318" y="100" type="line"/>
      <point x="108" y="242" type="line"/>
      <point x="108" y="254" type="line"/>
      <point x="318" y="396" type="line"/>
      <point x="318" y="484" type="line"/>
      <point x="312" y="484" type="line"/>
      <point x="78" y="326" type="line"/>
      <point x="78" y="170" type="line"/>
      <point x="312" y="12" type="line"/>
    </contour>
    <contour>
      <point x="534" y="12" type="line"/>
      <point x="534" y="100" type="line"/>
      <point x="324" y="242" type="line"/>
      <point x="324" y="254" type="line"/>
      <point x="534" y="396" type="line"/>
      <point x="534" y="484" type="line"/>
      <point x="528" y="484" type="line"/>
      <point x="294" y="326" type="line"/>
      <point x="294" y="170" type="line"/>
      <point x="528" y="12" type="line"/>
    </contour>
  </outline>
</glyph>
<glyph name="logicalnot" format="1">
  <advance width="612"/>
  <unicode hex="00AC"/>
  <outline>
    <contour>
      <point x="97" y="314" type="line"/>
      <point x="443" y="314" type="line"/>
      <point x="443" y="230" type="line"/>
      <point x="515" y="230" type="line"/>
      <point x="515" y="386" type="line"/>
      <point x="97" y="386" type="line"/>
    </contour>
  </outline>
</glyph>
<glyph name="threesuperior" format="1">
  <advance width="612"/>
  <unicode hex="00B3"/>
  <outline>
    <contour>
      <point x="276" y="542" type="line"/>
      <point x="276" y="618" type="line"/>
      <point x="358" y="646" type="line"/>
      <point x="358" y="652" type="line"/>
      <point x="213" y="652" type="line"/>
      <point x="213" y="700" type="line"/>
      <point x="400" y="700" type="line"/>
      <point x="400" y="616" type="line"/>
      <point x="318" y="588" type="line"/>
      <point x="318" y="582" type="line"/>
      <point x="324" y="582" type="line" smooth="yes"/>
      <point x="372" y="582"/>
      <point x="408" y="554"/>
      <point x="408" y="502" type="curve" smooth="yes"/>
      <point x="408" y="445"/>
      <point x="368" y="406"/>
      <point x="308" y="406" type="curve" smooth="yes"/>
      <point x="244" y="406"/>
      <point x="204" y="450"/>
      <point x="204" y="502" type="curve" smooth="yes"/>
      <point x="204" y="518" type="line"/>
      <point x="258" y="518" type="line"/>
      <point x="258" y="504" type="line" smooth="yes"/>
      <point x="258" y="474"/>
      <point x="276" y="454"/>
      <point x="306" y="454" type="curve" smooth="yes"/>
      <point x="336" y="454"/>
      <point x="354" y="472"/>
      <point x="354" y="498" type="curve" smooth="yes"/>
      <point x="354" y="530"/>
      <point x="330" y="542"/>
      <point x="308" y="542" type="curve" smooth="yes"/>
    </contour>
  </outline>
</glyph>
<glyph name="paragraph" format="1">
  <advance width="612"/>
  <unicode hex="00B6"/>
  <outline>
    <contour>
      <point x="269" y="218" type="line"/>
      <point x="341" y="218" type="line"/>
      <point x="341" y="642" type="line"/>
      <point x="377" y="642" type="line"/>
      <point x="377" y="218" type="line"/>
      <point x="449" y="218" type="line"/>
      <point x="449" y="714" type="line"/>
      <point x="269" y="714" type="line" smooth="yes"/>
      <point x="189" y="714"/>
      <point x="124" y="649"/>
      <point x="124" y="569" type="curve" smooth="yes"/>
      <point x="124" y="489"/>
      <point x="189" y="424"/>
      <point x="269" y="424" type="curve"/>
    </contour>
    <contour>
      <point x="269" y="496" type="line"/>
      <point x="229" y="496"/>
      <point x="196" y="529"/>
      <point x="196" y="569" type="curve" smooth="yes"/>
      <point x="196" y="609"/>
      <point x="229" y="642"/>
      <point x="269" y="642" type="curve"/>
    </contour>
  </outline>
</glyph>
<glyph name="onesuperior" format="1">
  <advance width="612"/>
  <unicode hex="00B9"/>
  <outline>
    <contour>
      <point x="215" y="460" type="line"/>
      <point x="215" y="412" type="line"/>
      <point x="418" y="412" type="line"/>
      <point x="418" y="460" type="line"/>
      <point x="347" y="460" type="line"/>
      <point x="347" y="700" type="line"/>
      <point x="241" y="700" type="line"/>
      <point x="209" y="577" type="line"/>
      <point x="262" y="577" type="line"/>
      <point x="284" y="670" type="line"/>
      <point x="293" y="670" type="line"/>
      <point x="293" y="460" type="line"/>
    </contour>
  </outline>
</glyph>
<glyph name="guillemotright" format="1">
  <advance width="612"/>
  <unicode hex="00BB"/>
  <outline>
    <contour>
      <point x="300" y="12" type="line"/>
      <point x="534" y="170" type="line"/>
      <point x="534" y="326" type="line"/>
      <point x="300" y="484" type="line"/>
      <point x="294" y="484" type="line"/>
      <point x="294" y="396" type="line"/>
      <point x="504" y="254" type="line"/>
      <point x="504" y="242" type="line"/>
      <point x="294" y="100" type="line"/>
      <point x="294" y="12" type="line"/>
    </contour>
    <contour>
      <point x="84" y="12" type="line"/>
      <point x="318" y="170" type="line"/>
      <point x="318" y="326" type="line"/>
      <point x="84" y="484" type="line"/>
      <point x="78" y="484" type="line"/>
      <point x="78" y="396" type="line"/>
      <point x="288" y="254" type="line"/>
      <point x="288" y="242" type="line"/>
      <point x="78" y="100" type="line"/>
      <point x="78" y="12" type="line"/>
    </contour>
  </outline>
</glyph>
<glyph name="Ccedilla" format="1">
  <advance width="612"/>
  <unicode hex="00C7"/>
  <outline>
    <contour>
      <point x="310" y="64" type="curve" smooth="yes"/>
      <point x="202" y="64"/>
      <point x="148" y="142"/>
      <point x="148" y="278" type="curve" smooth="yes"/>
      <point x="148" y="422" type="line" smooth="yes"/>
      <point x="148" y="550"/>
      <point x="202" y="636"/>
      <point x="310" y="636" type="curve" smooth="yes"/>
      <point x="424" y="636"/>
      <point x="470" y="552"/>
      <point x="472" y="460" type="curve" smooth="yes"/>
      <point x="472" y="448" type="line"/>
      <point x="556" y="448" type="line"/>
      <point x="556" y="460" type="line" smooth="yes"/>
      <point x="556" y="602"/>
      <point x="470" y="714"/>
      <point x="310" y="714" type="curve" smooth="yes"/>
      <point x="156" y="714"/>
      <point x="64" y="608"/>
      <point x="64" y="428" type="curve" smooth="yes"/>
      <point x="64" y="272" type="line" smooth="yes"/>
      <point x="64" y="109"/>
      <point x="134" y="12"/>
      <point x="254" y="-9" type="curve"/>
      <point x="236" y="-92" type="line"/>
      <point x="236" y="-98" type="line"/>
      <point x="312" y="-98" type="line"/>
      <point x="316" y="-90"/>
      <point x="325" y="-84"/>
      <point x="337" y="-84" type="curve" smooth="yes"/>
      <point x="356" y="-84"/>
      <point x="372" y="-98"/>
      <point x="372" y="-122" type="curve" smooth="yes"/>
      <point x="372" y="-151"/>
      <point x="352" y="-164"/>
      <point x="332" y="-164" type="curve" smooth="yes"/>
      <point x="303" y="-164"/>
      <point x="288" y="-144"/>
      <point x="284" y="-124" type="curve"/>
      <point x="236" y="-142" type="line"/>
      <point x="246" y="-182"/>
      <point x="276" y="-212"/>
      <point x="333" y="-212" type="curve" smooth="yes"/>
      <point x="385" y="-212"/>
      <point x="426" y="-176"/>
      <point x="426" y="-121" type="curve" smooth="yes"/>
      <point x="426" y="-75"/>
      <point x="396" y="-36"/>
      <point x="350" y="-36" type="curve" smooth="yes"/>
      <point x="322" y="-36"/>
      <point x="304" y="-48"/>
      <point x="296" y="-68" type="curve"/>
      <point x="290" y="-68" type="line"/>
      <point x="302" y="-14" type="line"/>
      <point x="310" y="-14" type="line" smooth="yes"/>
      <point x="470" y="-14"/>
      <point x="556" y="98"/>
      <point x="556" y="240" type="curve" smooth="yes"/>
      <point x="556" y="252" type="line"/>
      <point x="472" y="252" type="line"/>
      <point x="472" y="240" type="line" smooth="yes"/>
      <point x="472" y="148"/>
      <point x="424" y="64"/>
    </contour>
  </outline>
</glyph>
<glyph name="Eth" format="1">
  <advance width="612"/>
  <unicode hex="00D0"/>
  <outline>
    <contour>
      <point x="73" y="311" type="line"/>
      <point x="133" y="311" type="line"/>
      <point x="133" y="78" type="line"/>
      <point x="73" y="78" type="line"/>
      <point x="73" y="0" type="line"/>
      <point x="303" y="0" type="line" smooth="yes"/>
      <point x="475" y="0"/>
      <point x="553" y="80"/>
      <point x="553" y="260" type="curve" smooth="yes"/>
      <point x="553" y="440" type="line" smooth="yes"/>
      <point x="553" y="620"/>
      <point x="475" y="700"/>
      <point x="303" y="700" type="curve" smooth="yes"/>
      <point x="73" y="700" type="line"/>
      <point x="73" y="622" type="line"/>
      <point x="133" y="622" type="line"/>
      <point x="133" y="389" type="line"/>
      <point x="73" y="389" type="line"/>
    </contour>
    <contour>
      <point x="291" y="78" type="curve"/>
      <point x="217" y="78" type="line"/>
      <point x="217" y="311" type="line"/>
      <point x="325" y="311" type="line"/>
      <point x="325" y="389" type="line"/>
      <point x="217" y="389" type="line"/>
      <point x="217" y="622" type="line"/>
      <point x="291" y="622" type="line" smooth="yes"/>
      <point x="413" y="622"/>
      <point x="469" y="580"/>
      <point x="469" y="434" type="curve" smooth="yes"/>
      <point x="469" y="266" type="line" smooth="yes"/>
      <point x="469" y="120"/>
      <point x="413" y="78"/>
    </contour>
  </outline>
</glyph>
<glyph name="multiply" format="1">
  <advance width="612"/>
  <unicode hex="00D7"/>
  <outline>
    <contour>
      <point x="504" y="203" type="line"/>
      <point x="357" y="350" type="line"/>
      <point x="504" y="497" type="line"/>
      <point x="453" y="548" type="line"/>
      <point x="306" y="401" type="line"/>
      <point x="159" y="548" type="line"/>
      <point x="108" y="497" type="line"/>
      <point x="255" y="350" type="line"/>
      <point x="108" y="203" type="line"/>
      <point x="159" y="152" type="line"/>
      <point x="306" y="299" type="line"/>
      <point x="453" y="152" type="line"/>
    </contour>
  </outline>
</glyph>
<glyph name="Oslash" format="1">
  <advance width="612"/>
  <unicode hex="00D8"/>
  <outline>
    <contour>
      <point x="131" y="-64" type="line"/>
      <point x="202" y="-86" type="line"/>
      <point x="229" y="-4" type="line"/>
      <point x="252" y="-11"/>
      <point x="278" y="-14"/>
      <point x="306" y="-14" type="curve" smooth="yes"/>
      <point x="460" y="-14"/>
      <point x="552" y="86"/>
      <point x="552" y="272" type="curve" smooth="yes"/>
      <point x="552" y="428" type="line" smooth="yes"/>
      <point x="552" y="541"/>
      <point x="515" y="624"/>
      <point x="450" y="671" type="curve"/>
      <point x="477" y="752" type="line"/>
      <point x="407" y="774" type="line"/>
      <point x="384" y="703" type="line"/>
      <point x="360" y="710"/>
      <point x="334" y="714"/>
      <point x="306" y="714" type="curve" smooth="yes"/>
      <point x="152" y="714"/>
      <point x="60" y="608"/>
      <point x="60" y="428" type="curve" smooth="yes"/>
      <point x="60" y="272" type="line" smooth="yes"/>
      <point x="60" y="155"/>
      <point x="96" y="72"/>
      <point x="161" y="27" type="curve"/>
    </contour>
    <contour>
      <point x="144" y="278" type="curve"/>
      <point x="144" y="422" type="line" smooth="yes"/>
      <point x="144" y="550"/>
      <point x="198" y="636"/>
      <point x="306" y="636" type="curve" smooth="yes"/>
      <point x="325" y="636"/>
      <point x="343" y="633"/>
      <point x="359" y="628" type="curve"/>
      <point x="189" y="113" type="line"/>
      <point x="159" y="150"/>
      <point x="144" y="206"/>
    </contour>
    <contour>
      <point x="306" y="64" type="curve" smooth="yes"/>
      <point x="287" y="64"/>
      <point x="269" y="66"/>
      <point x="254" y="71" type="curve"/>
      <point x="422" y="584" type="line"/>
      <point x="452" y="546"/>
      <point x="468" y="490"/>
      <point x="468" y="422" type="curve" smooth="yes"/>
      <point x="468" y="278" type="line" smooth="yes"/>
      <point x="468" y="142"/>
      <point x="414" y="64"/>
    </contour>
  </outline>
</glyph>
<glyph name="Thorn" format="1">
  <advance width="612"/>
  <unicode hex="00DE"/>
  <outline>
    <contour>
      <point x="335" y="150" type="line" smooth="yes"/>
      <point x="477" y="150"/>
      <point x="549" y="240"/>
      <point x="549" y="342" type="curve" smooth="yes"/>
      <point x="549" y="372" type="line" smooth="yes"/>
      <point x="549" y="473"/>
      <point x="478" y="562"/>
      <point x="335" y="562" type="curve" smooth="yes"/>
      <point x="169" y="562" type="line"/>
      <point x="169" y="700" type="line"/>
      <point x="85" y="700" type="line"/>
      <point x="85" y="0" type="line"/>
      <point x="169" y="0" type="line"/>
      <point x="169" y="150" type="line"/>
    </contour>
    <contour>
      <point x="169" y="484" type="line"/>
      <point x="325" y="484" type="line" smooth="yes"/>
      <point x="419" y="484"/>
      <point x="465" y="436"/>
      <point x="465" y="366" type="curve" smooth="yes"/>
      <point x="465" y="348" type="line" smooth="yes"/>
      <point x="465" y="268"/>
      <point x="419" y="228"/>
      <point x="325" y="228" type="curve" smooth="yes"/>
      <point x="169" y="228" type="line"/>
    </contour>
  </outline>
</glyph>
<glyph name="ae" format="1">
  <advance width="612"/>
  <unicode hex="00E6"/>
  <outline>
    <contour>
      <point x="283" y="510" type="line" smooth="yes"/>
      <point x="165" y="510"/>
      <point x="99" y="435"/>
      <point x="84" y="348" type="curve"/>
      <point x="158" y="330" type="line"/>
      <point x="168" y="393"/>
      <point x="205" y="430"/>
      <point x="263" y="437" type="curve"/>
      <point x="263" y="296" type="line"/>
      <point x="248" y="296" type="line" smooth="yes"/>
      <point x="148" y="296"/>
      <point x="72" y="240"/>
      <point x="72" y="146" type="curve" smooth="yes"/>
      <point x="72" y="134" type="line" smooth="yes"/>
      <point x="72" y="52"/>
      <point x="136" y="-14"/>
      <point x="246" y="-14" type="curve" smooth="yes"/>
      <point x="306" y="-14" type="line" smooth="yes"/>
      <point x="432" y="-14"/>
      <point x="506" y="50"/>
      <point x="534" y="142" type="curve"/>
      <point x="460" y="162" type="line"/>
      <point x="444" y="113"/>
      <point x="411" y="72"/>
      <point x="341" y="62" type="curve"/>
      <point x="341" y="224" type="line"/>
      <point x="540" y="224" type="line"/>
      <point x="540" y="288" type="line" smooth="yes"/>
      <point x="540" y="376"/>
      <point x="469" y="510"/>
      <point x="306" y="510" type="curve" smooth="yes"/>
    </contour>
    <contour>
      <point x="149" y="140" type="curve" smooth="yes"/>
      <point x="149" y="198"/>
      <point x="190" y="224"/>
      <point x="257" y="224" type="curve" smooth="yes"/>
      <point x="263" y="224" type="line"/>
      <point x="263" y="58" type="line"/>
      <point x="253" y="58" type="line" smooth="yes"/>
      <point x="187" y="58"/>
      <point x="149" y="91"/>
    </contour>
    <contour>
      <point x="462" y="296" type="curve"/>
      <point x="341" y="296" type="line"/>
      <point x="341" y="432" type="line"/>
      <point x="405" y="419"/>
      <point x="458" y="369"/>
    </contour>
  </outline>
</glyph>
<glyph name="eth" format="1">
  <advance width="612"/>
  <unicode hex="00F0"/>
  <outline>
    <contour>
      <point x="246" y="576" type="line"/>
      <point x="310" y="547" type="line"/>
      <point x="329" y="587" type="line"/>
      <point x="385" y="554"/>
      <point x="430" y="505"/>
      <point x="448" y="440" type="curve"/>
      <point x="436" y="440" type="line"/>
      <point x="412" y="480"/>
      <point x="362" y="510"/>
      <point x="294" y="510" type="curve" smooth="yes"/>
      <point x="174" y="510"/>
      <point x="57" y="416"/>
      <point x="57" y="254" type="curve" smooth="yes"/>
      <point x="57" y="242" type="line" smooth="yes"/>
      <point x="57" y="78"/>
      <point x="174" y="-14"/>
      <point x="306" y="-14" type="curve" smooth="yes"/>
      <point x="444" y="-14"/>
      <point x="555" y="80"/>
      <point x="555" y="271" type="curve" smooth="yes"/>
      <point x="555" y="432"/>
      <point x="498" y="581"/>
      <point x="361" y="656" type="curve"/>
      <point x="379" y="693" type="line"/>
      <point x="316" y="722" type="line"/>
      <point x="298" y="685" type="line"/>
      <point x="261" y="698"/>
      <point x="221" y="708"/>
      <point x="178" y="714" type="curve"/>
      <point x="160" y="640" type="line"/>
      <point x="195" y="636"/>
      <point x="231" y="628"/>
      <point x="265" y="616" type="curve"/>
    </contour>
    <contour>
      <point x="306" y="60" type="curve" smooth="yes"/>
      <point x="211" y="60"/>
      <point x="137" y="130"/>
      <point x="137" y="242" type="curve" smooth="yes"/>
      <point x="137" y="254" type="line" smooth="yes"/>
      <point x="137" y="362"/>
      <point x="212" y="436"/>
      <point x="306" y="436" type="curve" smooth="yes"/>
      <point x="400" y="436"/>
      <point x="475" y="362"/>
      <point x="475" y="254" type="curve" smooth="yes"/>
      <point x="475" y="130"/>
      <point x="401" y="60"/>
    </contour>
  </outline>
</glyph>
<glyph name="divide" format="1">
  <advance width="612"/>
  <unicode hex="00F7"/>
  <outline>
    <contour>
      <point x="97" y="314" type="line"/>
      <point x="515" y="314" type="line"/>
      <point x="515" y="386" type="line"/>
      <point x="97" y="386" type="line"/>
    </contour>
    <contour>
      <point x="236" y="184" type="curve"/>
      <point x="236" y="146"/>
      <point x="268" y="114"/>
      <point x="306" y="114" type="curve" smooth="yes"/>
      <point x="344" y="114"/>
      <point x="376" y="146"/>
      <point x="376" y="184" type="curve" smooth="yes"/>
      <point x="376" y="222"/>
      <point x="344" y="254"/>
      <point x="306" y="254" type="curve" smooth="yes"/>
      <point x="268" y="254"/>
      <point x="236" y="222"/>
    </contour>
    <contour>
      <point x="236" y="516" type="curve"/>
      <point x="236" y="478"/>
      <point x="268" y="446"/>
      <point x="306" y="446" type="curve" smooth="yes"/>
      <point x="344" y="446"/>
      <point x="376" y="478"/>
      <point x="376" y="516" type="curve" smooth="yes"/>
      <point x="376" y="554"/>
      <point x="344" y="586"/>
      <point x="306" y="586" type="curve" smooth="yes"/>
      <point x="268" y="586"/>
      <point x="236" y="554"/>
    </contour>
  </outline>
</glyph>
<glyph name="Aogonek" format="1">
  <advance width="612"/>
  <unicode hex="0104"/>
  <outline>
    <contour>
      <point x="507" y="0" type="line"/>
      <point x="493" y="-66" type="line" smooth="yes"/>
      <point x="491" y="-76"/>
      <point x="490" y="-83"/>
      <point x="490" y="-90" type="curve" smooth="yes"/>
      <point x="490" y="-139"/>
      <point x="529" y="-164"/>
      <point x="568" y="-164" type="curve" smooth="yes"/>
      <point x="624" y="-164" type="line"/>
      <point x="624" y="-98" type="line"/>
      <point x="582" y="-98" type="line" smooth="yes"/>
      <point x="568" y="-98"/>
      <point x="559" y="-90"/>
      <point x="559" y="-76" type="curve" smooth="yes"/>
      <point x="559" y="-75"/>
      <point x="559" y="-73"/>
      <point x="560" y="-68" type="curve" smooth="yes"/>
      <point x="576" y="0" type="line"/>
      <point x="597" y="0" type="line"/>
      <point x="385" y="700" type="line"/>
      <point x="227" y="700" type="line"/>
      <point x="15" y="0" type="line"/>
      <point x="105" y="0" type="line"/>
      <point x="156" y="174" type="line"/>
      <point x="456" y="174" type="line"/>
    </contour>
    <contour>
      <point x="312" y="664" type="line"/>
      <point x="433" y="252" type="line"/>
      <point x="179" y="252" type="line"/>
      <point x="300" y="664" type="line"/>
    </contour>
  </outline>
</glyph>
<glyph name="dcaron" format="1">
  <advance width="612"/>
  <unicode hex="010F"/>
  <outline>
    <contour>
      <point x="340" y="0" type="line"/>
      <point x="418" y="0" type="line"/>
      <point x="418" y="700" type="line"/>
      <point x="340" y="700" type="line"/>
      <point x="340" y="442" type="line"/>
      <point x="328" y="442" type="line"/>
      <point x="310" y="482"/>
      <point x="272" y="510"/>
      <point x="210" y="510" type="curve" smooth="yes"/>
      <point x="108" y="510"/>
      <point x="24" y="426"/>
      <point x="24" y="256" type="curve" smooth="yes"/>
      <point x="24" y="240" type="line" smooth="yes"/>
      <point x="24" y="74"/>
      <point x="104" y="-14"/>
      <point x="210" y="-14" type="curve" smooth="yes"/>
      <point x="278" y="-14"/>
      <point x="314" y="16"/>
      <point x="328" y="58" type="curve"/>
      <point x="340" y="58" type="line"/>
    </contour>
    <contour>
      <point x="220" y="60" type="curve"/>
      <point x="147" y="60"/>
      <point x="104" y="124"/>
      <point x="104" y="240" type="curve" smooth="yes"/>
      <point x="104" y="256" type="line" smooth="yes"/>
      <point x="104" y="374"/>
      <point x="149" y="436"/>
      <point x="222" y="436" type="curve" smooth="yes"/>
      <point x="313" y="436"/>
      <point x="340" y="354"/>
      <point x="340" y="254" type="curve" smooth="yes"/>
      <point x="340" y="242" type="line" smooth="yes"/>
      <point x="340" y="138"/>
      <point x="311" y="60"/>
    </contour>
    <contour>
      <point x="454" y="630" type="curve" smooth="yes"/>
      <point x="454" y="592"/>
      <point x="486" y="560"/>
      <point x="523" y="560" type="curve" smooth="yes"/>
      <point x="529" y="560"/>
      <point x="535" y="561"/>
      <point x="540" y="563" type="curve"/>
      <point x="540" y="538" type="line" smooth="yes"/>
      <point x="540" y="519"/>
      <point x="532" y="508"/>
      <point x="513" y="508" type="curve" smooth="yes"/>
      <point x="466" y="508" type="line"/>
      <point x="466" y="454" type="line"/>
      <point x="517" y="454" type="line" smooth="yes"/>
      <point x="562" y="454"/>
      <point x="594" y="487"/>
      <point x="594" y="532" type="curve" smooth="yes"/>
      <point x="594" y="630" type="line" smooth="yes"/>
      <point x="594" y="668"/>
      <point x="562" y="700"/>
      <point x="524" y="700" type="curve" smooth="yes"/>
      <point x="486" y="700"/>
      <point x="454" y="668"/>
    </contour>
  </outline>
</glyph>
<glyph name="Eogonek" format="1">
  <advance width="612"/>
  <unicode hex="0118"/>
  <outline>
    <contour>
      <point x="94" y="0" type="line"/>
      <point x="455" y="0" type="line"/>
      <point x="441" y="-66" type="line" smooth="yes"/>
      <point x="439" y="-76"/>
      <point x="438" y="-83"/>
      <point x="438" y="-90" type="curve" smooth="yes"/>
      <point x="438" y="-139"/>
      <point x="476" y="-164"/>
      <point x="516" y="-164" type="curve" smooth="yes"/>
      <point x="572" y="-164" type="line"/>
      <point x="572" y="-98" type="line"/>
      <point x="530" y="-98" type="line" smooth="yes"/>
      <point x="516" y="-98"/>
      <point x="507" y="-90"/>
      <point x="507" y="-76" type="curve" smooth="yes"/>
      <point x="507" y="-75"/>
      <point x="507" y="-73"/>
      <point x="508" y="-68" type="curve" smooth="yes"/>
      <point x="524" y="0" type="line"/>
      <point x="524" y="78" type="line"/>
      <point x="178" y="78" type="line"/>
      <point x="178" y="312" type="line"/>
      <point x="512" y="312" type="line"/>
      <point x="512" y="390" type="line"/>
      <point x="178" y="390" type="line"/>
      <point x="178" y="622" type="line"/>
      <point x="518" y="622" type="line"/>
      <point x="518" y="700" type="line"/>
      <point x="94" y="700" type="line"/>
    </contour>
  </outline>
</glyph>
<glyph name="Iogonek" format="1">
  <advance width="612"/>
  <unicode hex="012E"/>
  <outline>
    <contour>
      <point x="84" y="622" type="line"/>
      <point x="264" y="622" type="line"/>
      <point x="264" y="78" type="line"/>
      <point x="84" y="78" type="line"/>
      <point x="84" y="0" type="line"/>
      <point x="459" y="0" type="line"/>
      <point x="445" y="-66" type="line" smooth="yes"/>
      <point x="443" y="-76"/>
      <point x="442" y="-83"/>
      <point x="442" y="-90" type="curve" smooth="yes"/>
      <point x="442" y="-139"/>
      <point x="480" y="-164"/>
      <point x="520" y="-164" type="curve" smooth="yes"/>
      <point x="576" y="-164" type="line"/>
      <point x="576" y="-98" type="line"/>
      <point x="534" y="-98" type="line" smooth="yes"/>
      <point x="520" y="-98"/>
      <point x="511" y="-90"/>
      <point x="511" y="-76" type="curve" smooth="yes"/>
      <point x="511" y="-75"/>
      <point x="511" y="-73"/>
      <point x="512" y="-68" type="curve" smooth="yes"/>
      <point x="528" y="0" type="line"/>
      <point x="528" y="78" type="line"/>
      <point x="348" y="78" type="line"/>
      <point x="348" y="622" type="line"/>
      <point x="528" y="622" type="line"/>
      <point x="528" y="700" type="line"/>
      <point x="84" y="700" type="line"/>
    </contour>
  </outline>
</glyph>
<glyph name="ij" format="1">
  <advance width="612"/>
  <unicode hex="0133"/>
  <outline>
    <contour>
      <point x="416" y="644" type="curve"/>
      <point x="416" y="606"/>
      <point x="448" y="574"/>
      <point x="486" y="574" type="curve" smooth="yes"/>
      <point x="524" y="574"/>
      <point x="556" y="606"/>
      <point x="556" y="644" type="curve" smooth="yes"/>
      <point x="556" y="682"/>
      <point x="524" y="714"/>
      <point x="486" y="714" type="curve" smooth="yes"/>
      <point x="448" y="714"/>
      <point x="416" y="682"/>
    </contour>
    <contour>
      <point x="56" y="644" type="curve" smooth="yes"/>
      <point x="56" y="606"/>
      <point x="88" y="574"/>
      <point x="126" y="574" type="curve" smooth="yes"/>
      <point x="164" y="574"/>
      <point x="196" y="606"/>
      <point x="196" y="644" type="curve" smooth="yes"/>
      <point x="196" y="682"/>
      <point x="164" y="714"/>
      <point x="126" y="714" type="curve" smooth="yes"/>
      <point x="88" y="714"/>
      <point x="56" y="682"/>
    </contour>
    <contour>
      <point x="447" y="-98" type="line" smooth="yes"/>
      <point x="447" y="-117"/>
      <point x="439" y="-128"/>
      <point x="420" y="-128" type="curve" smooth="yes"/>
      <point x="225" y="-128" type="line"/>
      <point x="225" y="-200" type="line"/>
      <point x="448" y="-200" type="line" smooth="yes"/>
      <point x="493" y="-200"/>
      <point x="525" y="-167"/>
      <point x="525" y="-122" type="curve" smooth="yes"/>
      <point x="525" y="496" type="line"/>
      <point x="447" y="496" type="line"/>
      <point x="447" y="238" type="line" smooth="yes"/>
      <point x="447" y="130"/>
      <point x="389" y="60"/>
      <point x="295" y="60" type="curve" smooth="yes"/>
      <point x="207" y="60"/>
      <point x="165" y="106"/>
      <point x="165" y="210" type="curve" smooth="yes"/>
      <point x="165" y="496" type="line"/>
      <point x="87" y="496" type="line"/>
      <point x="87" y="200" type="line" smooth="yes"/>
      <point x="87" y="58"/>
      <point x="163" y="-14"/>
      <point x="273" y="-14" type="curve" smooth="yes"/>
      <point x="353" y="-14"/>
      <point x="403" y="26"/>
      <point x="435" y="90" type="curve"/>
      <point x="447" y="90" type="line"/>
    </contour>
  </outline>
</glyph>
<glyph name="kgreenlandic" format="1">
  <advance width="612"/>
  <unicode hex="0138"/>
  <outline>
    <contour>
      <point x="215" y="496" type="line"/>
      <point x="137" y="496" type="line"/>
      <point x="137" y="0" type="line"/>
      <point x="215" y="0" type="line"/>
      <point x="215" y="218" type="line"/>
      <point x="234" y="218" type="line"/>
      <point x="445" y="0" type="line"/>
      <point x="541" y="0" type="line"/>
      <point x="541" y="6" type="line"/>
      <point x="311" y="245" type="line"/>
      <point x="311" y="263" type="line"/>
      <point x="517" y="490" type="line"/>
      <point x="517" y="496" type="line"/>
      <point x="421" y="496" type="line"/>
      <point x="232" y="290" type="line"/>
      <point x="215" y="290" type="line"/>
    </contour>
  </outline>
</glyph>
<glyph name="napostrophe" format="1">
  <advance width="612"/>
  <unicode hex="0149"/>
  <outline>
    <contour>
      <point x="75" y="750" type="curve"/>
      <point x="75" y="712"/>
      <point x="107" y="680"/>
      <point x="144" y="680" type="curve" smooth="yes"/>
      <point x="150" y="680"/>
      <point x="156" y="681"/>
      <point x="161" y="683" type="curve"/>
      <point x="161" y="658" type="line" smooth="yes"/>
      <point x="161" y="639"/>
      <point x="153" y="628"/>
      <point x="134" y="628" type="curve" smooth="yes"/>
      <point x="87" y="628" type="line"/>
      <point x="87" y="574" type="line"/>
      <point x="138" y="574" type="line" smooth="yes"/>
      <point x="183" y="574"/>
      <point x="215" y="607"/>
      <point x="215" y="652" type="curve" smooth="yes"/>
      <point x="215" y="750" type="line" smooth="yes"/>
      <point x="215" y="788"/>
      <point x="183" y="820"/>
      <point x="145" y="820" type="curve" smooth="yes"/>
      <point x="107" y="820"/>
      <point x="75" y="788"/>
    </contour>
    <component base="n"/>
  </outline>
</glyph>
<glyph name="Eng" format="1">
  <advance width="612"/>
  <unicode hex="014A"/>
  <outline>
    <contour>
      <point x="241" y="700" type="line"/>
      <point x="73" y="700" type="line"/>
      <point x="73" y="0" type="line"/>
      <point x="157" y="0" type="line"/>
      <point x="157" y="664" type="line"/>
      <point x="169" y="664" type="line"/>
      <point x="371" y="0" type="line"/>
      <point x="455" y="0" type="line"/>
      <point x="455" y="-68" type="line" smooth="yes"/>
      <point x="455" y="-102"/>
      <point x="441" y="-122"/>
      <point x="401" y="-122" type="curve" smooth="yes"/>
      <point x="241" y="-122" type="line"/>
      <point x="241" y="-200" type="line"/>
      <point x="419" y="-200" type="line" smooth="yes"/>
      <point x="497" y="-200"/>
      <point x="539" y="-158"/>
      <point x="539" y="-80" type="curve" smooth="yes"/>
      <point x="539" y="700" type="line"/>
      <point x="455" y="700" type="line"/>
      <point x="455" y="36" type="line"/>
      <point x="443" y="36" type="line"/>
    </contour>
  </outline>
</glyph>
<glyph name="eng" format="1">
  <advance width="612"/>
  <unicode hex="014B"/>
  <outline>
    <contour>
      <point x="165" y="258" type="line" smooth="yes"/>
      <point x="165" y="366"/>
      <point x="223" y="436"/>
      <point x="317" y="436" type="curve" smooth="yes"/>
      <point x="397" y="436"/>
      <point x="447" y="384"/>
      <point x="447" y="280" type="curve" smooth="yes"/>
      <point x="447" y="-98" type="line" smooth="yes"/>
      <point x="447" y="-117"/>
      <point x="439" y="-128"/>
      <point x="420" y="-128" type="curve" smooth="yes"/>
      <point x="317" y="-128" type="line"/>
      <point x="317" y="-200" type="line"/>
      <point x="448" y="-200" type="line" smooth="yes"/>
      <point x="493" y="-200"/>
      <point x="525" y="-167"/>
      <point x="525" y="-122" type="curve" smooth="yes"/>
      <point x="525" y="296" type="line" smooth="yes"/>
      <point x="525" y="438"/>
      <point x="451" y="510"/>
      <point x="337" y="510" type="curve" smooth="yes"/>
      <point x="261" y="510"/>
      <point x="207" y="476"/>
      <point x="177" y="412" type="curve"/>
      <point x="165" y="412" type="line"/>
      <point x="165" y="496" type="line"/>
      <point x="87" y="496" type="line"/>
      <point x="87" y="0" type="line"/>
      <point x="165" y="0" type="line"/>
    </contour>
  </outline>
</glyph>
<glyph name="oe" format="1">
  <advance width="612"/>
  <unicode hex="0153"/>
  <outline>
    <contour>
      <point x="317" y="-14" type="curve" smooth="yes"/>
      <point x="443" y="-14"/>
      <point x="517" y="50"/>
      <point x="545" y="142" type="curve"/>
      <point x="471" y="162" type="line"/>
      <point x="455" y="113"/>
      <point x="422" y="72"/>
      <point x="352" y="62" type="curve"/>
      <point x="352" y="224" type="line"/>
      <point x="551" y="224" type="line"/>
      <point x="551" y="288" type="line" smooth="yes"/>
      <point x="551" y="376"/>
      <point x="480" y="510"/>
      <point x="317" y="510" type="curve" smooth="yes"/>
      <point x="186" y="510"/>
      <point x="68" y="416"/>
      <point x="68" y="254" type="curve" smooth="yes"/>
      <point x="68" y="242" type="line" smooth="yes"/>
      <point x="68" y="78"/>
      <point x="185" y="-14"/>
    </contour>
    <contour>
      <point x="148" y="242" type="curve"/>
      <point x="148" y="254" type="line" smooth="yes"/>
      <point x="148" y="345"/>
      <point x="201" y="411"/>
      <point x="274" y="430" type="curve"/>
      <point x="274" y="65" type="line"/>
      <point x="200" y="83"/>
      <point x="148" y="147"/>
    </contour>
    <contour>
      <point x="473" y="296" type="curve"/>
      <point x="352" y="296" type="line"/>
      <point x="352" y="432" type="line"/>
      <point x="416" y="419"/>
      <point x="469" y="369"/>
    </contour>
  </outline>
</glyph>
<glyph name="uni0162" format="1">
  <advance width="612"/>
  <unicode hex="0162"/>
  <outline>
    <contour>
      <point x="282" y="0" type="line"/>
      <point x="262" y="-92" type="line"/>
      <point x="262" y="-98" type="line"/>
      <point x="338" y="-98" type="line"/>
      <point x="342" y="-90"/>
      <point x="351" y="-84"/>
      <point x="363" y="-84" type="curve" smooth="yes"/>
      <point x="382" y="-84"/>
      <point x="398" y="-98"/>
      <point x="398" y="-122" type="curve" smooth="yes"/>
      <point x="398" y="-151"/>
      <point x="378" y="-164"/>
      <point x="358" y="-164" type="curve" smooth="yes"/>
      <point x="329" y="-164"/>
      <point x="314" y="-144"/>
      <point x="310" y="-124" type="curve"/>
      <point x="262" y="-142" type="line"/>
      <point x="272" y="-182"/>
      <point x="302" y="-212"/>
      <point x="359" y="-212" type="curve" smooth="yes"/>
      <point x="411" y="-212"/>
      <point x="452" y="-176"/>
      <point x="452" y="-121" type="curve" smooth="yes"/>
      <point x="452" y="-75"/>
      <point x="422" y="-36"/>
      <point x="376" y="-36" type="curve" smooth="yes"/>
      <point x="348" y="-36"/>
      <point x="330" y="-48"/>
      <point x="322" y="-68" type="curve"/>
      <point x="316" y="-68" type="line"/>
      <point x="331" y="0" type="line"/>
      <point x="348" y="0" type="line"/>
      <point x="348" y="622" type="line"/>
      <point x="552" y="622" type="line"/>
      <point x="552" y="700" type="line"/>
      <point x="60" y="700" type="line"/>
      <point x="60" y="622" type="line"/>
      <point x="264" y="622" type="line"/>
      <point x="264" y="0" type="line"/>
    </contour>
  </outline>
</glyph>
<glyph name="tcaron" format="1">
  <advance width="612"/>
  <unicode hex="0165"/>
  <outline>
    <contour>
      <point x="70" y="424" type="line"/>
      <point x="226" y="424" type="line"/>
      <point x="226" y="78" type="line" smooth="yes"/>
      <point x="226" y="33"/>
      <point x="258" y="0"/>
      <point x="303" y="0" type="curve" smooth="yes"/>
      <point x="472" y="0" type="line"/>
      <point x="472" y="72" type="line"/>
      <point x="331" y="72" type="line" smooth="yes"/>
      <point x="312" y="72"/>
      <point x="304" y="83"/>
      <point x="304" y="102" type="curve" smooth="yes"/>
      <point x="304" y="424" type="line"/>
      <point x="376" y="424" type="line"/>
      <point x="376" y="496" type="line"/>
      <point x="304" y="496" type="line"/>
      <point x="304" y="700" type="line"/>
      <point x="226" y="700" type="line"/>
      <point x="226" y="496" type="line"/>
      <point x="70" y="496" type="line"/>
    </contour>
    <contour>
      <point x="394" y="630" type="curve" smooth="yes"/>
      <point x="394" y="592"/>
      <point x="426" y="560"/>
      <point x="463" y="560" type="curve" smooth="yes"/>
      <point x="469" y="560"/>
      <point x="475" y="561"/>
      <point x="480" y="563" type="curve"/>
      <point x="480" y="508" type="line" smooth="yes"/>
      <point x="480" y="489"/>
      <point x="472" y="478"/>
      <point x="453" y="478" type="curve" smooth="yes"/>
      <point x="406" y="478" type="line"/>
      <point x="406" y="424" type="line"/>
      <point x="457" y="424" type="line" smooth="yes"/>
      <point x="502" y="424"/>
      <point x="534" y="457"/>
      <point x="534" y="502" type="curve" smooth="yes"/>
      <point x="534" y="630" type="line" smooth="yes"/>
      <point x="534" y="668"/>
      <point x="502" y="700"/>
      <point x="464" y="700" type="curve" smooth="yes"/>
      <point x="426" y="700"/>
      <point x="394" y="668"/>
    </contour>
  </outline>
</glyph>
<glyph name="Tbar" format="1">
  <advance width="612"/>
  <unicode hex="0166"/>
  <outline>
    <contour>
      <point x="60" y="622" type="line"/>
      <point x="264" y="622" type="line"/>
      <point x="264" y="428" type="line"/>
      <point x="108" y="428" type="line"/>
      <point x="108" y="350" type="line"/>
      <point x="264" y="350" type="line"/>
      <point x="264" y="0" type="line"/>
      <point x="348" y="0" type="line"/>
      <point x="348" y="350" type="line"/>
      <point x="504" y="350" type="line"/>
      <point x="504" y="428" type="line"/>
      <point x="348" y="428" type="line"/>
      <point x="348" y="622" type="line"/>
      <point x="552" y="622" type="line"/>
      <point x="552" y="700" type="line"/>
      <point x="60" y="700" type="line"/>
    </contour>
  </outline>
</glyph>
<glyph name="uogonek" format="1">
  <advance width="612"/>
  <unicode hex="0173"/>
  <outline>
    <contour>
      <point x="441" y="238" type="line" smooth="yes"/>
      <point x="441" y="130"/>
      <point x="383" y="60"/>
      <point x="289" y="60" type="curve" smooth="yes"/>
      <point x="201" y="60"/>
      <point x="159" y="106"/>
      <point x="159" y="210" type="curve" smooth="yes"/>
      <point x="159" y="496" type="line"/>
      <point x="81" y="496" type="line"/>
      <point x="81" y="200" type="line" smooth="yes"/>
      <point x="81" y="58"/>
      <point x="157" y="-14"/>
      <point x="267" y="-14" type="curve" smooth="yes"/>
      <point x="347" y="-14"/>
      <point x="397" y="26"/>
      <point x="429" y="90" type="curve"/>
      <point x="441" y="90" type="line"/>
      <point x="407" y="-66" type="line" smooth="yes"/>
      <point x="405" y="-76"/>
      <point x="404" y="-83"/>
      <point x="404" y="-90" type="curve" smooth="yes"/>
      <point x="404" y="-139"/>
      <point x="443" y="-164"/>
      <point x="482" y="-164" type="curve" smooth="yes"/>
      <point x="538" y="-164" type="line"/>
      <point x="538" y="-98" type="line"/>
      <point x="496" y="-98" type="line" smooth="yes"/>
      <point x="482" y="-98"/>
      <point x="473" y="-90"/>
      <point x="473" y="-76" type="curve" smooth="yes"/>
      <point x="473" y="-75"/>
      <point x="473" y="-73"/>
      <point x="474" y="-68" type="curve" smooth="yes"/>
      <point x="490" y="0" type="line"/>
      <point x="519" y="0" type="line"/>
      <point x="519" y="496" type="line"/>
      <point x="441" y="496" type="line"/>
    </contour>
  </outline>
</glyph>
<glyph name="uni01A0" format="1">
  <advance width="612"/>
  <unicode hex="01A0"/>
  <outline>
    <contour>
      <point x="38" y="218" type="line" smooth="yes"/>
      <point x="38" y="64"/>
      <point x="114" y="-14"/>
      <point x="242" y="-14" type="curve" smooth="yes"/>
      <point x="370" y="-14"/>
      <point x="446" y="64"/>
      <point x="446" y="218" type="curve" smooth="yes"/>
      <point x="446" y="454" type="line"/>
      <point x="516" y="454" type="line" smooth="yes"/>
      <point x="561" y="454"/>
      <point x="593" y="487"/>
      <point x="593" y="532" type="curve" smooth="yes"/>
      <point x="593" y="630" type="line" smooth="yes"/>
      <point x="593" y="668"/>
      <point x="561" y="700"/>
      <point x="523" y="700" type="curve" smooth="yes"/>
      <point x="485" y="700"/>
      <point x="453" y="668"/>
      <point x="453" y="630" type="curve" smooth="yes"/>
      <point x="453" y="592"/>
      <point x="485" y="560"/>
      <point x="522" y="560" type="curve" smooth="yes"/>
      <point x="528" y="560"/>
      <point x="534" y="561"/>
      <point x="539" y="563" type="curve"/>
      <point x="539" y="538" type="line" smooth="yes"/>
      <point x="539" y="519"/>
      <point x="531" y="508"/>
      <point x="512" y="508" type="curve" smooth="yes"/>
      <point x="445" y="508" type="line"/>
      <point x="435" y="638"/>
      <point x="362" y="714"/>
      <point x="242" y="714" type="curve" smooth="yes"/>
      <point x="112" y="714"/>
      <point x="38" y="626"/>
      <point x="38" y="476" type="curve" smooth="yes"/>
    </contour>
    <contour>
      <point x="242" y="62" type="curve" smooth="yes"/>
      <point x="160" y="62"/>
      <point x="122" y="114"/>
      <point x="122" y="224" type="curve" smooth="yes"/>
      <point x="122" y="476" type="line" smooth="yes"/>
      <point x="122" y="578"/>
      <point x="158" y="638"/>
      <point x="242" y="638" type="curve" smooth="yes"/>
      <point x="326" y="638"/>
      <point x="362" y="578"/>
      <point x="362" y="476" type="curve" smooth="yes"/>
      <point x="362" y="224" type="line" smooth="yes"/>
      <point x="362" y="114"/>
      <point x="324" y="62"/>
    </contour>
  </outline>
</glyph>
<glyph name="uni01AF" format="1">
  <advance width="612"/>
  <unicode hex="01AF"/>
  <outline>
    <contour>
      <point x="40" y="700" type="line"/>
      <point x="40" y="202" type="line" smooth="yes"/>
      <point x="40" y="56"/>
      <point x="112" y="-14"/>
      <point x="238" y="-14" type="curve" smooth="yes"/>
      <point x="364" y="-14"/>
      <point x="436" y="56"/>
      <point x="436" y="202" type="curve" smooth="yes"/>
      <point x="436" y="454" type="line"/>
      <point x="535" y="454" type="line" smooth="yes"/>
      <point x="580" y="454"/>
      <point x="612" y="487"/>
      <point x="612" y="532" type="curve" smooth="yes"/>
      <point x="612" y="630" type="line" smooth="yes"/>
      <point x="612" y="668"/>
      <point x="580" y="700"/>
      <point x="542" y="700" type="curve" smooth="yes"/>
      <point x="504" y="700"/>
      <point x="472" y="668"/>
      <point x="472" y="630" type="curve" smooth="yes"/>
      <point x="472" y="592"/>
      <point x="504" y="560"/>
      <point x="541" y="560" type="curve" smooth="yes"/>
      <point x="547" y="560"/>
      <point x="553" y="561"/>
      <point x="558" y="563" type="curve"/>
      <point x="558" y="538" type="line" smooth="yes"/>
      <point x="558" y="519"/>
      <point x="550" y="508"/>
      <point x="531" y="508" type="curve" smooth="yes"/>
      <point x="436" y="508" type="line"/>
      <point x="436" y="700" type="line"/>
      <point x="352" y="700" type="line"/>
      <point x="352" y="206" type="line" smooth="yes"/>
      <point x="352" y="104"/>
      <point x="312" y="62"/>
      <point x="238" y="62" type="curve" smooth="yes"/>
      <point x="164" y="62"/>
      <point x="124" y="104"/>
      <point x="124" y="206" type="curve" smooth="yes"/>
      <point x="124" y="700" type="line"/>
    </contour>
  </outline>
</glyph>
<glyph name="uni01D6" format="1">
  <advance width="612"/>
  <unicode hex="01D6"/>
  <outline>
    <contour>
      <point x="470" y="810" type="line"/>
      <point x="130" y="810" type="line"/>
      <point x="130" y="744" type="line"/>
      <point x="470" y="744" type="line"/>
    </contour>
    <component base="u"/>
    <component base="dieresis" xOffset="-6"/>
  </outline>
</glyph>
<glyph name="uni01EA" format="1">
  <advance width="612"/>
  <unicode hex="01EA"/>
  <outline>
    <contour>
      <point x="60" y="272" type="line" smooth="yes"/>
      <point x="60" y="101"/>
      <point x="138" y="3"/>
      <point x="270" y="-12" type="curve"/>
      <point x="258" y="-66" type="line" smooth="yes"/>
      <point x="256" y="-76"/>
      <point x="255" y="-83"/>
      <point x="255" y="-90" type="curve" smooth="yes"/>
      <point x="255" y="-139"/>
      <point x="294" y="-164"/>
      <point x="333" y="-164" type="curve" smooth="yes"/>
      <point x="389" y="-164" type="line"/>
      <point x="389" y="-98" type="line"/>
      <point x="347" y="-98" type="line" smooth="yes"/>
      <point x="333" y="-98"/>
      <point x="324" y="-90"/>
      <point x="324" y="-76" type="curve" smooth="yes"/>
      <point x="324" y="-75"/>
      <point x="324" y="-73"/>
      <point x="325" y="-68" type="curve" smooth="yes"/>
      <point x="338" y="-12" type="line"/>
      <point x="472" y="0"/>
      <point x="552" y="99"/>
      <point x="552" y="272" type="curve" smooth="yes"/>
      <point x="552" y="428" type="line" smooth="yes"/>
      <point x="552" y="608"/>
      <point x="460" y="714"/>
      <point x="306" y="714" type="curve" smooth="yes"/>
      <point x="152" y="714"/>
      <point x="60" y="608"/>
      <point x="60" y="428" type="curve" smooth="yes"/>
    </contour>
    <contour>
      <point x="306" y="64" type="curve" smooth="yes"/>
      <point x="198" y="64"/>
      <point x="144" y="142"/>
      <point x="144" y="278" type="curve" smooth="yes"/>
      <point x="144" y="422" type="line" smooth="yes"/>
      <point x="144" y="550"/>
      <point x="198" y="636"/>
      <point x="306" y="636" type="curve" smooth="yes"/>
      <point x="414" y="636"/>
      <point x="468" y="550"/>
      <point x="468" y="422" type="curve" smooth="yes"/>
      <point x="468" y="278" type="line" smooth="yes"/>
      <point x="468" y="142"/>
      <point x="414" y="64"/>
    </contour>
  </outline>
</glyph>
<glyph name="uni01EB" format="1">
  <advance width="612"/>
  <unicode hex="01EB"/>
  <outline>
    <contour>
      <point x="555" y="254" type="line" smooth="yes"/>
      <point x="555" y="416"/>
      <point x="437" y="510"/>
      <point x="306" y="510" type="curve" smooth="yes"/>
      <point x="175" y="510"/>
      <point x="57" y="416"/>
      <point x="57" y="254" type="curve" smooth="yes"/>
      <point x="57" y="242" type="line" smooth="yes"/>
      <point x="57" y="92"/>
      <point x="154" y="3"/>
      <point x="271" y="-12" type="curve"/>
      <point x="259" y="-66" type="line" smooth="yes"/>
      <point x="257" y="-76"/>
      <point x="256" y="-83"/>
      <point x="256" y="-90" type="curve" smooth="yes"/>
      <point x="256" y="-139"/>
      <point x="295" y="-164"/>
      <point x="334" y="-164" type="curve" smooth="yes"/>
      <point x="390" y="-164" type="line"/>
      <point x="390" y="-98" type="line"/>
      <point x="348" y="-98" type="line" smooth="yes"/>
      <point x="334" y="-98"/>
      <point x="325" y="-90"/>
      <point x="325" y="-76" type="curve" smooth="yes"/>
      <point x="325" y="-75"/>
      <point x="325" y="-73"/>
      <point x="326" y="-68" type="curve" smooth="yes"/>
      <point x="339" y="-12" type="line"/>
      <point x="457" y="2"/>
      <point x="555" y="92"/>
      <point x="555" y="242" type="curve" smooth="yes"/>
    </contour>
    <contour>
      <point x="306" y="60" type="curve" smooth="yes"/>
      <point x="211" y="60"/>
      <point x="137" y="130"/>
      <point x="137" y="242" type="curve" smooth="yes"/>
      <point x="137" y="254" type="line" smooth="yes"/>
      <point x="137" y="362"/>
      <point x="212" y="436"/>
      <point x="306" y="436" type="curve" smooth="yes"/>
      <point x="400" y="436"/>
      <point x="475" y="362"/>
      <point x="475" y="254" type="curve" smooth="yes"/>
      <point x="475" y="242" type="line" smooth="yes"/>
      <point x="475" y="130"/>
      <point x="401" y="60"/>
    </contour>
  </outline>
</glyph>
<glyph name="uni0259" format="1">
  <advance width="612"/>
  <unicode hex="0259"/>
  <outline>
    <contour>
      <point x="66" y="272" type="line"/>
      <point x="66" y="214" type="line" smooth="yes"/>
      <point x="66" y="120"/>
      <point x="135" y="-14"/>
      <point x="300" y="-14" type="curve" smooth="yes"/>
      <point x="441" y="-14"/>
      <point x="544" y="92"/>
      <point x="544" y="232" type="curve" smooth="yes"/>
      <point x="544" y="256" type="line" smooth="yes"/>
      <point x="544" y="412"/>
      <point x="440" y="510"/>
      <point x="300" y="510" type="curve" smooth="yes"/>
      <point x="191" y="510"/>
      <point x="117" y="454"/>
      <point x="77" y="362" type="curve"/>
      <point x="147" y="332" type="line"/>
      <point x="168" y="384"/>
      <point x="211" y="436"/>
      <point x="299" y="436" type="curve" smooth="yes"/>
      <point x="399" y="436"/>
      <point x="462" y="370"/>
      <point x="466" y="272" type="curve"/>
    </contour>
    <contour>
      <point x="300" y="60" type="curve" smooth="yes"/>
      <point x="222" y="60"/>
      <point x="148" y="114"/>
      <point x="144" y="200" type="curve"/>
      <point x="464" y="200" type="line"/>
      <point x="454" y="120"/>
      <point x="388" y="60"/>
    </contour>
  </outline>
</glyph>
<glyph name="uni0265" format="1">
  <advance width="612"/>
  <unicode hex="0265"/>
  <outline>
    <contour>
      <point x="446" y="238" type="line" smooth="yes"/>
      <point x="446" y="130"/>
      <point x="388" y="60"/>
      <point x="294" y="60" type="curve" smooth="yes"/>
      <point x="214" y="60"/>
      <point x="164" y="112"/>
      <point x="164" y="216" type="curve" smooth="yes"/>
      <point x="164" y="496" type="line"/>
      <point x="86" y="496" type="line"/>
      <point x="86" y="200" type="line" smooth="yes"/>
      <point x="86" y="58"/>
      <point x="160" y="-14"/>
      <point x="268" y="-14" type="curve" smooth="yes"/>
      <point x="348" y="-14"/>
      <point x="404" y="26"/>
      <point x="434" y="90" type="curve"/>
      <point x="446" y="90" type="line"/>
      <point x="446" y="-200" type="line"/>
      <point x="524" y="-200" type="line"/>
      <point x="524" y="496" type="line"/>
      <point x="446" y="496" type="line"/>
    </contour>
  </outline>
</glyph>
<glyph name="uni0287" format="1">
  <advance width="612"/>
  <unicode hex="0287"/>
  <outline>
    <contour>
      <point x="528" y="72" type="line"/>
      <point x="372" y="72" type="line"/>
      <point x="372" y="418" type="line" smooth="yes"/>
      <point x="372" y="463"/>
      <point x="340" y="496"/>
      <point x="295" y="496" type="curve" smooth="yes"/>
      <point x="126" y="496" type="line"/>
      <point x="126" y="424" type="line"/>
      <point x="267" y="424" type="line" smooth="yes"/>
      <point x="286" y="424"/>
      <point x="294" y="413"/>
      <point x="294" y="394" type="curve" smooth="yes"/>
      <point x="294" y="72" type="line"/>
      <point x="102" y="72" type="line"/>
      <point x="102" y="0" type="line"/>
      <point x="294" y="0" type="line"/>
      <point x="294" y="-200" type="line"/>
      <point x="372" y="-200" type="line"/>
      <point x="372" y="0" type="line"/>
      <point x="528" y="0" type="line"/>
    </contour>
  </outline>
</glyph>
<glyph name="uni028E" format="1">
  <advance width="612"/>
  <unicode hex="028E"/>
  <outline>
    <contour>
      <point x="56" y="0" type="line"/>
      <point x="148" y="0" type="line"/>
      <point x="300" y="436" type="line"/>
      <point x="312" y="436" type="line"/>
      <point x="464" y="0" type="line"/>
      <point x="556" y="0" type="line"/>
      <point x="375" y="496" type="line"/>
      <point x="345" y="496" type="line"/>
      <point x="345" y="598" type="line" smooth="yes"/>
      <point x="345" y="617"/>
      <point x="353" y="628"/>
      <point x="372" y="628" type="curve" smooth="yes"/>
      <point x="538" y="628" type="line"/>
      <point x="538" y="700" type="line"/>
      <point x="344" y="700" type="line" smooth="yes"/>
      <point x="299" y="700"/>
      <point x="267" y="667"/>
      <point x="267" y="622" type="curve" smooth="yes"/>
      <point x="267" y="496" type="line"/>
      <point x="237" y="496" type="line"/>
    </contour>
  </outline>
</glyph>
<glyph name="caron" format="1">
  <advance width="612"/>
  <unicode hex="02C7"/>
  <outline>
    <contour>
      <point x="364" y="688" type="line"/>
      <point x="312" y="600" type="line"/>
      <point x="300" y="600" type="line"/>
      <point x="248" y="688" type="line"/>
      <point x="164" y="688" type="line"/>
      <point x="244" y="570" type="line"/>
      <point x="368" y="570" type="line"/>
      <point x="448" y="688" type="line"/>
    </contour>
  </outline>
</glyph>
<glyph name="uni02C9" format="1">
  <advance width="612"/>
  <unicode hex="02C9"/>
  <outline>
    <contour>
      <point x="447" y="636" type="line"/>
      <point x="165" y="636" type="line"/>
      <point x="165" y="570" type="line"/>
      <point x="447" y="570" type="line"/>
    </contour>
  </outline>
</glyph>
<glyph name="dotaccent" format="1">
  <advance width="612"/>
  <unicode hex="02D9"/>
  <outline>
    <contour>
      <point x="236" y="644" type="curve" smooth="yes"/>
      <point x="236" y="606"/>
      <point x="268" y="574"/>
      <point x="306" y="574" type="curve" smooth="yes"/>
      <point x="344" y="574"/>
      <point x="376" y="606"/>
      <point x="376" y="644" type="curve" smooth="yes"/>
      <point x="376" y="682"/>
      <point x="344" y="714"/>
      <point x="306" y="714" type="curve" smooth="yes"/>
      <point x="268" y="714"/>
      <point x="236" y="682"/>
    </contour>
  </outline>
</glyph>
<glyph name="ring" format="1">
  <advance width="612"/>
  <unicode hex="02DA"/>
  <outline>
    <contour>
      <point x="204" y="672" type="curve"/>
      <point x="204" y="615"/>
      <point x="249" y="570"/>
      <point x="306" y="570" type="curve" smooth="yes"/>
      <point x="363" y="570"/>
      <point x="408" y="615"/>
      <point x="408" y="672" type="curve" smooth="yes"/>
      <point x="408" y="729"/>
      <point x="363" y="774"/>
      <point x="306" y="774" type="curve" smooth="yes"/>
      <point x="249" y="774"/>
      <point x="204" y="729"/>
    </contour>
    <contour>
      <point x="264" y="672" type="curve"/>
      <point x="264" y="696"/>
      <point x="282" y="714"/>
      <point x="306" y="714" type="curve" smooth="yes"/>
      <point x="330" y="714"/>
      <point x="348" y="696"/>
      <point x="348" y="672" type="curve" smooth="yes"/>
      <point x="348" y="648"/>
      <point x="330" y="630"/>
      <point x="306" y="630" type="curve" smooth="yes"/>
      <point x="282" y="630"/>
      <point x="264" y="648"/>
    </contour>
  </outline>
</glyph>
<glyph name="hungarumlaut" format="1">
  <advance width="612"/>
  <unicode hex="02DD"/>
  <outline>
    <contour>
      <point x="224" y="688" type="line"/>
      <point x="158" y="570" type="line"/>
      <point x="230" y="570" type="line"/>
      <point x="314" y="688" type="line"/>
    </contour>
    <contour>
      <point x="368" y="688" type="line"/>
      <point x="302" y="570" type="line"/>
      <point x="374" y="570" type="line"/>
      <point x="458" y="688" type="line"/>
    </contour>
  </outline>
</glyph>
<glyph name="uni031B" format="1">
  <advance width="612"/>
  <unicode hex="031B"/>
  <outline>
    <contour>
      <point x="254" y="630" type="curve" smooth="yes"/>
      <point x="254" y="592"/>
      <point x="286" y="560"/>
      <point x="323" y="560" type="curve" smooth="yes"/>
      <point x="329" y="560"/>
      <point x="335" y="561"/>
      <point x="340" y="563" type="curve"/>
      <point x="340" y="538" type="line" smooth="yes"/>
      <point x="340" y="519"/>
      <point x="332" y="508"/>
      <point x="313" y="508" type="curve" smooth="yes"/>
      <point x="218" y="508" type="line"/>
      <point x="218" y="454" type="line"/>
      <point x="317" y="454" type="line" smooth="yes"/>
      <point x="362" y="454"/>
      <point x="394" y="487"/>
      <point x="394" y="532" type="curve" smooth="yes"/>
      <point x="394" y="630" type="line" smooth="yes"/>
      <point x="394" y="668"/>
      <point x="362" y="700"/>
      <point x="324" y="700" type="curve" smooth="yes"/>
      <point x="286" y="700"/>
      <point x="254" y="668"/>
    </contour>
  </outline>
</glyph>
<glyph name="uni1EA2" format="1">
  <advance width="612"/>
  <unicode hex="1EA2"/>
  <outline>
    <contour>
      <point x="272" y="750" type="line"/>
      <point x="252" y="842" type="line"/>
      <point x="252" y="848" type="line"/>
      <point x="328" y="848" type="line"/>
      <point x="332" y="840"/>
      <point x="341" y="834"/>
      <point x="353" y="834" type="curve" smooth="yes"/>
      <point x="372" y="834"/>
      <point x="388" y="848"/>
      <point x="388" y="872" type="curve" smooth="yes"/>
      <point x="388" y="901"/>
      <point x="368" y="914"/>
      <point x="348" y="914" type="curve" smooth="yes"/>
      <point x="319" y="914"/>
      <point x="304" y="894"/>
      <point x="300" y="874" type="curve"/>
      <point x="252" y="892" type="line"/>
      <point x="262" y="932"/>
      <point x="292" y="962"/>
      <point x="349" y="962" type="curve" smooth="yes"/>
      <point x="401" y="962"/>
      <point x="442" y="926"/>
      <point x="442" y="871" type="curve" smooth="yes"/>
      <point x="442" y="825"/>
      <point x="412" y="786"/>
      <point x="366" y="786" type="curve" smooth="yes"/>
      <point x="338" y="786"/>
      <point x="320" y="798"/>
      <point x="312" y="818" type="curve"/>
      <point x="306" y="818" type="line"/>
      <point x="321" y="750" type="line"/>
    </contour>
    <component base="A"/>
  </outline>
</glyph>
<glyph name="uni1EA8" format="1">
  <advance width="612"/>
  <unicode hex="1EA8"/>
  <outline>
    <contour>
      <point x="424" y="858" type="line"/>
      <point x="404" y="950" type="line"/>
      <point x="404" y="956" type="line"/>
      <point x="480" y="956" type="line"/>
      <point x="484" y="948"/>
      <point x="493" y="942"/>
      <point x="505" y="942" type="curve" smooth="yes"/>
      <point x="524" y="942"/>
      <point x="540" y="956"/>
      <point x="540" y="980" type="curve" smooth="yes"/>
      <point x="540" y="1009"/>
      <point x="520" y="1022"/>
      <point x="500" y="1022" type="curve" smooth="yes"/>
      <point x="471" y="1022"/>
      <point x="456" y="1002"/>
      <point x="452" y="982" type="curve"/>
      <point x="404" y="1000" type="line"/>
      <point x="414" y="1040"/>
      <point x="444" y="1070"/>
      <point x="501" y="1070" type="curve" smooth="yes"/>
      <point x="553" y="1070"/>
      <point x="594" y="1034"/>
      <point x="594" y="979" type="curve" smooth="yes"/>
      <point x="594" y="933"/>
      <point x="564" y="894"/>
      <point x="518" y="894" type="curve" smooth="yes"/>
      <point x="490" y="894"/>
      <point x="472" y="906"/>
      <point x="464" y="926" type="curve"/>
      <point x="458" y="926" type="line"/>
      <point x="473" y="858" type="line"/>
    </contour>
    <component base="A"/>
    <component base="circumflex" yOffset="204"/>
  </outline>
</glyph>
<glyph name="uni1EA9" format="1">
  <advance width="612"/>
  <unicode hex="1EA9"/>
  <outline>
    <contour>
      <point x="396" y="658" type="line"/>
      <point x="376" y="750" type="line"/>
      <point x="376" y="756" type="line"/>
      <point x="452" y="756" type="line"/>
      <point x="456" y="748"/>
      <point x="465" y="742"/>
      <point x="477" y="742" type="curve" smooth="yes"/>
      <point x="496" y="742"/>
      <point x="512" y="756"/>
      <point x="512" y="780" type="curve" smooth="yes"/>
      <point x="512" y="809"/>
      <point x="492" y="822"/>
      <point x="472" y="822" type="curve" smooth="yes"/>
      <point x="443" y="822"/>
      <point x="428" y="802"/>
      <point x="424" y="782" type="curve"/>
      <point x="376" y="800" type="line"/>
      <point x="386" y="840"/>
      <point x="416" y="870"/>
      <point x="473" y="870" type="curve" smooth="yes"/>
      <point x="525" y="870"/>
      <point x="566" y="834"/>
      <point x="566" y="779" type="curve" smooth="yes"/>
      <point x="566" y="733"/>
      <point x="536" y="694"/>
      <point x="490" y="694" type="curve" smooth="yes"/>
      <point x="462" y="694"/>
      <point x="444" y="706"/>
      <point x="436" y="726" type="curve"/>
      <point x="430" y="726" type="line"/>
      <point x="445" y="658" type="line"/>
    </contour>
    <component base="a"/>
    <component base="circumflex" xOffset="-29"/>
  </outline>
</glyph>
<glyph name="uni1EB3" format="1">
  <advance width="612"/>
  <unicode hex="1EB3"/>
  <outline>
    <contour>
      <point x="252" y="718" type="line"/>
      <point x="232" y="810" type="line"/>
      <point x="232" y="816" type="line"/>
      <point x="308" y="816" type="line"/>
      <point x="312" y="808"/>
      <point x="321" y="802"/>
      <point x="333" y="802" type="curve" smooth="yes"/>
      <point x="352" y="802"/>
      <point x="368" y="816"/>
      <point x="368" y="840" type="curve" smooth="yes"/>
      <point x="368" y="869"/>
      <point x="348" y="882"/>
      <point x="328" y="882" type="curve" smooth="yes"/>
      <point x="299" y="882"/>
      <point x="284" y="862"/>
      <point x="280" y="842" type="curve"/>
      <point x="232" y="860" type="line"/>
      <point x="242" y="900"/>
      <point x="272" y="930"/>
      <point x="329" y="930" type="curve" smooth="yes"/>
      <point x="381" y="930"/>
      <point x="422" y="894"/>
      <point x="422" y="839" type="curve" smooth="yes"/>
      <point x="422" y="793"/>
      <point x="392" y="754"/>
      <point x="346" y="754" type="curve" smooth="yes"/>
      <point x="318" y="754"/>
      <point x="300" y="766"/>
      <point x="292" y="786" type="curve"/>
      <point x="286" y="786" type="line"/>
      <point x="301" y="718" type="line"/>
    </contour>
    <component base="a"/>
    <component base="breve" xOffset="-29"/>
  </outline>
</glyph>
<glyph name="uni1EBA" format="1">
  <advance width="612"/>
  <unicode hex="1EBA"/>
  <outline>
    <contour>
      <point x="253" y="750" type="line"/>
      <point x="233" y="842" type="line"/>
      <point x="233" y="848" type="line"/>
      <point x="309" y="848" type="line"/>
      <point x="313" y="840"/>
      <point x="322" y="834"/>
      <point x="334" y="834" type="curve" smooth="yes"/>
      <point x="353" y="834"/>
      <point x="369" y="848"/>
      <point x="369" y="872" type="curve" smooth="yes"/>
      <point x="369" y="901"/>
      <point x="349" y="914"/>
      <point x="329" y="914" type="curve" smooth="yes"/>
      <point x="300" y="914"/>
      <point x="285" y="894"/>
      <point x="281" y="874" type="curve"/>
      <point x="233" y="892" type="line"/>
      <point x="243" y="932"/>
      <point x="273" y="962"/>
      <point x="330" y="962" type="curve" smooth="yes"/>
      <point x="382" y="962"/>
      <point x="423" y="926"/>
      <point x="423" y="871" type="curve" smooth="yes"/>
      <point x="423" y="825"/>
      <point x="393" y="786"/>
      <point x="347" y="786" type="curve" smooth="yes"/>
      <point x="319" y="786"/>
      <point x="301" y="798"/>
      <point x="293" y="818" type="curve"/>
      <point x="287" y="818" type="line"/>
      <point x="302" y="750" type="line"/>
    </contour>
    <component base="E"/>
  </outline>
</glyph>
<glyph name="uni1EC2" format="1">
  <advance width="612"/>
  <unicode hex="1EC2"/>
  <outline>
    <contour>
      <point x="430" y="858" type="line"/>
      <point x="410" y="950" type="line"/>
      <point x="410" y="956" type="line"/>
      <point x="486" y="956" type="line"/>
      <point x="490" y="948"/>
      <point x="499" y="942"/>
      <point x="511" y="942" type="curve" smooth="yes"/>
      <point x="530" y="942"/>
      <point x="546" y="956"/>
      <point x="546" y="980" type="curve" smooth="yes"/>
      <point x="546" y="1009"/>
      <point x="526" y="1022"/>
      <point x="506" y="1022" type="curve" smooth="yes"/>
      <point x="477" y="1022"/>
      <point x="462" y="1002"/>
      <point x="458" y="982" type="curve"/>
      <point x="410" y="1000" type="line"/>
      <point x="420" y="1040"/>
      <point x="450" y="1070"/>
      <point x="507" y="1070" type="curve" smooth="yes"/>
      <point x="559" y="1070"/>
      <point x="600" y="1034"/>
      <point x="600" y="979" type="curve" smooth="yes"/>
      <point x="600" y="933"/>
      <point x="570" y="894"/>
      <point x="524" y="894" type="curve" smooth="yes"/>
      <point x="496" y="894"/>
      <point x="478" y="906"/>
      <point x="470" y="926" type="curve"/>
      <point x="464" y="926" type="line"/>
      <point x="479" y="858" type="line"/>
    </contour>
    <component base="E"/>
    <component base="circumflex" xOffset="3" yOffset="204"/>
  </outline>
</glyph>
<glyph name="uni1EC3" format="1">
  <advance width="612"/>
  <unicode hex="1EC3"/>
  <outline>
    <contour>
      <point x="427" y="658" type="line"/>
      <point x="407" y="750" type="line"/>
      <point x="407" y="756" type="line"/>
      <point x="483" y="756" type="line"/>
      <point x="487" y="748"/>
      <point x="496" y="742"/>
      <point x="508" y="742" type="curve" smooth="yes"/>
      <point x="527" y="742"/>
      <point x="543" y="756"/>
      <point x="543" y="780" type="curve" smooth="yes"/>
      <point x="543" y="809"/>
      <point x="523" y="822"/>
      <point x="503" y="822" type="curve" smooth="yes"/>
      <point x="474" y="822"/>
      <point x="459" y="802"/>
      <point x="455" y="782" type="curve"/>
      <point x="407" y="800" type="line"/>
      <point x="417" y="840"/>
      <point x="447" y="870"/>
      <point x="504" y="870" type="curve" smooth="yes"/>
      <point x="556" y="870"/>
      <point x="597" y="834"/>
      <point x="597" y="779" type="curve" smooth="yes"/>
      <point x="597" y="733"/>
      <point x="567" y="694"/>
      <point x="521" y="694" type="curve" smooth="yes"/>
      <point x="493" y="694"/>
      <point x="475" y="706"/>
      <point x="467" y="726" type="curve"/>
      <point x="461" y="726" type="line"/>
      <point x="476" y="658" type="line"/>
    </contour>
    <component base="e" xOffset="-1"/>
    <component base="circumflex" xOffset="3"/>
  </outline>
</glyph>
<glyph name="uni1EC9" format="1">
  <advance width="612"/>
  <unicode hex="1EC9"/>
  <outline>
    <contour>
      <point x="281" y="546" type="line"/>
      <point x="261" y="638" type="line"/>
      <point x="261" y="644" type="line"/>
      <point x="337" y="644" type="line"/>
      <point x="341" y="636"/>
      <point x="350" y="630"/>
      <point x="362" y="630" type="curve" smooth="yes"/>
      <point x="381" y="630"/>
      <point x="397" y="644"/>
      <point x="397" y="668" type="curve" smooth="yes"/>
      <point x="397" y="697"/>
      <point x="377" y="710"/>
      <point x="357" y="710" type="curve" smooth="yes"/>
      <point x="328" y="710"/>
      <point x="313" y="690"/>
      <point x="309" y="670" type="curve"/>
      <point x="261" y="688" type="line"/>
      <point x="271" y="728"/>
      <point x="301" y="758"/>
      <point x="358" y="758" type="curve" smooth="yes"/>
      <point x="410" y="758"/>
      <point x="451" y="722"/>
      <point x="451" y="667" type="curve" smooth="yes"/>
      <point x="451" y="621"/>
      <point x="421" y="582"/>
      <point x="375" y="582" type="curve" smooth="yes"/>
      <point x="347" y="582"/>
      <point x="329" y="594"/>
      <point x="321" y="614" type="curve"/>
      <point x="315" y="614" type="line"/>
      <point x="330" y="546" type="line"/>
    </contour>
    <component base="dotlessi"/>
  </outline>
</glyph>
<glyph name="uni1ED5" format="1">
  <advance width="612"/>
  <unicode hex="1ED5"/>
  <outline>
    <contour>
      <point x="424" y="658" type="line"/>
      <point x="404" y="750" type="line"/>
      <point x="404" y="756" type="line"/>
      <point x="480" y="756" type="line"/>
      <point x="484" y="748"/>
      <point x="493" y="742"/>
      <point x="505" y="742" type="curve" smooth="yes"/>
      <point x="524" y="742"/>
      <point x="540" y="756"/>
      <point x="540" y="780" type="curve" smooth="yes"/>
      <point x="540" y="809"/>
      <point x="520" y="822"/>
      <point x="500" y="822" type="curve" smooth="yes"/>
      <point x="471" y="822"/>
      <point x="456" y="802"/>
      <point x="452" y="782" type="curve"/>
      <point x="404" y="800" type="line"/>
      <point x="414" y="840"/>
      <point x="444" y="870"/>
      <point x="501" y="870" type="curve" smooth="yes"/>
      <point x="553" y="870"/>
      <point x="594" y="834"/>
      <point x="594" y="779" type="curve" smooth="yes"/>
      <point x="594" y="733"/>
      <point x="564" y="694"/>
      <point x="518" y="694" type="curve" smooth="yes"/>
      <point x="490" y="694"/>
      <point x="472" y="706"/>
      <point x="464" y="726" type="curve"/>
      <point x="458" y="726" type="line"/>
      <point x="473" y="658" type="line"/>
    </contour>
    <component base="o"/>
    <component base="circumflex"/>
  </outline>
</glyph>
<glyph name="uni1EE7" format="1">
  <advance width="612"/>
  <unicode hex="1EE7"/>
  <outline>
    <contour>
      <point x="266" y="546" type="line"/>
      <point x="246" y="638" type="line"/>
      <point x="246" y="644" type="line"/>
      <point x="322" y="644" type="line"/>
      <point x="326" y="636"/>
      <point x="335" y="630"/>
      <point x="347" y="630" type="curve" smooth="yes"/>
      <point x="366" y="630"/>
      <point x="382" y="644"/>
      <point x="382" y="668" type="curve" smooth="yes"/>
      <point x="382" y="697"/>
      <point x="362" y="710"/>
      <point x="342" y="710" type="curve" smooth="yes"/>
      <point x="313" y="710"/>
      <point x="298" y="690"/>
      <point x="294" y="670" type="curve"/>
      <point x="246" y="688" type="line"/>
      <point x="256" y="728"/>
      <point x="286" y="758"/>
      <point x="343" y="758" type="curve" smooth="yes"/>
      <point x="395" y="758"/>
      <point x="436" y="722"/>
      <point x="436" y="667" type="curve" smooth="yes"/>
      <point x="436" y="621"/>
      <point x="406" y="582"/>
      <point x="360" y="582" type="curve" smooth="yes"/>
      <point x="332" y="582"/>
      <point x="314" y="594"/>
      <point x="306" y="614" type="curve"/>
      <point x="300" y="614" type="line"/>
      <point x="315" y="546" type="line"/>
    </contour>
    <component base="u"/>
  </outline>
</glyph>
<glyph name="uni1EF6" format="1">
  <advance width="612"/>
  <unicode hex="1EF6"/>
  <outline>
    <contour>
      <point x="278" y="750" type="line"/>
      <point x="258" y="842" type="line"/>
      <point x="258" y="848" type="line"/>
      <point x="334" y="848" type="line"/>
      <point x="338" y="840"/>
      <point x="347" y="834"/>
      <point x="359" y="834" type="curve" smooth="yes"/>
      <point x="378" y="834"/>
      <point x="394" y="848"/>
      <point x="394" y="872" type="curve" smooth="yes"/>
      <point x="394" y="901"/>
      <point x="374" y="914"/>
      <point x="354" y="914" type="curve" smooth="yes"/>
      <point x="325" y="914"/>
      <point x="310" y="894"/>
      <point x="306" y="874" type="curve"/>
      <point x="258" y="892" type="line"/>
      <point x="268" y="932"/>
      <point x="298" y="962"/>
      <point x="355" y="962" type="curve" smooth="yes"/>
      <point x="407" y="962"/>
      <point x="448" y="926"/>
      <point x="448" y="871" type="curve" smooth="yes"/>
      <point x="448" y="825"/>
      <point x="418" y="786"/>
      <point x="372" y="786" type="curve" smooth="yes"/>
      <point x="344" y="786"/>
      <point x="326" y="798"/>
      <point x="318" y="818" type="curve"/>
      <point x="312" y="818" type="line"/>
      <point x="327" y="750" type="line"/>
    </contour>
    <component base="Y"/>
  </outline>
</glyph>
<glyph name="quoteright" format="1">
  <advance width="612"/>
  <unicode hex="2019"/>
  <outline>
    <contour>
      <point x="236" y="644" type="curve" smooth="yes"/>
      <point x="236" y="606"/>
      <point x="268" y="574"/>
      <point x="305" y="574" type="curve" smooth="yes"/>
      <point x="311" y="574"/>
      <point x="317" y="575"/>
      <point x="322" y="577" type="curve"/>
      <point x="322" y="552" type="line" smooth="yes"/>
      <point x="322" y="533"/>
      <point x="314" y="522"/>
      <point x="295" y="522" type="curve" smooth="yes"/>
      <point x="248" y="522" type="line"/>
      <point x="248" y="468" type="line"/>
      <point x="299" y="468" type="line" smooth="yes"/>
      <point x="344" y="468"/>
      <point x="376" y="501"/>
      <point x="376" y="546" type="curve" smooth="yes"/>
      <point x="376" y="644" type="line" smooth="yes"/>
      <point x="376" y="682"/>
      <point x="344" y="714"/>
      <point x="306" y="714" type="curve" smooth="yes"/>
      <point x="268" y="714"/>
      <point x="236" y="682"/>
    </contour>
  </outline>
</glyph>
<glyph name="quotesinglbase" format="1">
  <advance width="612"/>
  <unicode hex="201A"/>
  <outline>
    <contour>
      <point x="236" y="70" type="curve"/>
      <point x="236" y="32"/>
      <point x="268" y="0"/>
      <point x="305" y="0" type="curve" smooth="yes"/>
      <point x="311" y="0"/>
      <point x="317" y="1"/>
      <point x="322" y="3" type="curve"/>
      <point x="322" y="-22" type="line" smooth="yes"/>
      <point x="322" y="-41"/>
      <point x="314" y="-52"/>
      <point x="295" y="-52" type="curve" smooth="yes"/>
      <point x="248" y="-52" type="line"/>
      <point x="248" y="-106" type="line"/>
      <point x="299" y="-106" type="line" smooth="yes"/>
      <point x="344" y="-106"/>
      <point x="376" y="-73"/>
      <point x="376" y="-28" type="curve" smooth="yes"/>
      <point x="376" y="70" type="line" smooth="yes"/>
      <point x="376" y="108"/>
      <point x="344" y="140"/>
      <point x="306" y="140" type="curve" smooth="yes"/>
      <point x="268" y="140"/>
      <point x="236" y="108"/>
    </contour>
  </outline>
</glyph>
<glyph name="quotedblleft" format="1">
  <advance width="612"/>
  <unicode hex="201C"/>
  <outline>
    <contour>
      <point x="285" y="538" type="curve" smooth="yes"/>
      <point x="285" y="576"/>
      <point x="253" y="608"/>
      <point x="216" y="608" type="curve" smooth="yes"/>
      <point x="210" y="608"/>
      <point x="204" y="607"/>
      <point x="199" y="605" type="curve"/>
      <point x="199" y="630" type="line" smooth="yes"/>
      <point x="199" y="649"/>
      <point x="207" y="660"/>
      <point x="226" y="660" type="curve" smooth="yes"/>
      <point x="273" y="660" type="line"/>
      <point x="273" y="714" type="line"/>
      <point x="222" y="714" type="line" smooth="yes"/>
      <point x="177" y="714"/>
      <point x="145" y="681"/>
      <point x="145" y="636" type="curve" smooth="yes"/>
      <point x="145" y="538" type="line" smooth="yes"/>
      <point x="145" y="500"/>
      <point x="177" y="468"/>
      <point x="215" y="468" type="curve" smooth="yes"/>
      <point x="253" y="468"/>
      <point x="285" y="500"/>
    </contour>
    <contour>
      <point x="467" y="538" type="curve" smooth="yes"/>
      <point x="467" y="576"/>
      <point x="435" y="608"/>
      <point x="398" y="608" type="curve" smooth="yes"/>
      <point x="392" y="608"/>
      <point x="386" y="607"/>
      <point x="381" y="605" type="curve"/>
      <point x="381" y="630" type="line" smooth="yes"/>
      <point x="381" y="649"/>
      <point x="389" y="660"/>
      <point x="408" y="660" type="curve" smooth="yes"/>
      <point x="455" y="660" type="line"/>
      <point x="455" y="714" type="line"/>
      <point x="404" y="714" type="line" smooth="yes"/>
      <point x="359" y="714"/>
      <point x="327" y="681"/>
      <point x="327" y="636" type="curve" smooth="yes"/>
      <point x="327" y="538" type="line" smooth="yes"/>
      <point x="327" y="500"/>
      <point x="359" y="468"/>
      <point x="397" y="468" type="curve" smooth="yes"/>
      <point x="435" y="468"/>
      <point x="467" y="500"/>
    </contour>
  </outline>
</glyph>
<glyph name="quotedblbase" format="1">
  <advance width="612"/>
  <unicode hex="201E"/>
  <outline>
    <contour>
      <point x="327" y="70" type="curve"/>
      <point x="327" y="32"/>
      <point x="359" y="0"/>
      <point x="396" y="0" type="curve" smooth="yes"/>
      <point x="402" y="0"/>
      <point x="408" y="1"/>
      <point x="413" y="3" type="curve"/>
      <point x="413" y="-22" type="line" smooth="yes"/>
      <point x="413" y="-41"/>
      <point x="405" y="-52"/>
      <point x="386" y="-52" type="curve" smooth="yes"/>
      <point x="339" y="-52" type="line"/>
      <point x="339" y="-106" type="line"/>
      <point x="390" y="-106" type="line" smooth="yes"/>
      <point x="435" y="-106"/>
      <point x="467" y="-73"/>
      <point x="467" y="-28" type="curve" smooth="yes"/>
      <point x="467" y="70" type="line" smooth="yes"/>
      <point x="467" y="108"/>
      <point x="435" y="140"/>
      <point x="397" y="140" type="curve" smooth="yes"/>
      <point x="359" y="140"/>
      <point x="327" y="108"/>
    </contour>
    <contour>
      <point x="145" y="70" type="curve"/>
      <point x="145" y="32"/>
      <point x="177" y="0"/>
      <point x="214" y="0" type="curve" smooth="yes"/>
      <point x="220" y="0"/>
      <point x="226" y="1"/>
      <point x="231" y="3" type="curve"/>
      <point x="231" y="-22" type="line" smooth="yes"/>
      <point x="231" y="-41"/>
      <point x="223" y="-52"/>
      <point x="204" y="-52" type="curve" smooth="yes"/>
      <point x="157" y="-52" type="line"/>
      <point x="157" y="-106" type="line"/>
      <point x="208" y="-106" type="line" smooth="yes"/>
      <point x="253" y="-106"/>
      <point x="285" y="-73"/>
      <point x="285" y="-28" type="curve" smooth="yes"/>
      <point x="285" y="70" type="line" smooth="yes"/>
      <point x="285" y="108"/>
      <point x="253" y="140"/>
      <point x="215" y="140" type="curve" smooth="yes"/>
      <point x="177" y="140"/>
      <point x="145" y="108"/>
    </contour>
  </outline>
</glyph>
<glyph name="uni2032" format="1">
  <advance width="612"/>
  <unicode hex="2032"/>
  <outline>
    <contour>
      <point x="242" y="644" type="curve" smooth="yes"/>
      <point x="242" y="620"/>
      <point x="255" y="598"/>
      <point x="274" y="585" type="curve"/>
      <point x="250" y="479" type="line"/>
      <point x="303" y="468" type="line"/>
      <point x="326" y="575" type="line"/>
      <point x="358" y="582"/>
      <point x="382" y="611"/>
      <point x="382" y="644" type="curve" smooth="yes"/>
      <point x="382" y="682"/>
      <point x="350" y="714"/>
      <point x="312" y="714" type="curve" smooth="yes"/>
      <point x="274" y="714"/>
      <point x="242" y="682"/>
    </contour>
  </outline>
</glyph>
<glyph name="uni2033" format="1">
  <advance width="612"/>
  <unicode hex="2033"/>
  <outline>
    <contour>
      <point x="150" y="644" type="curve" smooth="yes"/>
      <point x="150" y="620"/>
      <point x="163" y="598"/>
      <point x="182" y="585" type="curve"/>
      <point x="158" y="479" type="line"/>
      <point x="211" y="468" type="line"/>
      <point x="234" y="575" type="line"/>
      <point x="266" y="582"/>
      <point x="290" y="611"/>
      <point x="290" y="644" type="curve" smooth="yes"/>
      <point x="290" y="682"/>
      <point x="258" y="714"/>
      <point x="220" y="714" type="curve" smooth="yes"/>
      <point x="182" y="714"/>
      <point x="150" y="682"/>
    </contour>
    <contour>
      <point x="332" y="644" type="curve" smooth="yes"/>
      <point x="332" y="620"/>
      <point x="345" y="598"/>
      <point x="364" y="585" type="curve"/>
      <point x="340" y="479" type="line"/>
      <point x="393" y="468" type="line"/>
      <point x="416" y="575" type="line"/>
      <point x="448" y="582"/>
      <point x="472" y="611"/>
      <point x="472" y="644" type="curve" smooth="yes"/>
      <point x="472" y="682"/>
      <point x="440" y="714"/>
      <point x="402" y="714" type="curve" smooth="yes"/>
      <point x="364" y="714"/>
      <point x="332" y="682"/>
    </contour>
  </outline>
</glyph>
<glyph name="guilsinglright" format="1">
  <advance width="612"/>
  <unicode hex="203A"/>
  <outline>
    <contour>
      <point x="192" y="12" type="line"/>
      <point x="426" y="170" type="line"/>
      <point x="426" y="326" type="line"/>
      <point x="192" y="484" type="line"/>
      <point x="186" y="484" type="line"/>
      <point x="186" y="396" type="line"/>
      <point x="396" y="254" type="line"/>
      <point x="396" y="242" type="line"/>
      <point x="186" y="100" type="line"/>
      <point x="186" y="12" type="line"/>
    </contour>
  </outline>
</glyph>
<glyph name="uni2070" format="1">
  <advance width="612"/>
  <unicode hex="2070"/>
  <outline>
    <contour>
      <point x="410" y="601" type="line" smooth="yes"/>
      <point x="410" y="662"/>
      <point x="374" y="706"/>
      <point x="307" y="706" type="curve" smooth="yes"/>
      <point x="242" y="706"/>
      <point x="202" y="662"/>
      <point x="202" y="601" type="curve" smooth="yes"/>
      <point x="202" y="511" type="line" smooth="yes"/>
      <point x="202" y="450"/>
      <point x="241" y="406"/>
      <point x="307" y="406" type="curve" smooth="yes"/>
      <point x="374" y="406"/>
      <point x="410" y="450"/>
      <point x="410" y="511" type="curve" smooth="yes"/>
    </contour>
    <contour>
      <point x="307" y="454" type="curve" smooth="yes"/>
      <point x="276" y="454"/>
      <point x="256" y="476"/>
      <point x="256" y="505" type="curve" smooth="yes"/>
      <point x="256" y="607" type="line" smooth="yes"/>
      <point x="256" y="636"/>
      <point x="276" y="658"/>
      <point x="307" y="658" type="curve" smooth="yes"/>
      <point x="338" y="658"/>
      <point x="356" y="636"/>
      <point x="356" y="607" type="curve" smooth="yes"/>
      <point x="356" y="505" type="line" smooth="yes"/>
      <point x="356" y="476"/>
      <point x="338" y="454"/>
    </contour>
    <contour>
      <point x="274" y="556" type="curve"/>
      <point x="274" y="538"/>
      <point x="289" y="525"/>
      <point x="306" y="525" type="curve" smooth="yes"/>
      <point x="324" y="525"/>
      <point x="337" y="538"/>
      <point x="337" y="556" type="curve" smooth="yes"/>
      <point x="337" y="574"/>
      <point x="324" y="588"/>
      <point x="306" y="588" type="curve" smooth="yes"/>
      <point x="289" y="588"/>
      <point x="274" y="574"/>
    </contour>
  </outline>
</glyph>
<glyph name="uni2071" format="1">
  <advance width="612"/>
  <unicode hex="2071"/>
  <outline>
    <contour>
      <point x="364" y="785" type="curve"/>
      <point x="364" y="810"/>
      <point x="344" y="830"/>
      <point x="319" y="830" type="curve" smooth="yes"/>
      <point x="294" y="830"/>
      <point x="274" y="810"/>
      <point x="274" y="785" type="curve" smooth="yes"/>
      <point x="274" y="760"/>
      <point x="294" y="740"/>
      <point x="319" y="740" type="curve" smooth="yes"/>
      <point x="344" y="740"/>
      <point x="364" y="760"/>
    </contour>
    <contour>
      <point x="196" y="412" type="line"/>
      <point x="436" y="412" type="line"/>
      <point x="436" y="460" type="line"/>
      <point x="346" y="460" type="line"/>
      <point x="346" y="700" type="line"/>
      <point x="204" y="700" type="line"/>
      <point x="204" y="652" type="line"/>
      <point x="292" y="652" type="line"/>
      <point x="292" y="460" type="line"/>
      <point x="196" y="460" type="line"/>
    </contour>
  </outline>
</glyph>
<glyph name="uni2076" format="1">
  <advance width="612"/>
  <unicode hex="2076"/>
  <outline>
    <contour>
      <point x="401" y="616" type="line"/>
      <point x="401" y="672"/>
      <point x="362" y="706"/>
      <point x="304" y="706" type="curve" smooth="yes"/>
      <point x="247" y="706"/>
      <point x="206" y="670"/>
      <point x="206" y="610" type="curve" smooth="yes"/>
      <point x="206" y="502" type="line" smooth="yes"/>
      <point x="206" y="444"/>
      <point x="247" y="406"/>
      <point x="306" y="406" type="curve" smooth="yes"/>
      <point x="363" y="406"/>
      <point x="406" y="444"/>
      <point x="406" y="506" type="curve" smooth="yes"/>
      <point x="406" y="560"/>
      <point x="373" y="602"/>
      <point x="321" y="602" type="curve" smooth="yes"/>
      <point x="288" y="602"/>
      <point x="273" y="588"/>
      <point x="266" y="572" type="curve"/>
      <point x="260" y="572" type="line"/>
      <point x="260" y="610" type="line" smooth="yes"/>
      <point x="260" y="639"/>
      <point x="275" y="658"/>
      <point x="303" y="658" type="curve" smooth="yes"/>
      <point x="332" y="658"/>
      <point x="347" y="640"/>
      <point x="347" y="616" type="curve"/>
    </contour>
    <contour>
      <point x="306" y="554" type="curve" smooth="yes"/>
      <point x="334" y="554"/>
      <point x="352" y="534"/>
      <point x="352" y="504" type="curve" smooth="yes"/>
      <point x="352" y="474"/>
      <point x="334" y="454"/>
      <point x="306" y="454" type="curve" smooth="yes"/>
      <point x="278" y="454"/>
      <point x="260" y="474"/>
      <point x="260" y="504" type="curve" smooth="yes"/>
      <point x="260" y="534"/>
      <point x="278" y="554"/>
    </contour>
  </outline>
</glyph>
<glyph name="uni207D" format="1">
  <advance width="612"/>
  <unicode hex="207D"/>
  <outline>
    <contour>
      <point x="386" y="351" type="line" smooth="yes"/>
      <point x="314" y="351"/>
      <point x="256" y="410"/>
      <point x="256" y="495" type="curve" smooth="yes"/>
      <point x="256" y="617" type="line" smooth="yes"/>
      <point x="256" y="702"/>
      <point x="314" y="761"/>
      <point x="386" y="761" type="curve" smooth="yes"/>
      <point x="404" y="761" type="line"/>
      <point x="404" y="809" type="line"/>
      <point x="386" y="809" type="line" smooth="yes"/>
      <point x="290" y="809"/>
      <point x="208" y="738"/>
      <point x="208" y="619" type="curve" smooth="yes"/>
      <point x="208" y="493" type="line" smooth="yes"/>
      <point x="208" y="374"/>
      <point x="290" y="303"/>
      <point x="386" y="303" type="curve" smooth="yes"/>
      <point x="404" y="303" type="line"/>
      <point x="404" y="351" type="line"/>
    </contour>
  </outline>
</glyph>
<glyph name="uni207F" format="1">
  <advance width="612"/>
  <unicode hex="207F"/>
  <outline>
    <contour>
      <point x="240" y="566" type="line" smooth="yes"/>
      <point x="240" y="620"/>
      <point x="262" y="658"/>
      <point x="314" y="658" type="curve" smooth="yes"/>
      <point x="360" y="658"/>
      <point x="384" y="630"/>
      <point x="384" y="576" type="curve" smooth="yes"/>
      <point x="384" y="412" type="line"/>
      <point x="438" y="412" type="line"/>
      <point x="438" y="586" type="line" smooth="yes"/>
      <point x="438" y="666"/>
      <point x="398" y="706"/>
      <point x="330" y="706" type="curve" smooth="yes"/>
      <point x="290" y="706"/>
      <point x="261" y="688"/>
      <point x="246" y="660" type="curve"/>
      <point x="240" y="660" type="line"/>
      <point x="240" y="700" type="line"/>
      <point x="186" y="700" type="line"/>
      <point x="186" y="412" type="line"/>
      <point x="240" y="412" type="line"/>
    </contour>
  </outline>
</glyph>
<glyph name="uni208D" format="1">
  <advance width="612"/>
  <unicode hex="208D"/>
  <outline>
    <contour>
      <point x="386" y="-261" type="line" smooth="yes"/>
      <point x="314" y="-261"/>
      <point x="256" y="-202"/>
      <point x="256" y="-117" type="curve" smooth="yes"/>
      <point x="256" y="5" type="line" smooth="yes"/>
      <point x="256" y="90"/>
      <point x="314" y="149"/>
      <point x="386" y="149" type="curve" smooth="yes"/>
      <point x="404" y="149" type="line"/>
      <point x="404" y="197" type="line"/>
      <point x="386" y="197" type="line" smooth="yes"/>
      <point x="290" y="197"/>
      <point x="208" y="126"/>
      <point x="208" y="7" type="curve" smooth="yes"/>
      <point x="208" y="-119" type="line" smooth="yes"/>
      <point x="208" y="-238"/>
      <point x="290" y="-309"/>
      <point x="386" y="-309" type="curve" smooth="yes"/>
      <point x="404" y="-309" type="line"/>
      <point x="404" y="-261" type="line"/>
    </contour>
  </outline>
</glyph>
<glyph name="uni208E" format="1">
  <advance width="612"/>
  <unicode hex="208E"/>
  <outline>
    <contour>
      <point x="208" y="-261" type="line"/>
      <point x="208" y="-309" type="line"/>
      <point x="226" y="-309" type="line" smooth="yes"/>
      <point x="322" y="-309"/>
      <point x="404" y="-238"/>
      <point x="404" y="-119" type="curve" smooth="yes"/>
      <point x="404" y="7" type="line" smooth="yes"/>
      <point x="404" y="126"/>
      <point x="322" y="197"/>
      <point x="226" y="197" type="curve" smooth="yes"/>
      <point x="208" y="197" type="line"/>
      <point x="208" y="149" type="line"/>
      <point x="226" y="149" type="line" smooth="yes"/>
      <point x="298" y="149"/>
      <point x="356" y="90"/>
      <point x="356" y="5" type="curve" smooth="yes"/>
      <point x="356" y="-117" type="line" smooth="yes"/>
      <point x="356" y="-202"/>
      <point x="298" y="-261"/>
      <point x="226" y="-261" type="curve" smooth="yes"/>
    </contour>
  </outline>
</glyph>
<glyph name="uni2094" format="1">
  <advance width="612"/>
  <unicode hex="2094"/>
  <outline>
    <contour>
      <point x="169" y="-42" type="line"/>
      <point x="169" y="-74" type="line" smooth="yes"/>
      <point x="169" y="-130"/>
      <point x="209" y="-206"/>
      <point x="303" y="-206" type="curve" smooth="yes"/>
      <point x="385" y="-206"/>
      <point x="443" y="-146"/>
      <point x="443" y="-65" type="curve" smooth="yes"/>
      <point x="443" y="-51" type="line" smooth="yes"/>
      <point x="443" y="38"/>
      <point x="384" y="94"/>
      <point x="303" y="94" type="curve" smooth="yes"/>
      <point x="242" y="94"/>
      <point x="198" y="62"/>
      <point x="177" y="9" type="curve"/>
      <point x="224" y="-11" type="line"/>
      <point x="236" y="19"/>
      <point x="259" y="46"/>
      <point x="305" y="46" type="curve" smooth="yes"/>
      <point x="350" y="46"/>
      <point x="387" y="13"/>
      <point x="389" y="-42" type="curve"/>
    </contour>
    <contour>
      <point x="303" y="-158" type="curve" smooth="yes"/>
      <point x="255" y="-158"/>
      <point x="227" y="-125"/>
      <point x="223" y="-90" type="curve"/>
      <point x="388" y="-90" type="line"/>
      <point x="380" y="-124"/>
      <point x="356" y="-158"/>
    </contour>
  </outline>
</glyph>
<glyph name="uni20A4" format="1">
  <advance width="612"/>
  <unicode hex="20A4"/>
  <outline>
    <contour>
      <point x="110" y="222" type="line"/>
      <point x="170" y="222" type="line"/>
      <point x="170" y="174" type="line"/>
      <point x="110" y="174" type="line"/>
      <point x="110" y="102" type="line"/>
      <point x="490" y="102" type="line"/>
      <point x="490" y="174" type="line"/>
      <point x="248" y="174" type="line"/>
      <point x="248" y="222" type="line"/>
      <point x="337" y="222" type="line"/>
      <point x="337" y="294" type="line"/>
      <point x="248" y="294" type="line"/>
      <point x="248" y="330" type="line"/>
      <point x="338" y="330" type="line"/>
      <point x="338" y="402" type="line"/>
      <point x="248" y="402" type="line"/>
      <point x="248" y="440" type="line" smooth="yes"/>
      <point x="248" y="508"/>
      <point x="286" y="540"/>
      <point x="336" y="540" type="curve" smooth="yes"/>
      <point x="386" y="540"/>
      <point x="424" y="508"/>
      <point x="424" y="440" type="curve" smooth="yes"/>
      <point x="424" y="416" type="line"/>
      <point x="502" y="416" type="line"/>
      <point x="502" y="440" type="line" smooth="yes"/>
      <point x="502" y="550"/>
      <point x="436" y="612"/>
      <point x="336" y="612" type="curve" smooth="yes"/>
      <point x="232" y="612"/>
      <point x="170" y="550"/>
      <point x="170" y="440" type="curve" smooth="yes"/>
      <point x="170" y="402" type="line"/>
      <point x="110" y="402" type="line"/>
      <point x="110" y="330" type="line"/>
      <point x="170" y="330" type="line"/>
      <point x="170" y="294" type="line"/>
      <point x="110" y="294" type="line"/>
    </contour>
  </outline>
</glyph>
<glyph name="uni20AB" format="1">
  <advance width="612"/>
  <unicode hex="20AB"/>
  <outline>
    <contour>
      <point x="278" y="496" type="line"/>
      <point x="386" y="496" type="line"/>
      <point x="386" y="412" type="line"/>
      <point x="377" y="412" type="line"/>
      <point x="362" y="442"/>
      <point x="328" y="464"/>
      <point x="278" y="464" type="curve" smooth="yes"/>
      <point x="186" y="464"/>
      <point x="110" y="395"/>
      <point x="110" y="281" type="curve" smooth="yes"/>
      <point x="110" y="275" type="line" smooth="yes"/>
      <point x="110" y="155"/>
      <point x="180" y="90"/>
      <point x="274" y="90" type="curve" smooth="yes"/>
      <point x="322" y="90"/>
      <point x="362" y="112"/>
      <point x="377" y="146" type="curve"/>
      <point x="386" y="146" type="line"/>
      <point x="386" y="102" type="line"/>
      <point x="464" y="102" type="line"/>
      <point x="464" y="496" type="line"/>
      <point x="518" y="496" type="line"/>
      <point x="518" y="562" type="line"/>
      <point x="464" y="562" type="line"/>
      <point x="464" y="598" type="line"/>
      <point x="386" y="598" type="line"/>
      <point x="386" y="562" type="line"/>
      <point x="278" y="562" type="line"/>
    </contour>
    <contour>
      <point x="287" y="392" type="curve" smooth="yes"/>
      <point x="347" y="392"/>
      <point x="386" y="347"/>
      <point x="386" y="277" type="curve" smooth="yes"/>
      <point x="386" y="207"/>
      <point x="347" y="162"/>
      <point x="287" y="162" type="curve" smooth="yes"/>
      <point x="227" y="162"/>
      <point x="188" y="207"/>
      <point x="188" y="277" type="curve" smooth="yes"/>
      <point x="188" y="347"/>
      <point x="227" y="392"/>
    </contour>
    <contour>
      <point x="188" y="0" type="line"/>
      <point x="464" y="0" type="line"/>
      <point x="464" y="66" type="line"/>
      <point x="188" y="66" type="line"/>
    </contour>
  </outline>
</glyph>
<glyph name="Euro" format="1">
  <advance width="612"/>
  <unicode hex="20AC"/>
  <outline>
    <contour>
      <point x="36" y="366" type="line"/>
      <point x="84" y="366" type="line"/>
      <point x="84" y="330" type="line"/>
      <point x="36" y="330" type="line"/>
      <point x="36" y="258" type="line"/>
      <point x="96" y="258" type="line"/>
      <point x="129" y="148"/>
      <point x="228" y="88"/>
      <point x="340" y="88" type="curve" smooth="yes"/>
      <point x="470" y="88"/>
      <point x="556" y="168"/>
      <point x="576" y="278" type="curve"/>
      <point x="498" y="296" type="line"/>
      <point x="488" y="228"/>
      <point x="438" y="162"/>
      <point x="340" y="162" type="curve" smooth="yes"/>
      <point x="269" y="162"/>
      <point x="210" y="197"/>
      <point x="181" y="258" type="curve"/>
      <point x="326" y="258" type="line"/>
      <point x="326" y="330" type="line"/>
      <point x="164" y="330" type="line"/>
      <point x="164" y="366" type="line"/>
      <point x="326" y="366" type="line"/>
      <point x="326" y="438" type="line"/>
      <point x="182" y="438" type="line"/>
      <point x="210" y="499"/>
      <point x="269" y="538"/>
      <point x="338" y="538" type="curve" smooth="yes"/>
      <point x="436" y="538"/>
      <point x="488" y="474"/>
      <point x="496" y="404" type="curve"/>
      <point x="574" y="422" type="line"/>
      <point x="556" y="532"/>
      <point x="466" y="612"/>
      <point x="340" y="612" type="curve" smooth="yes"/>
      <point x="228" y="612"/>
      <point x="129" y="547"/>
      <point x="96" y="438" type="curve"/>
      <point x="36" y="438" type="line"/>
    </contour>
  </outline>
</glyph>
<glyph name="uni20B1" format="1">
  <advance width="612"/>
  <unicode hex="20B1"/>
  <outline>
    <contour>
      <point x="86" y="407" type="line"/>
      <point x="146" y="407" type="line"/>
      <point x="146" y="360" type="line"/>
      <point x="86" y="360" type="line"/>
      <point x="86" y="288" type="line"/>
      <point x="146" y="288" type="line"/>
      <point x="146" y="102" type="line"/>
      <point x="224" y="102" type="line"/>
      <point x="224" y="288" type="line"/>
      <point x="534" y="288" type="line"/>
      <point x="534" y="360" type="line"/>
      <point x="441" y="360" type="line"/>
      <point x="441" y="366" type="line"/>
      <point x="456" y="373"/>
      <point x="469" y="392"/>
      <point x="471" y="407" type="curve"/>
      <point x="534" y="407" type="line"/>
      <point x="534" y="479" type="line"/>
      <point x="471" y="479" type="line"/>
      <point x="460" y="545"/>
      <point x="406" y="598"/>
      <point x="318" y="598" type="curve" smooth="yes"/>
      <point x="146" y="598" type="line"/>
      <point x="146" y="479" type="line"/>
      <point x="86" y="479" type="line"/>
    </contour>
    <contour>
      <point x="312" y="360" type="curve"/>
      <point x="224" y="360" type="line"/>
      <point x="224" y="407" type="line"/>
      <point x="390" y="407" type="line"/>
      <point x="379" y="376"/>
      <point x="352" y="360"/>
    </contour>
    <contour>
      <point x="224" y="526" type="line"/>
      <point x="312" y="526" type="line" smooth="yes"/>
      <point x="352" y="526"/>
      <point x="379" y="509"/>
      <point x="390" y="479" type="curve"/>
      <point x="224" y="479" type="line"/>
    </contour>
  </outline>
</glyph>
<glyph name="uni20B5" format="1">
  <advance width="612"/>
  <unicode hex="20B5"/>
  <outline>
    <contour>
      <point x="344" y="672" type="line"/>
      <point x="272" y="672" type="line"/>
      <point x="272" y="609" type="line"/>
      <point x="182" y="594"/>
      <point x="129" y="521"/>
      <point x="129" y="406" type="curve" smooth="yes"/>
      <point x="129" y="294" type="line" smooth="yes"/>
      <point x="129" y="174"/>
      <point x="181" y="104"/>
      <point x="272" y="90" type="curve"/>
      <point x="272" y="28" type="line"/>
      <point x="344" y="28" type="line"/>
      <point x="344" y="91" type="line"/>
      <point x="438" y="106"/>
      <point x="483" y="177"/>
      <point x="483" y="262" type="curve" smooth="yes"/>
      <point x="483" y="280" type="line"/>
      <point x="405" y="280" type="line"/>
      <point x="405" y="262" type="line" smooth="yes"/>
      <point x="405" y="217"/>
      <point x="385" y="178"/>
      <point x="344" y="165" type="curve"/>
      <point x="344" y="535" type="line"/>
      <point x="385" y="521"/>
      <point x="405" y="482"/>
      <point x="405" y="438" type="curve" smooth="yes"/>
      <point x="405" y="420" type="line"/>
      <point x="483" y="420" type="line"/>
      <point x="483" y="438" type="line" smooth="yes"/>
      <point x="483" y="522"/>
      <point x="437" y="594"/>
      <point x="344" y="609" type="curve"/>
    </contour>
    <contour>
      <point x="206" y="292" type="curve"/>
      <point x="206" y="408" type="line" smooth="yes"/>
      <point x="206" y="475"/>
      <point x="228" y="519"/>
      <point x="272" y="534" type="curve"/>
      <point x="272" y="165" type="line"/>
      <point x="228" y="178"/>
      <point x="206" y="219"/>
    </contour>
  </outline>
</glyph>
<glyph name="uni2113" format="1">
  <advance width="612"/>
  <unicode hex="2113"/>
  <outline>
    <contour>
      <point x="308" y="102" type="curve"/>
      <point x="308" y="228" type="line"/>
      <point x="431" y="270"/>
      <point x="512" y="368"/>
      <point x="512" y="522" type="curve" smooth="yes"/>
      <point x="512" y="630"/>
      <point x="464" y="714"/>
      <point x="362" y="714" type="curve" smooth="yes"/>
      <point x="278" y="714"/>
      <point x="230" y="654"/>
      <point x="230" y="576" type="curve" smooth="yes"/>
      <point x="230" y="283" type="line"/>
      <point x="207" y="280"/>
      <point x="183" y="278"/>
      <point x="158" y="278" type="curve" smooth="yes"/>
      <point x="74" y="278" type="line"/>
      <point x="74" y="206" type="line"/>
      <point x="158" y="206" type="line" smooth="yes"/>
      <point x="183" y="206"/>
      <point x="207" y="207"/>
      <point x="230" y="210" type="curve"/>
      <point x="230" y="78" type="line" smooth="yes"/>
      <point x="230" y="33"/>
      <point x="262" y="0"/>
      <point x="307" y="0" type="curve" smooth="yes"/>
      <point x="488" y="0" type="line"/>
      <point x="488" y="72" type="line"/>
      <point x="335" y="72" type="line" smooth="yes"/>
      <point x="316" y="72"/>
      <point x="308" y="83"/>
    </contour>
    <contour>
      <point x="308" y="570" type="line" smooth="yes"/>
      <point x="308" y="618"/>
      <point x="329" y="642"/>
      <point x="362" y="642" type="curve" smooth="yes"/>
      <point x="410" y="642"/>
      <point x="436" y="600"/>
      <point x="436" y="510" type="curve" smooth="yes"/>
      <point x="436" y="414"/>
      <point x="390" y="343"/>
      <point x="308" y="306" type="curve"/>
    </contour>
  </outline>
</glyph>
<glyph name="arrowleft" format="1">
  <advance width="612"/>
  <unicode hex="2190"/>
  <outline>
    <contour>
      <point x="189" y="149" type="line"/>
      <point x="240" y="200" type="line"/>
      <point x="152" y="288" type="line"/>
      <point x="102" y="316" type="line"/>
      <point x="107" y="328" type="line"/>
      <point x="152" y="314" type="line"/>
      <point x="576" y="314" type="line"/>
      <point x="576" y="386" type="line"/>
      <point x="152" y="386" type="line"/>
      <point x="107" y="372" type="line"/>
      <point x="102" y="384" type="line"/>
      <point x="152" y="412" type="line"/>
      <point x="240" y="500" type="line"/>
      <point x="189" y="551" type="line"/>
      <point x="36" y="398" type="line"/>
      <point x="36" y="302" type="line"/>
    </contour>
  </outline>
</glyph>
<glyph name="partialdiff" format="1">
  <advance width="612"/>
  <unicode hex="2202"/>
  <outline>
    <contour>
      <point x="448" y="440" type="curve"/>
      <point x="436" y="440" type="line"/>
      <point x="412" y="480"/>
      <point x="362" y="510"/>
      <point x="294" y="510" type="curve" smooth="yes"/>
      <point x="174" y="510"/>
      <point x="57" y="416"/>
      <point x="57" y="254" type="curve" smooth="yes"/>
      <point x="57" y="242" type="line" smooth="yes"/>
      <point x="57" y="78"/>
      <point x="174" y="-14"/>
      <point x="306" y="-14" type="curve" smooth="yes"/>
      <point x="444" y="-14"/>
      <point x="555" y="79"/>
      <point x="555" y="275" type="curve" smooth="yes"/>
      <point x="555" y="528"/>
      <point x="415" y="683"/>
      <point x="178" y="714" type="curve"/>
      <point x="160" y="640" type="line"/>
      <point x="281" y="628"/>
      <point x="416" y="562"/>
    </contour>
    <contour>
      <point x="306" y="60" type="curve" smooth="yes"/>
      <point x="211" y="60"/>
      <point x="137" y="130"/>
      <point x="137" y="242" type="curve" smooth="yes"/>
      <point x="137" y="254" type="line" smooth="yes"/>
      <point x="137" y="362"/>
      <point x="212" y="436"/>
      <point x="306" y="436" type="curve" smooth="yes"/>
      <point x="400" y="436"/>
      <point x="475" y="362"/>
      <point x="475" y="254" type="curve" smooth="yes"/>
      <point x="475" y="130"/>
      <point x="401" y="60"/>
    </contour>
  </outline>
</glyph>
<glyph name="product" format="1">
  <advance width="612"/>
  <unicode hex="220F"/>
  <outline>
    <contour>
      <point x="73" y="0" type="line"/>
      <point x="157" y="0" type="line"/>
      <point x="157" y="622" type="line"/>
      <point x="455" y="622" type="line"/>
      <point x="455" y="0" type="line"/>
      <point x="539" y="0" type="line"/>
      <point x="539" y="700" type="line"/>
      <point x="73" y="700" type="line"/>
    </contour>
  </outline>
</glyph>
<glyph name="D.alt" format="1">
  <advance width="612"/>
  <outline>
    <contour>
      <point x="98" y="0" type="line"/>
      <point x="280" y="0" type="line" smooth="yes"/>
      <point x="452" y="0"/>
      <point x="530" y="80"/>
      <point x="530" y="260" type="curve" smooth="yes"/>
      <point x="530" y="440" type="line" smooth="yes"/>
      <point x="530" y="620"/>
      <point x="452" y="700"/>
      <point x="280" y="700" type="curve" smooth="yes"/>
      <point x="98" y="700" type="line"/>
    </contour>
    <contour>
      <point x="268" y="78" type="curve"/>
      <point x="182" y="78" type="line"/>
      <point x="182" y="622" type="line"/>
      <point x="268" y="622" type="line" smooth="yes"/>
      <point x="390" y="622"/>
      <point x="446" y="580"/>
      <point x="446" y="434" type="curve" smooth="yes"/>
      <point x="446" y="266" type="line" smooth="yes"/>
      <point x="446" y="120"/>
      <point x="390" y="78"/>
    </contour>
  </outline>
</glyph>
<glyph name="Euro.cap" format="1">
  <advance width="612"/>
  <outline>
    <contour>
      <point x="20" y="444" type="line"/>
      <point x="20" y="366" type="line"/>
      <point x="80" y="366" type="line"/>
      <point x="80" y="330" type="line"/>
      <point x="20" y="330" type="line"/>
      <point x="20" y="252" type="line"/>
      <point x="80" y="252" type="line"/>
      <point x="86" y="78"/>
      <point x="177" y="-14"/>
      <point x="326" y="-14" type="curve" smooth="yes"/>
      <point x="486" y="-14"/>
      <point x="572" y="98"/>
      <point x="572" y="240" type="curve"/>
      <point x="488" y="252" type="line"/>
      <point x="488" y="240" type="line" smooth="yes"/>
      <point x="488" y="148"/>
      <point x="440" y="64"/>
      <point x="326" y="64" type="curve" smooth="yes"/>
      <point x="225" y="64"/>
      <point x="171" y="132"/>
      <point x="165" y="252" type="curve"/>
      <point x="322" y="252" type="line"/>
      <point x="322" y="330" type="line"/>
      <point x="164" y="330" type="line"/>
      <point x="164" y="366" type="line"/>
      <point x="322" y="366" type="line"/>
      <point x="322" y="444" type="line"/>
      <point x="164" y="444" type="line"/>
      <point x="170" y="560"/>
      <point x="224" y="636"/>
      <point x="326" y="636" type="curve" smooth="yes"/>
      <point x="440" y="636"/>
      <point x="486" y="552"/>
      <point x="488" y="460" type="curve" smooth="yes"/>
      <point x="488" y="448" type="line"/>
      <point x="572" y="460" type="line"/>
      <point x="572" y="602"/>
      <point x="486" y="714"/>
      <point x="326" y="714" type="curve" smooth="yes"/>
      <point x="176" y="714"/>
      <point x="85" y="614"/>
      <point x="80" y="444" type="curve"/>
    </contour>
  </outline>
</glyph>
<glyph name="IJacute" format="1">
  <advance width="612"/>
  <outline>
    <contour>
      <point x="73" y="342" type="line"/>
      <point x="157" y="342" type="line"/>
      <point x="157" y="700" type="line"/>
      <point x="73" y="700" type="line"/>
    </contour>
    <contour>
      <point x="505" y="622" type="line"/>
      <point x="565" y="622" type="line"/>
      <point x="565" y="700" type="line"/>
      <point x="349" y="700" type="line"/>
      <point x="349" y="622" type="line"/>
      <point x="421" y="622" type="line"/>
      <point x="421" y="210" type="line" smooth="yes"/>
      <point x="421" y="122"/>
      <point x="388" y="64"/>
      <point x="295" y="64" type="curve" smooth="yes"/>
      <point x="202" y="64"/>
      <point x="157" y="122"/>
      <point x="157" y="210" type="curve" smooth="yes"/>
      <point x="157" y="264" type="line"/>
      <point x="73" y="264" type="line"/>
      <point x="73" y="210" type="line" smooth="yes"/>
      <point x="73" y="66"/>
      <point x="159" y="-14"/>
      <point x="295" y="-14" type="curve" smooth="yes"/>
      <point x="431" y="-14"/>
      <point x="505" y="66"/>
      <point x="505" y="210" type="curve" smooth="yes"/>
    </contour>
    <component base="acute" xOffset="-151" yOffset="204"/>
    <component base="acute" xOffset="197" yOffset="204"/>
  </outline>
</glyph>
<glyph name="at.cap" format="1">
  <advance width="612"/>
  <outline>
    <contour>
      <point x="547" y="0" type="curve"/>
      <point x="600" y="0" type="line"/>
      <point x="600" y="72" type="line"/>
      <point x="575" y="72" type="line" smooth="yes"/>
      <point x="556" y="72"/>
      <point x="548" y="83"/>
      <point x="548" y="102" type="curve" smooth="yes"/>
      <point x="548" y="530" type="line" smooth="yes"/>
      <point x="548" y="654"/>
      <point x="478" y="714"/>
      <point x="358" y="714" type="curve" smooth="yes"/>
      <point x="226" y="714" type="line" smooth="yes"/>
      <point x="104" y="714"/>
      <point x="28" y="648"/>
      <point x="28" y="516" type="curve" smooth="yes"/>
      <point x="28" y="-2" type="line" smooth="yes"/>
      <point x="28" y="-136"/>
      <point x="102" y="-200"/>
      <point x="226" y="-200" type="curve" smooth="yes"/>
      <point x="600" y="-200" type="line"/>
      <point x="600" y="-128" type="line"/>
      <point x="232" y="-128" type="line" smooth="yes"/>
      <point x="144" y="-128"/>
      <point x="106" y="-84"/>
      <point x="106" y="4" type="curve" smooth="yes"/>
      <point x="106" y="510" type="line" smooth="yes"/>
      <point x="106" y="598"/>
      <point x="144" y="642"/>
      <point x="232" y="642" type="curve" smooth="yes"/>
      <point x="350" y="642" type="line" smooth="yes"/>
      <point x="434" y="642"/>
      <point x="470" y="602"/>
      <point x="470" y="522" type="curve" smooth="yes"/>
      <point x="470" y="442" type="line"/>
      <point x="458" y="442" type="line"/>
      <point x="440" y="482"/>
      <point x="402" y="510"/>
      <point x="340" y="510" type="curve" smooth="yes"/>
      <point x="238" y="510"/>
      <point x="154" y="426"/>
      <point x="154" y="256" type="curve" smooth="yes"/>
      <point x="154" y="240" type="line" smooth="yes"/>
      <point x="154" y="74"/>
      <point x="234" y="-14"/>
      <point x="342" y="-14" type="curve" smooth="yes"/>
      <point x="410" y="-14"/>
      <point x="446" y="18"/>
      <point x="458" y="60" type="curve"/>
      <point x="470" y="60" type="line"/>
      <point x="476" y="22"/>
      <point x="505" y="0"/>
    </contour>
    <contour>
      <point x="350" y="60" type="curve" smooth="yes"/>
      <point x="277" y="60"/>
      <point x="234" y="124"/>
      <point x="234" y="240" type="curve" smooth="yes"/>
      <point x="234" y="256" type="line" smooth="yes"/>
      <point x="234" y="374"/>
      <point x="279" y="436"/>
      <point x="352" y="436" type="curve" smooth="yes"/>
      <point x="443" y="436"/>
      <point x="470" y="354"/>
      <point x="470" y="254" type="curve" smooth="yes"/>
      <point x="470" y="242" type="line" smooth="yes"/>
      <point x="470" y="138"/>
      <point x="441" y="60"/>
    </contour>
  </outline>
</glyph>
<glyph name="dagger.cap" format="1">
  <advance width="612"/>
  <outline>
    <contour>
      <point x="96" y="438" type="line"/>
      <point x="271" y="438" type="line"/>
      <point x="271" y="0" type="line"/>
      <point x="343" y="0" type="line"/>
      <point x="343" y="438" type="line"/>
      <point x="516" y="438" type="line"/>
      <point x="516" y="510" type="line"/>
      <point x="343" y="510" type="line"/>
      <point x="343" y="700" type="line"/>
      <point x="271" y="700" type="line"/>
      <point x="271" y="510" type="line"/>
      <point x="96" y="510" type="line"/>
    </contour>
  </outline>
</glyph>
<glyph name="dotlessi.alt" format="1">
  <advance width="612"/>
  <outline>
    <contour>
      <point x="368" y="0" type="line"/>
      <point x="368" y="496" type="line"/>
      <point x="120" y="496" type="line"/>
      <point x="120" y="424" type="line"/>
      <point x="290" y="424" type="line"/>
      <point x="290" y="0" type="line"/>
    </contour>
  </outline>
</glyph>
<glyph name="eight.tosn" format="1">
  <advance width="612"/>
  <outline>
    <contour>
      <point x="297" y="-14" type="curve"/>
      <point x="297" y="-14"/>
      <point x="315" y="-14"/>
      <point x="315" y="-14" type="curve"/>
      <point x="454" y="-14"/>
      <point x="543" y="68"/>
      <point x="543" y="176" type="curve" smooth="yes"/>
      <point x="543" y="188" type="line" smooth="yes"/>
      <point x="543" y="284"/>
      <point x="479" y="338"/>
      <point x="413" y="357" type="curve"/>
      <point x="413" y="369" type="line"/>
      <point x="473" y="389"/>
      <point x="525" y="442"/>
      <point x="525" y="520" type="curve" smooth="yes"/>
      <point x="525" y="532" type="line" smooth="yes"/>
      <point x="525" y="638"/>
      <point x="439" y="714"/>
      <point x="309" y="714" type="curve" smooth="yes"/>
      <point x="309" y="714"/>
      <point x="303" y="714"/>
      <point x="303" y="714" type="curve" smooth="yes"/>
      <point x="173" y="714"/>
      <point x="87" y="638"/>
      <point x="87" y="532" type="curve" smooth="yes"/>
      <point x="87" y="520" type="line" smooth="yes"/>
      <point x="87" y="442"/>
      <point x="139" y="389"/>
      <point x="199" y="369" type="curve"/>
      <point x="199" y="357" type="line"/>
      <point x="133" y="338"/>
      <point x="69" y="284"/>
      <point x="69" y="188" type="curve" smooth="yes"/>
      <point x="69" y="176" type="line" smooth="yes"/>
      <point x="69" y="68"/>
      <point x="158" y="-14"/>
    </contour>
    <contour>
      <point x="300" y="62" type="line" smooth="yes"/>
      <point x="211" y="62"/>
      <point x="153" y="114"/>
      <point x="153" y="188" type="curve" smooth="yes"/>
      <point x="153" y="194" type="line" smooth="yes"/>
      <point x="153" y="276"/>
      <point x="214" y="324"/>
      <point x="303" y="324" type="curve" smooth="yes"/>
      <point x="303" y="324"/>
      <point x="309" y="324"/>
      <point x="309" y="324" type="curve" smooth="yes"/>
      <point x="398" y="324"/>
      <point x="459" y="276"/>
      <point x="459" y="194" type="curve" smooth="yes"/>
      <point x="459" y="188" type="line" smooth="yes"/>
      <point x="459" y="114"/>
      <point x="398" y="62"/>
      <point x="312" y="62" type="curve" smooth="yes"/>
    </contour>
    <contour>
      <point x="306" y="402" type="curve" smooth="yes"/>
      <point x="224" y="402"/>
      <point x="171" y="452"/>
      <point x="171" y="518" type="curve" smooth="yes"/>
      <point x="171" y="524" type="line" smooth="yes"/>
      <point x="171" y="592"/>
      <point x="224" y="638"/>
      <point x="306" y="638" type="curve" smooth="yes"/>
      <point x="388" y="638"/>
      <point x="441" y="592"/>
      <point x="441" y="524" type="curve" smooth="yes"/>
      <point x="441" y="518" type="line" smooth="yes"/>
      <point x="441" y="452"/>
      <point x="388" y="402"/>
    </contour>
  </outline>
</glyph>
<glyph name="florin.cap" format="1">
  <advance width="612"/>
  <outline>
    <contour>
      <point x="129" y="438" type="line"/>
      <point x="129" y="366" type="line"/>
      <point x="264" y="366" type="line"/>
      <point x="264" y="102" type="line" smooth="yes"/>
      <point x="264" y="83"/>
      <point x="256" y="72"/>
      <point x="237" y="72" type="curve" smooth="yes"/>
      <point x="93" y="72" type="line"/>
      <point x="93" y="0" type="line"/>
      <point x="265" y="0" type="line" smooth="yes"/>
      <point x="310" y="0"/>
      <point x="342" y="33"/>
      <point x="342" y="78" type="curve" smooth="yes"/>
      <point x="342" y="366" type="line"/>
      <point x="483" y="366" type="line"/>
      <point x="483" y="438" type="line"/>
      <point x="342" y="438" type="line"/>
      <point x="342" y="598" type="line" smooth="yes"/>
      <point x="342" y="617"/>
      <point x="350" y="628"/>
      <point x="369" y="628" type="curve" smooth="yes"/>
      <point x="519" y="628" type="line"/>
      <point x="519" y="700" type="line"/>
      <point x="341" y="700" type="line" smooth="yes"/>
      <point x="296" y="700"/>
      <point x="264" y="667"/>
      <point x="264" y="622" type="curve" smooth="yes"/>
      <point x="264" y="438" type="line"/>
    </contour>
  </outline>
</glyph>
<glyph name="four.tosn" format="1">
  <advance width="612"/>
  <outline>
    <contour>
      <point x="296" y="496" type="line"/>
      <point x="296" y="496"/>
      <point x="456" y="496"/>
      <point x="456" y="496" type="curve"/>
      <point x="456" y="496"/>
      <point x="456" y="78"/>
      <point x="456" y="78" type="curve"/>
      <point x="456" y="78"/>
      <point x="558" y="78"/>
      <point x="558" y="78" type="curve"/>
      <point x="558" y="78"/>
      <point x="558" y="0"/>
      <point x="558" y="0" type="curve"/>
      <point x="558" y="0"/>
      <point x="456" y="0"/>
      <point x="456" y="0" type="curve"/>
      <point x="456" y="0"/>
      <point x="456" y="-194"/>
      <point x="456" y="-194" type="curve"/>
      <point x="456" y="-194"/>
      <point x="372" y="-194"/>
      <point x="372" y="-194" type="curve"/>
      <point x="372" y="-194"/>
      <point x="372" y="0"/>
      <point x="372" y="0" type="curve"/>
      <point x="372" y="0"/>
      <point x="60" y="0"/>
      <point x="60" y="0" type="curve"/>
      <point x="60" y="114" type="line"/>
    </contour>
    <contour>
      <point x="132" y="90" type="line"/>
      <point x="132" y="78" type="line"/>
      <point x="132" y="78"/>
      <point x="372" y="78"/>
      <point x="372" y="78" type="curve"/>
      <point x="372" y="78"/>
      <point x="372" y="460"/>
      <point x="372" y="460" type="curve"/>
      <point x="372" y="460"/>
      <point x="360" y="460"/>
      <point x="360" y="460" type="curve"/>
    </contour>
  </outline>
</glyph>
<glyph name="j.alt" format="1">
  <advance width="612"/>
  <outline>
    <contour>
      <point x="307" y="644" type="curve" smooth="yes"/>
      <point x="307" y="606"/>
      <point x="339" y="574"/>
      <point x="377" y="574" type="curve" smooth="yes"/>
      <point x="415" y="574"/>
      <point x="447" y="606"/>
      <point x="447" y="644" type="curve" smooth="yes"/>
      <point x="447" y="682"/>
      <point x="415" y="714"/>
      <point x="377" y="714" type="curve" smooth="yes"/>
      <point x="339" y="714"/>
      <point x="307" y="682"/>
    </contour>
    <contour>
      <point x="129" y="424" type="line"/>
      <point x="339" y="424" type="line"/>
      <point x="339" y="-200" type="line"/>
      <point x="417" y="-200" type="line"/>
      <point x="417" y="496" type="line"/>
      <point x="129" y="496" type="line"/>
    </contour>
  </outline>
</glyph>
<glyph name="paragraph.cap" format="1">
  <advance width="612"/>
  <outline>
    <contour>
      <point x="290" y="700" type="line" smooth="yes"/>
      <point x="148" y="700"/>
      <point x="72" y="610"/>
      <point x="72" y="504" type="curve" smooth="yes"/>
      <point x="72" y="492" type="line" smooth="yes"/>
      <point x="72" y="386"/>
      <point x="148" y="296"/>
      <point x="290" y="296" type="curve" smooth="yes"/>
      <point x="302" y="296" type="line"/>
      <point x="302" y="0" type="line"/>
      <point x="380" y="0" type="line"/>
      <point x="380" y="628" type="line"/>
      <point x="422" y="628" type="line"/>
      <point x="422" y="0" type="line"/>
      <point x="500" y="0" type="line"/>
      <point x="500" y="700" type="line"/>
    </contour>
    <contour>
      <point x="150" y="501" type="line"/>
      <point x="150" y="574"/>
      <point x="198" y="628"/>
      <point x="292" y="628" type="curve" smooth="yes"/>
      <point x="302" y="628" type="line"/>
      <point x="302" y="368" type="line"/>
      <point x="292" y="368" type="line" smooth="yes"/>
      <point x="198" y="368"/>
      <point x="150" y="422"/>
      <point x="150" y="495" type="curve"/>
    </contour>
  </outline>
</glyph>
<glyph name="r.alt" format="1">
  <advance width="612"/>
  <outline>
    <contour>
      <point x="44" y="424" type="line"/>
      <point x="146" y="424" type="line"/>
      <point x="146" y="0" type="line"/>
      <point x="224" y="0" type="line"/>
      <point x="224" y="282" type="line" smooth="yes"/>
      <point x="224" y="368"/>
      <point x="262" y="436"/>
      <point x="344" y="436" type="curve" smooth="yes"/>
      <point x="408" y="436"/>
      <point x="458" y="398"/>
      <point x="458" y="306" type="curve"/>
      <point x="540" y="318" type="line"/>
      <point x="536" y="443"/>
      <point x="469" y="510"/>
      <point x="370" y="510" type="curve" smooth="yes"/>
      <point x="311" y="510"/>
      <point x="261" y="484"/>
      <point x="236" y="430" type="curve"/>
      <point x="224" y="430" type="line"/>
      <point x="224" y="496" type="line"/>
      <point x="44" y="496" type="line"/>
    </contour>
  </outline>
</glyph>
<glyph name="section.cap" format="1">
  <advance width="612"/>
  <outline>
    <contour>
      <point x="129" y="400" type="curve"/>
      <point x="129" y="394" type="line" smooth="yes"/>
      <point x="129" y="300"/>
      <point x="199" y="255"/>
      <point x="306" y="239" type="curve" smooth="yes"/>
      <point x="401" y="225"/>
      <point x="429" y="200"/>
      <point x="429" y="148" type="curve" smooth="yes"/>
      <point x="429" y="92"/>
      <point x="389" y="58"/>
      <point x="319" y="58" type="curve" smooth="yes"/>
      <point x="231" y="58"/>
      <point x="183" y="108"/>
      <point x="183" y="188" type="curve" smooth="yes"/>
      <point x="183" y="204" type="line"/>
      <point x="105" y="204" type="line"/>
      <point x="105" y="184" type="line" smooth="yes"/>
      <point x="105" y="72"/>
      <point x="179" y="-14"/>
      <point x="319" y="-14" type="curve" smooth="yes"/>
      <point x="441" y="-14"/>
      <point x="507" y="52"/>
      <point x="507" y="148" type="curve" smooth="yes"/>
      <point x="507" y="156" type="line" smooth="yes"/>
      <point x="507" y="185"/>
      <point x="500" y="211"/>
      <point x="487" y="233" type="curve"/>
      <point x="500" y="256"/>
      <point x="507" y="284"/>
      <point x="507" y="314" type="curve" smooth="yes"/>
      <point x="507" y="320" type="line" smooth="yes"/>
      <point x="507" y="404"/>
      <point x="455" y="456"/>
      <point x="338" y="473" type="curve" smooth="yes"/>
      <point x="243" y="487"/>
      <point x="207" y="510"/>
      <point x="207" y="564" type="curve" smooth="yes"/>
      <point x="207" y="612"/>
      <point x="250" y="642"/>
      <point x="307" y="642" type="curve" smooth="yes"/>
      <point x="372" y="642"/>
      <point x="423" y="606"/>
      <point x="423" y="546" type="curve" smooth="yes"/>
      <point x="423" y="520" type="line"/>
      <point x="501" y="520" type="line"/>
      <point x="501" y="552" type="line" smooth="yes"/>
      <point x="501" y="638"/>
      <point x="433" y="714"/>
      <point x="307" y="714" type="curve" smooth="yes"/>
      <point x="201" y="714"/>
      <point x="129" y="654"/>
      <point x="129" y="566" type="curve" smooth="yes"/>
      <point x="129" y="560" type="line" smooth="yes"/>
      <point x="129" y="527"/>
      <point x="137" y="500"/>
      <point x="152" y="478" type="curve"/>
      <point x="137" y="456"/>
      <point x="129" y="430"/>
    </contour>
    <contour>
      <point x="338" y="309" type="curve" smooth="yes"/>
      <point x="243" y="323"/>
      <point x="207" y="346"/>
      <point x="207" y="398" type="curve" smooth="yes"/>
      <point x="207" y="409"/>
      <point x="209" y="419"/>
      <point x="214" y="428" type="curve"/>
      <point x="240" y="416"/>
      <point x="271" y="408"/>
      <point x="306" y="403" type="curve" smooth="yes"/>
      <point x="401" y="389"/>
      <point x="429" y="364"/>
      <point x="429" y="312" type="curve" smooth="yes"/>
      <point x="429" y="302"/>
      <point x="427" y="293"/>
      <point x="423" y="285" type="curve"/>
      <point x="400" y="296"/>
      <point x="371" y="304"/>
    </contour>
  </outline>
</glyph>
<glyph name="seven.tosn" format="1">
  <advance width="612"/>
  <outline>
    <contour>
      <point x="70" y="418" type="line"/>
      <point x="460" y="418" type="line"/>
      <point x="460" y="406" type="line"/>
      <point x="179" y="-14" type="line" smooth="yes"/>
      <point x="137" y="-77"/>
      <point x="118" y="-110"/>
      <point x="118" y="-158" type="curve" smooth="yes"/>
      <point x="118" y="-194" type="line"/>
      <point x="200" y="-194" type="line"/>
      <point x="200" y="-164" type="line" smooth="yes"/>
      <point x="200" y="-132"/>
      <point x="215" y="-104"/>
      <point x="243" y="-62" type="curve" smooth="yes"/>
      <point x="532" y="374" type="line"/>
      <point x="532" y="496" type="line"/>
      <point x="70" y="496" type="line"/>
    </contour>
  </outline>
</glyph>
<glyph name="six.tosn" format="1">
  <advance width="612"/>
  <outline>
    <contour>
      <point x="538" y="508" type="line"/>
      <point x="526" y="632"/>
      <point x="438" y="714"/>
      <point x="306" y="714" type="curve" smooth="yes"/>
      <point x="172" y="714"/>
      <point x="63" y="620"/>
      <point x="63" y="472" type="curve" smooth="yes"/>
      <point x="63" y="217" type="line" smooth="yes"/>
      <point x="63" y="81"/>
      <point x="168" y="-14"/>
      <point x="306" y="-14" type="curve" smooth="yes"/>
      <point x="444" y="-14"/>
      <point x="549" y="82"/>
      <point x="549" y="220" type="curve" smooth="yes"/>
      <point x="549" y="232" type="line" smooth="yes"/>
      <point x="549" y="376"/>
      <point x="456" y="462"/>
      <point x="327" y="462" type="curve" smooth="yes"/>
      <point x="254" y="462"/>
      <point x="191" y="426"/>
      <point x="159" y="368" type="curve"/>
      <point x="147" y="368" type="line"/>
      <point x="147" y="472" type="line" smooth="yes"/>
      <point x="147" y="572"/>
      <point x="214" y="640"/>
      <point x="302" y="640" type="curve" smooth="yes"/>
      <point x="398" y="640"/>
      <point x="452" y="582"/>
      <point x="458" y="498" type="curve"/>
    </contour>
    <contour>
      <point x="306" y="60" type="curve"/>
      <point x="209" y="60"/>
      <point x="147" y="126"/>
      <point x="147" y="215" type="curve" smooth="yes"/>
      <point x="147" y="234" type="line" smooth="yes"/>
      <point x="147" y="320"/>
      <point x="216" y="388"/>
      <point x="306" y="388" type="curve" smooth="yes"/>
      <point x="398" y="388"/>
      <point x="465" y="323"/>
      <point x="465" y="230" type="curve" smooth="yes"/>
      <point x="465" y="218" type="line" smooth="yes"/>
      <point x="465" y="126"/>
      <point x="403" y="60"/>
    </contour>
  </outline>
</glyph>
<glyph name="two.tosn" format="1">
  <advance width="612"/>
  <outline>
    <contour>
      <point x="172" y="88" type="line"/>
      <point x="172" y="148"/>
      <point x="206" y="171"/>
      <point x="334" y="189" type="curve" smooth="yes"/>
      <point x="482" y="210"/>
      <point x="532" y="260"/>
      <point x="532" y="348" type="curve" smooth="yes"/>
      <point x="532" y="432"/>
      <point x="466" y="510"/>
      <point x="318" y="510" type="curve" smooth="yes"/>
      <point x="174" y="510"/>
      <point x="100" y="428"/>
      <point x="84" y="330" type="curve"/>
      <point x="164" y="312" type="line"/>
      <point x="176" y="390"/>
      <point x="230" y="432"/>
      <point x="318" y="432" type="curve" smooth="yes"/>
      <point x="414" y="432"/>
      <point x="448" y="388"/>
      <point x="448" y="351" type="curve" smooth="yes"/>
      <point x="448" y="298"/>
      <point x="410" y="277"/>
      <point x="292" y="261" type="curve" smooth="yes"/>
      <point x="148" y="241"/>
      <point x="88" y="192"/>
      <point x="88" y="86" type="curve" smooth="yes"/>
      <point x="88" y="0" type="line"/>
      <point x="526" y="0" type="line"/>
      <point x="526" y="78" type="line"/>
      <point x="172" y="78" type="line"/>
    </contour>
  </outline>
</glyph>
<glyph name="uni0243.alt" format="1">
  <advance width="612"/>
  <outline>
    <contour>
      <point x="96" y="0" type="line"/>
      <point x="331" y="0" type="line" smooth="yes"/>
      <point x="465" y="0"/>
      <point x="538" y="78"/>
      <point x="538" y="183" type="curve" smooth="yes"/>
      <point x="538" y="195" type="line" smooth="yes"/>
      <point x="538" y="270"/>
      <point x="486" y="327"/>
      <point x="420" y="345" type="curve"/>
      <point x="420" y="357" type="line"/>
      <point x="486" y="375"/>
      <point x="538" y="430"/>
      <point x="538" y="506" type="curve" smooth="yes"/>
      <point x="538" y="518" type="line" smooth="yes"/>
      <point x="538" y="622"/>
      <point x="465" y="700"/>
      <point x="331" y="700" type="curve" smooth="yes"/>
      <point x="96" y="700" type="line"/>
      <point x="96" y="234" type="line"/>
      <point x="36" y="234" type="line"/>
      <point x="36" y="156" type="line"/>
      <point x="96" y="156" type="line"/>
    </contour>
    <contour>
      <point x="180" y="622" type="line"/>
      <point x="325" y="622" type="line" smooth="yes"/>
      <point x="403" y="622"/>
      <point x="458" y="580"/>
      <point x="458" y="512" type="curve" smooth="yes"/>
      <point x="458" y="506" type="line" smooth="yes"/>
      <point x="458" y="434"/>
      <point x="408" y="390"/>
      <point x="328" y="390" type="curve" smooth="yes"/>
      <point x="180" y="390" type="line"/>
    </contour>
    <contour>
      <point x="180" y="312" type="line"/>
      <point x="328" y="312" type="line" smooth="yes"/>
      <point x="408" y="312"/>
      <point x="458" y="266"/>
      <point x="458" y="195" type="curve" smooth="yes"/>
      <point x="458" y="189" type="line" smooth="yes"/>
      <point x="458" y="120"/>
      <point x="403" y="78"/>
      <point x="325" y="78" type="curve" smooth="yes"/>
      <point x="180" y="78" type="line"/>
      <point x="180" y="156" type="line"/>
      <point x="288" y="156" type="line"/>
      <point x="288" y="234" type="line"/>
      <point x="180" y="234" type="line"/>
    </contour>
  </outline>
</glyph>
<glyph name="uni1EA3.alt" format="1">
  <advance width="612"/>
  <outline>
    <contour>
      <point x="258" y="546" type="line"/>
      <point x="238" y="638" type="line"/>
      <point x="238" y="644" type="line"/>
      <point x="314" y="644" type="line"/>
      <point x="318" y="636"/>
      <point x="327" y="630"/>
      <point x="339" y="630" type="curve" smooth="yes"/>
      <point x="358" y="630"/>
      <point x="374" y="644"/>
      <point x="374" y="668" type="curve" smooth="yes"/>
      <point x="374" y="697"/>
      <point x="354" y="710"/>
      <point x="334" y="710" type="curve" smooth="yes"/>
      <point x="305" y="710"/>
      <point x="290" y="690"/>
      <point x="286" y="670" type="curve"/>
      <point x="238" y="688" type="line"/>
      <point x="248" y="728"/>
      <point x="278" y="758"/>
      <point x="335" y="758" type="curve" smooth="yes"/>
      <point x="387" y="758"/>
      <point x="428" y="722"/>
      <point x="428" y="667" type="curve" smooth="yes"/>
      <point x="428" y="621"/>
      <point x="398" y="582"/>
      <point x="352" y="582" type="curve" smooth="yes"/>
      <point x="324" y="582"/>
      <point x="306" y="594"/>
      <point x="298" y="614" type="curve"/>
      <point x="292" y="614" type="line"/>
      <point x="307" y="546" type="line"/>
    </contour>
    <component base="a.alt"/>
  </outline>
</glyph>
<glyph name="uni1EA9.alt" format="1">
  <advance width="612"/>
  <outline>
    <contour>
      <point x="411" y="658" type="line"/>
      <point x="391" y="750" type="line"/>
      <point x="391" y="756" type="line"/>
      <point x="467" y="756" type="line"/>
      <point x="471" y="748"/>
      <point x="480" y="742"/>
      <point x="492" y="742" type="curve" smooth="yes"/>
      <point x="511" y="742"/>
      <point x="527" y="756"/>
      <point x="527" y="780" type="curve" smooth="yes"/>
      <point x="527" y="809"/>
      <point x="507" y="822"/>
      <point x="487" y="822" type="curve" smooth="yes"/>
      <point x="458" y="822"/>
      <point x="443" y="802"/>
      <point x="439" y="782" type="curve"/>
      <point x="391" y="800" type="line"/>
      <point x="401" y="840"/>
      <point x="431" y="870"/>
      <point x="488" y="870" type="curve" smooth="yes"/>
      <point x="540" y="870"/>
      <point x="581" y="834"/>
      <point x="581" y="779" type="curve" smooth="yes"/>
      <point x="581" y="733"/>
      <point x="551" y="694"/>
      <point x="505" y="694" type="curve" smooth="yes"/>
      <point x="477" y="694"/>
      <point x="459" y="706"/>
      <point x="451" y="726" type="curve"/>
      <point x="445" y="726" type="line"/>
      <point x="460" y="658" type="line"/>
    </contour>
    <component base="a.alt"/>
    <component base="circumflex" xOffset="-14"/>
  </outline>
</glyph>
<glyph name="uni1EB3.alt" format="1">
  <advance width="612"/>
  <outline>
    <contour>
      <point x="267" y="718" type="line"/>
      <point x="247" y="810" type="line"/>
      <point x="247" y="816" type="line"/>
      <point x="323" y="816" type="line"/>
      <point x="327" y="808"/>
      <point x="336" y="802"/>
      <point x="348" y="802" type="curve" smooth="yes"/>
      <point x="367" y="802"/>
      <point x="383" y="816"/>
      <point x="383" y="840" type="curve" smooth="yes"/>
      <point x="383" y="869"/>
      <point x="363" y="882"/>
      <point x="343" y="882" type="curve" smooth="yes"/>
      <point x="314" y="882"/>
      <point x="299" y="862"/>
      <point x="295" y="842" type="curve"/>
      <point x="247" y="860" type="line"/>
      <point x="257" y="900"/>
      <point x="287" y="930"/>
      <point x="344" y="930" type="curve" smooth="yes"/>
      <point x="396" y="930"/>
      <point x="437" y="894"/>
      <point x="437" y="839" type="curve" smooth="yes"/>
      <point x="437" y="793"/>
      <point x="407" y="754"/>
      <point x="361" y="754" type="curve" smooth="yes"/>
      <point x="333" y="754"/>
      <point x="315" y="766"/>
      <point x="307" y="786" type="curve"/>
      <point x="301" y="786" type="line"/>
      <point x="316" y="718" type="line"/>
    </contour>
    <component base="a.alt"/>
    <component base="breve" xOffset="-14"/>
  </outline>
</glyph>
<glyph name="uni1EC9.alt" format="1">
  <advance width="612"/>
  <outline>
    <contour>
      <point x="304" y="546" type="line"/>
      <point x="284" y="638" type="line"/>
      <point x="284" y="644" type="line"/>
      <point x="360" y="644" type="line"/>
      <point x="364" y="636"/>
      <point x="373" y="630"/>
      <point x="385" y="630" type="curve" smooth="yes"/>
      <point x="404" y="630"/>
      <point x="420" y="644"/>
      <point x="420" y="668" type="curve" smooth="yes"/>
      <point x="420" y="697"/>
      <point x="400" y="710"/>
      <point x="380" y="710" type="curve" smooth="yes"/>
      <point x="351" y="710"/>
      <point x="336" y="690"/>
      <point x="332" y="670" type="curve"/>
      <point x="284" y="688" type="line"/>
      <point x="294" y="728"/>
      <point x="324" y="758"/>
      <point x="381" y="758" type="curve" smooth="yes"/>
      <point x="433" y="758"/>
      <point x="474" y="722"/>
      <point x="474" y="667" type="curve" smooth="yes"/>
      <point x="474" y="621"/>
      <point x="444" y="582"/>
      <point x="398" y="582" type="curve" smooth="yes"/>
      <point x="370" y="582"/>
      <point x="352" y="594"/>
      <point x="344" y="614" type="curve"/>
      <point x="338" y="614" type="line"/>
      <point x="353" y="546" type="line"/>
    </contour>
    <component base="dotlessi.alt"/>
  </outline>
</glyph>
<glyph name="uni20A4.cap" format="1">
  <advance width="612"/>
  <outline>
    <contour>
      <point x="60" y="216" type="line"/>
      <point x="120" y="216" type="line"/>
      <point x="120" y="78" type="line"/>
      <point x="60" y="78" type="line"/>
      <point x="60" y="0" type="line"/>
      <point x="552" y="0" type="line"/>
      <point x="552" y="78" type="line"/>
      <point x="204" y="78" type="line"/>
      <point x="204" y="216" type="line"/>
      <point x="323" y="216" type="line"/>
      <point x="323" y="294" type="line"/>
      <point x="204" y="294" type="line"/>
      <point x="204" y="330" type="line"/>
      <point x="324" y="330" type="line"/>
      <point x="324" y="408" type="line"/>
      <point x="204" y="408" type="line"/>
      <point x="204" y="490" type="line" smooth="yes"/>
      <point x="204" y="576"/>
      <point x="247" y="636"/>
      <point x="332" y="636" type="curve" smooth="yes"/>
      <point x="425" y="636"/>
      <point x="468" y="578"/>
      <point x="468" y="490" type="curve" smooth="yes"/>
      <point x="468" y="436" type="line"/>
      <point x="552" y="436" type="line"/>
      <point x="552" y="490" type="line" smooth="yes"/>
      <point x="552" y="630"/>
      <point x="466" y="714"/>
      <point x="332" y="714" type="curve" smooth="yes"/>
      <point x="204" y="714"/>
      <point x="120" y="632"/>
      <point x="120" y="490" type="curve" smooth="yes"/>
      <point x="120" y="408" type="line"/>
      <point x="60" y="408" type="line"/>
      <point x="60" y="330" type="line"/>
      <point x="120" y="330" type="line"/>
      <point x="120" y="294" type="line"/>
      <point x="60" y="294" type="line"/>
    </contour>
  </outline>
</glyph>
<glyph name="uni20A7.cap" format="1">
  <advance width="612"/>
  <outline>
    <contour>
      <point x="26" y="455" type="line"/>
      <point x="86" y="455" type="line"/>
      <point x="86" y="0" type="line"/>
      <point x="170" y="0" type="line"/>
      <point x="170" y="288" type="line"/>
      <point x="312" y="288" type="line" smooth="yes"/>
      <point x="442" y="288"/>
      <point x="513" y="364"/>
      <point x="524" y="455" type="curve"/>
      <point x="586" y="455" type="line"/>
      <point x="586" y="533" type="line"/>
      <point x="525" y="533" type="line"/>
      <point x="515" y="624"/>
      <point x="444" y="700"/>
      <point x="312" y="700" type="curve" smooth="yes"/>
      <point x="86" y="700" type="line"/>
      <point x="86" y="533" type="line"/>
      <point x="26" y="533" type="line"/>
    </contour>
    <contour>
      <point x="302" y="366" type="curve"/>
      <point x="170" y="366" type="line"/>
      <point x="170" y="455" type="line"/>
      <point x="439" y="455" type="line"/>
      <point x="428" y="395"/>
      <point x="383" y="366"/>
    </contour>
    <contour>
      <point x="170" y="622" type="line"/>
      <point x="302" y="622" type="line" smooth="yes"/>
      <point x="382" y="622"/>
      <point x="427" y="587"/>
      <point x="439" y="533" type="curve"/>
      <point x="170" y="533" type="line"/>
    </contour>
  </outline>
</glyph>
<glyph name="uni20AB.cap" format="1">
  <advance width="612"/>
  <outline>
    <contour>
      <point x="272" y="556" type="line"/>
      <point x="448" y="556" type="line"/>
      <point x="448" y="424" type="line"/>
      <point x="436" y="424" type="line"/>
      <point x="403" y="486"/>
      <point x="340" y="510"/>
      <point x="272" y="510" type="curve" smooth="yes"/>
      <point x="144" y="510"/>
      <point x="36" y="417"/>
      <point x="36" y="256" type="curve" smooth="yes"/>
      <point x="36" y="240" type="line" smooth="yes"/>
      <point x="36" y="77"/>
      <point x="142" y="-14"/>
      <point x="274" y="-14" type="curve" smooth="yes"/>
      <point x="334" y="-14"/>
      <point x="403" y="8"/>
      <point x="436" y="70" type="curve"/>
      <point x="448" y="70" type="line"/>
      <point x="448" y="0" type="line"/>
      <point x="532" y="0" type="line"/>
      <point x="532" y="556" type="line"/>
      <point x="592" y="556" type="line"/>
      <point x="592" y="634" type="line"/>
      <point x="532" y="634" type="line"/>
      <point x="532" y="700" type="line"/>
      <point x="448" y="700" type="line"/>
      <point x="448" y="634" type="line"/>
      <point x="272" y="634" type="line"/>
    </contour>
    <contour>
      <point x="285" y="64" type="curve" smooth="yes"/>
      <point x="190" y="64"/>
      <point x="120" y="129"/>
      <point x="120" y="240" type="curve" smooth="yes"/>
      <point x="120" y="256" type="line" smooth="yes"/>
      <point x="120" y="363"/>
      <point x="191" y="432"/>
      <point x="285" y="432" type="curve" smooth="yes"/>
      <point x="377" y="432"/>
      <point x="448" y="360"/>
      <point x="448" y="254" type="curve" smooth="yes"/>
      <point x="448" y="242" type="line" smooth="yes"/>
      <point x="448" y="132"/>
      <point x="378" y="64"/>
    </contour>
    <contour>
      <point x="120" y="-128" type="line"/>
      <point x="532" y="-128" type="line"/>
      <point x="532" y="-50" type="line"/>
      <point x="120" y="-50" type="line"/>
    </contour>
  </outline>
</glyph>
<glyph name="uni20B1.cap" format="1">
  <advance width="612"/>
  <outline>
    <contour>
      <point x="26" y="455" type="line"/>
      <point x="86" y="455" type="line"/>
      <point x="86" y="366" type="line"/>
      <point x="26" y="366" type="line"/>
      <point x="26" y="288" type="line"/>
      <point x="86" y="288" type="line"/>
      <point x="86" y="0" type="line"/>
      <point x="170" y="0" type="line"/>
      <point x="170" y="288" type="line"/>
      <point x="586" y="288" type="line"/>
      <point x="586" y="366" type="line"/>
      <point x="478" y="366" type="line"/>
      <point x="478" y="378" type="line"/>
      <point x="504" y="396"/>
      <point x="520" y="422"/>
      <point x="524" y="455" type="curve"/>
      <point x="586" y="455" type="line"/>
      <point x="586" y="533" type="line"/>
      <point x="525" y="533" type="line"/>
      <point x="515" y="624"/>
      <point x="444" y="700"/>
      <point x="312" y="700" type="curve" smooth="yes"/>
      <point x="86" y="700" type="line"/>
      <point x="86" y="533" type="line"/>
      <point x="26" y="533" type="line"/>
    </contour>
    <contour>
      <point x="309" y="366" type="curve"/>
      <point x="170" y="366" type="line"/>
      <point x="170" y="455" type="line"/>
      <point x="439" y="455" type="line"/>
      <point x="429" y="397"/>
      <point x="385" y="367"/>
    </contour>
    <contour>
      <point x="170" y="622" type="line"/>
      <point x="302" y="622" type="line" smooth="yes"/>
      <point x="382" y="622"/>
      <point x="427" y="587"/>
      <point x="439" y="533" type="curve"/>
      <point x="170" y="533" type="line"/>
    </contour>
  </outline>
</glyph>
<glyph name="uni20B5.cap" format="1">
  <advance width="612"/>
  <outline>
    <contour>
      <point x="352" y="792" type="line"/>
      <point x="274" y="792" type="line"/>
      <point x="274" y="712" type="line"/>
      <point x="142" y="696"/>
      <point x="64" y="593"/>
      <point x="64" y="428" type="curve" smooth="yes"/>
      <point x="64" y="272" type="line" smooth="yes"/>
      <point x="64" y="101"/>
      <point x="142" y="3"/>
      <point x="274" y="-12" type="curve"/>
      <point x="274" y="-92" type="line"/>
      <point x="352" y="-92" type="line"/>
      <point x="352" y="-11" type="line"/>
      <point x="485" y="7"/>
      <point x="556" y="111"/>
      <point x="556" y="240" type="curve" smooth="yes"/>
      <point x="556" y="252" type="line"/>
      <point x="472" y="252" type="line"/>
      <point x="472" y="240" type="line" smooth="yes"/>
      <point x="472" y="160"/>
      <point x="436" y="86"/>
      <point x="352" y="68" type="curve"/>
      <point x="352" y="632" type="line"/>
      <point x="435" y="614"/>
      <point x="470" y="539"/>
      <point x="472" y="460" type="curve" smooth="yes"/>
      <point x="472" y="448" type="line"/>
      <point x="556" y="448" type="line"/>
      <point x="556" y="460" type="line" smooth="yes"/>
      <point x="556" y="589"/>
      <point x="485" y="693"/>
      <point x="352" y="711" type="curve"/>
    </contour>
    <contour>
      <point x="148" y="278" type="curve"/>
      <point x="148" y="422" type="line" smooth="yes"/>
      <point x="148" y="535"/>
      <point x="190" y="616"/>
      <point x="274" y="633" type="curve"/>
      <point x="274" y="67" type="line"/>
      <point x="190" y="83"/>
      <point x="148" y="158"/>
    </contour>
  </outline>
</glyph>
<glyph name="y.alt" format="1">
  <advance width="612"/>
  <outline>
    <contour>
      <point x="556" y="496" type="line"/>
      <point x="464" y="496" type="line"/>
      <point x="312" y="60" type="line"/>
      <point x="300" y="60" type="line"/>
      <point x="148" y="496" type="line"/>
      <point x="56" y="496" type="line"/>
      <point x="237" y="0" type="line"/>
      <point x="267" y="0" type="line"/>
      <point x="267" y="-98" type="line" smooth="yes"/>
      <point x="267" y="-117"/>
      <point x="259" y="-128"/>
      <point x="240" y="-128" type="curve" smooth="yes"/>
      <point x="74" y="-128" type="line"/>
      <point x="74" y="-200" type="line"/>
      <point x="268" y="-200" type="line" smooth="yes"/>
      <point x="313" y="-200"/>
      <point x="345" y="-167"/>
      <point x="345" y="-122" type="curve" smooth="yes"/>
      <point x="345" y="0" type="line"/>
      <point x="375" y="0" type="line"/>
    </contour>
  </outline>
</glyph>
